SeanSlab-NormalExtralight.ufo
<glyph name="exclam" format="1">
  <advance width="233"/>
  <unicode hex="0021"/>
  <outline>
    <contour>
      <point x="137" y="229" type="line"/>
      <point x="142" y="722" type="line"/>
      <point x="92" y="722" type="line"/>
      <point x="97" y="229" type="line"/>
    </contour>
    <contour>
      <point x="146" y="20" type="curve"/>
      <point x="146" y="36"/>
      <point x="134" y="45"/>
      <point x="117" y="45" type="curve"/>
      <point x="100" y="45"/>
      <point x="90" y="35"/>
      <point x="90" y="20" type="curve"/>
      <point x="135" y="20"/>
      <point x="100" y="20"/>
      <point x="146" y="20" type="curve"/>
      <point x="146" y="3"/>
      <point x="134" y="-6"/>
      <point x="117" y="-6" type="curve"/>
      <point x="100" y="-6"/>
      <point x="90" y="3"/>
      <point x="90" y="20" type="curve"/>
      <point x="135" y="20"/>
      <point x="100" y="20"/>
    </contour>
  </outline>
</glyph>
<glyph name="quotedbl" format="1">
  <advance width="415"/>
  <unicode hex="0022"/>
  <outline>
    <contour>
      <point x="134" y="602" type="line"/>
      <point x="138" y="796" type="line"/>
      <point x="89" y="796" type="line"/>
      <point x="93" y="602" type="line"/>
    </contour>
    <contour>
      <point x="322" y="602" type="line"/>
      <point x="326" y="796" type="line"/>
      <point x="277" y="796" type="line"/>
      <point x="281" y="602" type="line"/>
    </contour>
  </outline>
</glyph>
<glyph name="numbersign" format="1">
  <advance width="700"/>
  <unicode hex="0023"/>
  <outline>
    <contour>
      <point x="48" y="242" type="line"/>
      <point x="564" y="242" type="line"/>
      <point x="575" y="278" type="line"/>
      <point x="60" y="278" type="line"/>
    </contour>
    <contour>
      <point x="123" y="482" type="line"/>
      <point x="640" y="482" type="line"/>
      <point x="651" y="517" type="line"/>
      <point x="134" y="517" type="line"/>
    </contour>
    <contour>
      <point x="409" y="39" type="line"/>
      <point x="635" y="722" type="line"/>
      <point x="592" y="722" type="line"/>
      <point x="366" y="39" type="line"/>
    </contour>
    <contour>
      <point x="126" y="46" type="line"/>
      <point x="348" y="722" type="line"/>
      <point x="306" y="722" type="line"/>
      <point x="85" y="46" type="line"/>
    </contour>
  </outline>
</glyph>
<glyph name="dollar" format="1">
  <advance width="574"/>
  <unicode hex="0024"/>
  <outline>
    <contour>
      <point x="98" y="98" type="curve"/>
      <point x="98" y="218"/>
      <point x="98" y="100"/>
      <point x="98" y="220" type="curve"/>
      <point x="62" y="220"/>
      <point x="98" y="220"/>
      <point x="62" y="220" type="curve"/>
      <point x="62" y="100"/>
      <point x="62" y="218"/>
      <point x="62" y="98" type="curve"/>
      <point x="98" y="98"/>
      <point x="62" y="98"/>
    </contour>
    <contour>
      <point x="459" y="632" type="curve"/>
      <point x="459" y="512"/>
      <point x="459" y="629"/>
      <point x="459" y="509" type="curve"/>
      <point x="495" y="509"/>
      <point x="459" y="509"/>
      <point x="495" y="509" type="curve"/>
      <point x="495" y="629"/>
      <point x="495" y="512"/>
      <point x="495" y="632" type="curve"/>
      <point x="459" y="632"/>
      <point x="495" y="632"/>
    </contour>
    <contour>
      <point x="292" y="-43" type="curve"/>
      <point x="292" y="-9"/>
      <point x="292" y="31"/>
      <point x="292" y="65" type="curve"/>
      <point x="249" y="65"/>
      <point x="292" y="65"/>
      <point x="249" y="65" type="curve"/>
      <point x="249" y="31"/>
      <point x="249" y="-9"/>
      <point x="249" y="-43" type="curve"/>
      <point x="292" y="-43"/>
      <point x="249" y="-43"/>
    </contour>
    <contour>
      <point x="305" y="665" type="curve"/>
      <point x="305" y="698"/>
      <point x="305" y="740"/>
      <point x="305" y="773" type="curve"/>
      <point x="262" y="773"/>
      <point x="305" y="773"/>
      <point x="262" y="773" type="curve"/>
      <point x="262" y="740"/>
      <point x="262" y="698"/>
      <point x="262" y="665" type="curve"/>
      <point x="305" y="665"/>
      <point x="262" y="665"/>
    </contour>
    <contour>
      <point x="62" y="98" type="curve"/>
      <point x="119" y="71"/>
      <point x="189" y="47"/>
      <point x="269" y="47" type="curve"/>
      <point x="405" y="47"/>
      <point x="517" y="91"/>
      <point x="517" y="202" type="curve"/>
      <point x="517" y="307"/>
      <point x="410" y="345"/>
      <point x="298" y="391" type="curve"/>
      <point x="205" y="429"/>
      <point x="126" y="457"/>
      <point x="126" y="539" type="curve"/>
      <point x="126" y="614"/>
      <point x="196" y="649"/>
      <point x="288" y="649" type="curve"/>
      <point x="361" y="649"/>
      <point x="411" y="633"/>
      <point x="473" y="602" type="curve"/>
      <point x="495" y="632"/>
      <point x="473" y="602"/>
      <point x="495" y="632" type="curve"/>
      <point x="426" y="666"/>
      <point x="370" y="684"/>
      <point x="290" y="684" type="curve"/>
      <point x="172" y="684"/>
      <point x="83" y="638"/>
      <point x="83" y="539" type="curve"/>
      <point x="83" y="439"/>
      <point x="168" y="402"/>
      <point x="273" y="359" type="curve"/>
      <point x="373" y="320"/>
      <point x="474" y="288"/>
      <point x="474" y="200" type="curve"/>
      <point x="474" y="115"/>
      <point x="384" y="82"/>
      <point x="273" y="82" type="curve"/>
      <point x="200" y="82"/>
      <point x="138" y="106"/>
      <point x="85" y="129" type="curve"/>
      <point x="62" y="98"/>
      <point x="85" y="129"/>
    </contour>
  </outline>
</glyph>
<glyph name="percent" format="1">
  <advance width="1087"/>
  <unicode hex="0025"/>
  <outline>
    <contour>
      <point x="358" y="-84" type="line"/>
      <point x="803" y="749" type="line"/>
      <point x="759" y="749" type="line"/>
      <point x="315" y="-84" type="line"/>
    </contour>
    <contour>
      <point x="81" y="544" type="curve"/>
      <point x="81" y="648"/>
      <point x="126" y="720"/>
      <point x="224" y="720" type="curve"/>
      <point x="322" y="721"/>
      <point x="367" y="648"/>
      <point x="367" y="545" type="curve"/>
      <point x="367" y="442"/>
      <point x="325" y="367"/>
      <point x="227" y="367" type="curve"/>
      <point x="127" y="367"/>
      <point x="81" y="440"/>
      <point x="81" y="544" type="curve"/>
      <point x="66" y="544"/>
      <point x="57" y="544"/>
      <point x="42" y="544" type="curve"/>
      <point x="42" y="419"/>
      <point x="104" y="334"/>
      <point x="225" y="334" type="curve"/>
      <point x="347" y="334"/>
      <point x="409" y="420"/>
      <point x="409" y="547" type="curve"/>
      <point x="409" y="671"/>
      <point x="347" y="754"/>
      <point x="226" y="754" type="curve"/>
      <point x="104" y="754"/>
      <point x="42" y="670"/>
      <point x="42" y="544" type="curve"/>
      <point x="57" y="544"/>
      <point x="66" y="544"/>
    </contour>
    <contour>
      <point x="718" y="120" type="curve"/>
      <point x="718" y="223"/>
      <point x="763" y="296"/>
      <point x="861" y="296" type="curve"/>
      <point x="959" y="297"/>
      <point x="1004" y="224"/>
      <point x="1004" y="121" type="curve"/>
      <point x="1004" y="18"/>
      <point x="961" y="-57"/>
      <point x="864" y="-57" type="curve"/>
      <point x="764" y="-57"/>
      <point x="718" y="16"/>
      <point x="718" y="120" type="curve"/>
      <point x="703" y="120"/>
      <point x="693" y="120"/>
      <point x="678" y="120" type="curve"/>
      <point x="678" y="-5"/>
      <point x="740" y="-90"/>
      <point x="862" y="-90" type="curve"/>
      <point x="983" y="-90"/>
      <point x="1045" y="-4"/>
      <point x="1045" y="123" type="curve"/>
      <point x="1045" y="247"/>
      <point x="983" y="330"/>
      <point x="863" y="330" type="curve"/>
      <point x="741" y="330"/>
      <point x="678" y="246"/>
      <point x="678" y="120" type="curve"/>
      <point x="693" y="120"/>
      <point x="703" y="120"/>
    </contour>
  </outline>
</glyph>
<glyph name="ampersand" format="1">
  <advance width="695"/>
  <unicode hex="0026"/>
  <outline>
    <contour>
      <point x="671" y="17" type="line"/>
      <point x="555" y="128"/>
      <point x="442" y="240"/>
      <point x="325" y="353" type="curve"/>
      <point x="258" y="423"/>
      <point x="177" y="474"/>
      <point x="177" y="573" type="curve"/>
      <point x="177" y="643"/>
      <point x="221" y="691"/>
      <point x="290" y="691" type="curve"/>
      <point x="365" y="691"/>
      <point x="416" y="648"/>
      <point x="416" y="575" type="curve"/>
      <point x="416" y="479"/>
      <point x="340" y="439"/>
      <point x="254" y="393" type="curve"/>
      <point x="154" y="337"/>
      <point x="63" y="292"/>
      <point x="63" y="181" type="curve"/>
      <point x="63" y="60"/>
      <point x="157" y="-5"/>
      <point x="284" y="-5" type="curve"/>
      <point x="474" y="-5"/>
      <point x="575" y="130"/>
      <point x="637" y="317" type="curve"/>
      <point x="601" y="326"/>
      <point x="637" y="317"/>
      <point x="601" y="326" type="curve"/>
      <point x="543" y="156"/>
      <point x="453" y="30"/>
      <point x="286" y="30" type="curve"/>
      <point x="183" y="30"/>
      <point x="106" y="82"/>
      <point x="106" y="181" type="curve"/>
      <point x="106" y="279"/>
      <point x="186" y="315"/>
      <point x="273" y="364" type="curve"/>
      <point x="371" y="419"/>
      <point x="458" y="465"/>
      <point x="459" y="575" type="curve"/>
      <point x="459" y="671"/>
      <point x="390" y="727"/>
      <point x="292" y="727" type="curve"/>
      <point x="197" y="727"/>
      <point x="135" y="667"/>
      <point x="135" y="573" type="curve"/>
      <point x="135" y="465"/>
      <point x="220" y="407"/>
      <point x="295" y="332" type="curve"/>
      <point x="409" y="221"/>
      <point x="531" y="102"/>
      <point x="645" y="-8" type="curve"/>
    </contour>
  </outline>
</glyph>
<glyph name="quotesingle" format="1">
  <advance width="227"/>
  <unicode hex="0027"/>
  <outline>
    <contour>
      <point x="134" y="602" type="line"/>
      <point x="138" y="796" type="line"/>
      <point x="89" y="796" type="line"/>
      <point x="93" y="602" type="line"/>
    </contour>
  </outline>
</glyph>
<glyph name="parenleft" format="1">
  <advance width="357"/>
  <unicode hex="0028"/>
  <outline>
    <contour>
      <point x="344" y="-231" type="curve"/>
      <point x="175" y="-68"/>
      <point x="100" y="90"/>
      <point x="100" y="326" type="curve"/>
      <point x="100" y="562"/>
      <point x="176" y="718"/>
      <point x="342" y="885" type="curve"/>
      <point x="316" y="907"/>
      <point x="342" y="885"/>
      <point x="316" y="907" type="curve"/>
      <point x="140" y="737"/>
      <point x="57" y="574"/>
      <point x="57" y="326" type="curve"/>
      <point x="57" y="78"/>
      <point x="141" y="-84"/>
      <point x="317" y="-256" type="curve"/>
      <point x="344" y="-231"/>
      <point x="317" y="-256"/>
    </contour>
  </outline>
</glyph>
<glyph name="parenright" format="1">
  <advance width="368"/>
  <unicode hex="0029"/>
  <outline>
    <contour>
      <point x="38" y="-271" type="curve"/>
      <point x="217" y="-92"/>
      <point x="312" y="71"/>
      <point x="312" y="327" type="curve"/>
      <point x="312" y="577"/>
      <point x="224" y="739"/>
      <point x="42" y="908" type="curve"/>
      <point x="16" y="884"/>
      <point x="42" y="908"/>
      <point x="16" y="884" type="curve"/>
      <point x="187" y="719"/>
      <point x="268" y="564"/>
      <point x="268" y="326" type="curve"/>
      <point x="268" y="82"/>
      <point x="178" y="-73"/>
      <point x="11" y="-248" type="curve"/>
      <point x="38" y="-271"/>
      <point x="11" y="-248"/>
    </contour>
  </outline>
</glyph>
<glyph name="asterisk" format="1">
  <advance width="653"/>
  <unicode hex="002A"/>
  <outline>
    <contour>
      <point x="341" y="591" type="line"/>
      <point x="345" y="785" type="line"/>
      <point x="303" y="785" type="line"/>
      <point x="306" y="591" type="line"/>
    </contour>
    <contour>
      <point x="386" y="540" type="line"/>
      <point x="571" y="598" type="line"/>
      <point x="557" y="637" type="line"/>
      <point x="375" y="573" type="line"/>
    </contour>
    <contour>
      <point x="351" y="482" type="line"/>
      <point x="464" y="324" type="line"/>
      <point x="497" y="350" type="line"/>
      <point x="378" y="503" type="line"/>
    </contour>
    <contour>
      <point x="284" y="498" type="line"/>
      <point x="165" y="345" type="line"/>
      <point x="199" y="319" type="line"/>
      <point x="311" y="477" type="line"/>
    </contour>
    <contour>
      <point x="278" y="565" type="line"/>
      <point x="96" y="629" type="line"/>
      <point x="82" y="590" type="line"/>
      <point x="267" y="532" type="line"/>
    </contour>
  </outline>
</glyph>
<glyph name="plus" format="1">
  <advance width="673"/>
  <unicode hex="002B"/>
  <outline>
    <contour>
      <point x="55" y="290" type="curve"/>
      <point x="617" y="290" type="line"/>
      <point x="617" y="329"/>
      <point x="617" y="290"/>
      <point x="617" y="329" type="curve"/>
      <point x="55" y="329" type="line"/>
      <point x="55" y="290"/>
      <point x="55" y="329"/>
    </contour>
    <contour>
      <point x="355" y="21" type="curve"/>
      <point x="355" y="587" type="line"/>
      <point x="312" y="587"/>
      <point x="356" y="587"/>
      <point x="314" y="587" type="curve"/>
      <point x="314" y="21" type="line"/>
      <point x="356" y="21"/>
      <point x="312" y="21"/>
    </contour>
  </outline>
</glyph>
<glyph name="comma" format="1">
  <advance width="211"/>
  <unicode hex="002C"/>
  <outline>
    <contour>
      <point x="50" y="-114" type="line"/>
      <point x="91" y="-92"/>
      <point x="122" y="-55"/>
      <point x="122" y="4" type="curve"/>
      <point x="122" y="34"/>
      <point x="114" y="58"/>
      <point x="89" y="58" type="curve"/>
      <point x="71" y="58"/>
      <point x="60" y="49"/>
      <point x="60" y="31" type="curve"/>
      <point x="60" y="16"/>
      <point x="68" y="7"/>
      <point x="85" y="3" type="curve"/>
      <point x="84" y="-23"/>
      <point x="73" y="-63"/>
      <point x="37" y="-87" type="curve"/>
    </contour>
  </outline>
</glyph>
<glyph name="hyphen" format="1">
  <advance width="476"/>
  <unicode hex="002D"/>
  <outline>
    <contour>
      <point x="86" y="254" type="curve"/>
      <point x="188" y="254"/>
      <point x="289" y="254"/>
      <point x="390" y="254" type="curve"/>
      <point x="390" y="293"/>
      <point x="390" y="254"/>
      <point x="390" y="293" type="curve"/>
      <point x="289" y="293"/>
      <point x="188" y="293"/>
      <point x="86" y="293" type="curve"/>
      <point x="86" y="254"/>
      <point x="86" y="293"/>
    </contour>
  </outline>
</glyph>
<glyph name="period" format="1">
  <advance width="222"/>
  <unicode hex="002E"/>
  <outline>
    <contour>
      <point x="139" y="20" type="curve"/>
      <point x="139" y="36"/>
      <point x="127" y="45"/>
      <point x="110" y="45" type="curve"/>
      <point x="93" y="45"/>
      <point x="83" y="35"/>
      <point x="83" y="20" type="curve"/>
      <point x="128" y="20"/>
      <point x="94" y="20"/>
      <point x="139" y="20" type="curve"/>
      <point x="139" y="3"/>
      <point x="127" y="-6"/>
      <point x="110" y="-6" type="curve"/>
      <point x="93" y="-6"/>
      <point x="83" y="3"/>
      <point x="83" y="20" type="curve"/>
      <point x="128" y="20"/>
      <point x="94" y="20"/>
    </contour>
  </outline>
</glyph>
<glyph name="slash" format="1">
  <advance width="563"/>
  <unicode hex="002F"/>
  <outline>
    <contour>
      <point x="81" y="-59" type="curve"/>
      <point x="229" y="238"/>
      <point x="377" y="536"/>
      <point x="525" y="834" type="curve"/>
      <point x="483" y="834"/>
      <point x="525" y="834"/>
      <point x="483" y="834" type="curve"/>
      <point x="334" y="536"/>
      <point x="186" y="238"/>
      <point x="37" y="-59" type="curve"/>
      <point x="81" y="-59"/>
      <point x="37" y="-59"/>
    </contour>
  </outline>
</glyph>
<glyph name="zero" format="1">
  <advance width="738"/>
  <unicode hex="0030"/>
  <outline>
    <contour>
      <point x="111" y="360" type="curve"/>
      <point x="111" y="554"/>
      <point x="188" y="689"/>
      <point x="369" y="689" type="curve"/>
      <point x="549" y="689"/>
      <point x="626" y="554"/>
      <point x="626" y="363" type="curve"/>
      <point x="626" y="170"/>
      <point x="550" y="33"/>
      <point x="373" y="33" type="curve"/>
      <point x="194" y="33"/>
      <point x="111" y="167"/>
      <point x="111" y="360" type="curve"/>
      <point x="70" y="360"/>
      <point x="110" y="360"/>
      <point x="68" y="360" type="curve"/>
      <point x="68" y="143"/>
      <point x="163" y="-5"/>
      <point x="371" y="-5" type="curve"/>
      <point x="578" y="-5"/>
      <point x="669" y="145"/>
      <point x="669" y="363" type="curve"/>
      <point x="669" y="579"/>
      <point x="577" y="727"/>
      <point x="372" y="727" type="curve"/>
      <point x="164" y="727"/>
      <point x="68" y="579"/>
      <point x="68" y="360" type="curve"/>
      <point x="110" y="360"/>
      <point x="70" y="360"/>
    </contour>
  </outline>
</glyph>
<glyph name="one" format="1">
  <advance width="451"/>
  <unicode hex="0031"/>
  <outline>
    <contour>
      <point x="275" y="0" type="curve"/>
      <point x="323" y="0"/>
      <point x="372" y="0"/>
      <point x="421" y="0" type="curve"/>
      <point x="421" y="35"/>
      <point x="421" y="0"/>
      <point x="421" y="35" type="curve"/>
      <point x="275" y="35"/>
      <point x="421" y="35"/>
      <point x="275" y="35" type="curve"/>
      <point x="275" y="0"/>
      <point x="275" y="35"/>
    </contour>
    <contour>
      <point x="275" y="35" type="curve"/>
      <point x="125" y="35"/>
      <point x="275" y="35"/>
      <point x="125" y="35" type="curve"/>
      <point x="125" y="0"/>
      <point x="125" y="35"/>
      <point x="125" y="0" type="curve"/>
      <point x="175" y="0"/>
      <point x="224" y="0"/>
      <point x="275" y="0" type="curve"/>
      <point x="275" y="35"/>
      <point x="275" y="0"/>
    </contour>
    <contour>
      <point x="67" y="526" type="curve"/>
      <point x="286" y="700"/>
      <point x="67" y="526"/>
      <point x="286" y="700" type="curve"/>
      <point x="251" y="722"/>
      <point x="286" y="700"/>
      <point x="251" y="722" type="curve"/>
      <point x="43" y="555"/>
      <point x="251" y="722"/>
      <point x="43" y="555" type="curve"/>
      <point x="67" y="526"/>
      <point x="43" y="555"/>
    </contour>
    <contour>
      <point x="294" y="0" type="curve"/>
      <point x="294" y="241"/>
      <point x="294" y="481"/>
      <point x="294" y="722" type="curve"/>
      <point x="251" y="722"/>
      <point x="294" y="722"/>
      <point x="251" y="722" type="curve"/>
      <point x="251" y="481"/>
      <point x="251" y="241"/>
      <point x="251" y="0" type="curve"/>
      <point x="294" y="0"/>
      <point x="251" y="0"/>
    </contour>
  </outline>
</glyph>
<glyph name="two" format="1">
  <advance width="600"/>
  <unicode hex="0032"/>
  <outline>
    <contour>
      <point x="528" y="35" type="curve"/>
      <point x="528" y="154"/>
      <point x="528" y="34"/>
      <point x="528" y="153" type="curve"/>
      <point x="492" y="153"/>
      <point x="528" y="153"/>
      <point x="492" y="153" type="curve"/>
      <point x="492" y="34"/>
      <point x="492" y="154"/>
      <point x="492" y="35" type="curve"/>
      <point x="528" y="35"/>
      <point x="492" y="35"/>
    </contour>
    <contour>
      <point x="51" y="0" type="curve"/>
      <point x="224" y="0"/>
      <point x="370" y="0"/>
      <point x="528" y="0" type="curve"/>
      <point x="528" y="35"/>
      <point x="528" y="0"/>
      <point x="528" y="35" type="curve"/>
      <point x="363" y="35"/>
      <point x="216" y="35"/>
      <point x="51" y="35" type="curve"/>
      <point x="51" y="0"/>
      <point x="51" y="35"/>
    </contour>
    <contour>
      <point x="102" y="555" type="curve"/>
      <point x="151" y="636"/>
      <point x="202" y="689"/>
      <point x="294" y="689" type="curve"/>
      <point x="398" y="689"/>
      <point x="460" y="630"/>
      <point x="460" y="522" type="curve"/>
      <point x="460" y="399"/>
      <point x="372" y="312"/>
      <point x="288" y="244" type="curve"/>
      <point x="209" y="174"/>
      <point x="130" y="105"/>
      <point x="51" y="35" type="curve"/>
      <point x="61" y="0"/>
      <point x="51" y="35"/>
      <point x="61" y="0" type="curve"/>
      <point x="153" y="71"/>
      <point x="233" y="145"/>
      <point x="315" y="217" type="curve"/>
      <point x="408" y="292"/>
      <point x="501" y="382"/>
      <point x="501" y="524" type="curve"/>
      <point x="501" y="654"/>
      <point x="425" y="727"/>
      <point x="296" y="727" type="curve"/>
      <point x="189" y="727"/>
      <point x="119" y="668"/>
      <point x="70" y="575" type="curve"/>
      <point x="102" y="555"/>
      <point x="70" y="575"/>
    </contour>
  </outline>
</glyph>
<glyph name="three" format="1">
  <advance width="561"/>
  <unicode hex="0033"/>
  <outline>
    <contour>
      <point x="59" y="56" type="curve"/>
      <point x="121" y="18"/>
      <point x="176" y="-5"/>
      <point x="254" y="-5" type="curve"/>
      <point x="400" y="-5"/>
      <point x="496" y="55"/>
      <point x="496" y="198" type="curve"/>
      <point x="496" y="334"/>
      <point x="355" y="394"/>
      <point x="162" y="394" type="curve"/>
      <point x="162" y="368"/>
      <point x="162" y="389"/>
      <point x="162" y="363" type="curve"/>
      <point x="314" y="363"/>
      <point x="455" y="314"/>
      <point x="455" y="197" type="curve"/>
      <point x="455" y="78"/>
      <point x="362" y="34"/>
      <point x="255" y="34" type="curve"/>
      <point x="189" y="34"/>
      <point x="143" y="52"/>
      <point x="80" y="86" type="curve"/>
      <point x="59" y="56"/>
      <point x="80" y="86"/>
    </contour>
    <contour>
      <point x="91" y="616" type="curve"/>
      <point x="127" y="654"/>
      <point x="184" y="688"/>
      <point x="251" y="688" type="curve"/>
      <point x="353" y="688"/>
      <point x="420" y="646"/>
      <point x="420" y="549" type="curve"/>
      <point x="420" y="447"/>
      <point x="299" y="399"/>
      <point x="162" y="399" type="curve"/>
      <point x="162" y="374"/>
      <point x="162" y="394"/>
      <point x="162" y="369" type="curve"/>
      <point x="329" y="369"/>
      <point x="462" y="423"/>
      <point x="462" y="551" type="curve"/>
      <point x="462" y="670"/>
      <point x="379" y="727"/>
      <point x="254" y="727" type="curve"/>
      <point x="173" y="727"/>
      <point x="104" y="685"/>
      <point x="65" y="640" type="curve"/>
      <point x="91" y="616"/>
      <point x="65" y="640"/>
    </contour>
  </outline>
</glyph>
<glyph name="four" format="1">
  <advance width="648"/>
  <unicode hex="0034"/>
  <outline>
    <contour>
      <point x="391" y="35" type="line"/>
      <point x="249" y="35" type="line"/>
      <point x="249" y="0" type="line"/>
      <point x="391" y="0" type="line"/>
    </contour>
    <contour>
      <point x="391" y="0" type="line"/>
      <point x="530" y="0" type="line"/>
      <point x="530" y="35" type="line"/>
      <point x="391" y="35" type="line"/>
    </contour>
    <contour>
      <point x="56" y="267" type="line"/>
      <point x="406" y="706" type="line"/>
      <point x="371" y="718" type="line"/>
      <point x="33" y="297" type="line"/>
    </contour>
    <contour>
      <point x="597" y="297" type="line"/>
      <point x="33" y="297" type="line"/>
      <point x="33" y="259" type="line"/>
      <point x="597" y="259" type="line"/>
    </contour>
    <contour>
      <point x="414" y="8" type="line"/>
      <point x="414" y="718" type="line"/>
      <point x="371" y="718" type="line"/>
      <point x="371" y="8" type="line"/>
    </contour>
  </outline>
</glyph>
<glyph name="six" format="1">
  <advance width="602"/>
  <unicode hex="0036"/>
  <outline>
    <contour>
      <point x="97" y="228" type="curve"/>
      <point x="136" y="319"/>
      <point x="208" y="378"/>
      <point x="309" y="378" type="curve"/>
      <point x="421" y="378"/>
      <point x="489" y="317"/>
      <point x="489" y="206" type="curve"/>
      <point x="489" y="102"/>
      <point x="421" y="35"/>
      <point x="313" y="35" type="curve"/>
      <point x="181" y="35"/>
      <point x="104" y="113"/>
      <point x="104" y="245" type="curve"/>
      <point x="104" y="501"/>
      <point x="285" y="628"/>
      <point x="537" y="701" type="curve"/>
      <point x="526" y="734"/>
      <point x="537" y="701"/>
      <point x="526" y="734" type="curve"/>
      <point x="256" y="660"/>
      <point x="61" y="522"/>
      <point x="61" y="243" type="curve"/>
      <point x="61" y="87"/>
      <point x="155" y="-6"/>
      <point x="311" y="-6" type="curve"/>
      <point x="448" y="-6"/>
      <point x="533" y="72"/>
      <point x="533" y="206" type="curve"/>
      <point x="533" y="341"/>
      <point x="448" y="415"/>
      <point x="313" y="415" type="curve"/>
      <point x="191" y="415"/>
      <point x="109" y="346"/>
      <point x="69" y="244" type="curve"/>
      <point x="96" y="228"/>
      <point x="70" y="244"/>
    </contour>
  </outline>
</glyph>
<glyph name="seven" format="1">
  <advance width="573"/>
  <unicode hex="0037"/>
  <outline>
    <contour>
      <point x="89" y="578" type="curve"/>
      <point x="89" y="695" type="curve"/>
      <point x="53" y="695" type="curve"/>
      <point x="53" y="578" type="curve"/>
    </contour>
    <contour>
      <point x="53" y="687" type="curve"/>
      <point x="553" y="687" type="curve"/>
      <point x="553" y="722" type="curve"/>
      <point x="53" y="722" type="curve"/>
    </contour>
    <contour>
      <point x="527" y="722" type="curve"/>
      <point x="93" y="0" type="curve"/>
      <point x="142" y="0" type="curve"/>
      <point x="553" y="687" type="curve"/>
    </contour>
  </outline>
</glyph>
<glyph name="eight" format="1">
  <advance width="577"/>
  <unicode hex="0038"/>
  <outline>
    <contour>
      <point x="87" y="559" type="curve"/>
      <point x="87" y="446"/>
      <point x="172" y="414"/>
      <point x="277" y="364" type="curve"/>
      <point x="381" y="314"/>
      <point x="468" y="280"/>
      <point x="468" y="173" type="curve"/>
      <point x="468" y="73"/>
      <point x="395" y="32"/>
      <point x="287" y="32" type="curve"/>
      <point x="180" y="32"/>
      <point x="110" y="74"/>
      <point x="110" y="173" type="curve"/>
      <point x="110" y="283"/>
      <point x="198" y="313"/>
      <point x="304" y="365" type="curve"/>
      <point x="405" y="416"/>
      <point x="491" y="446"/>
      <point x="491" y="557" type="curve"/>
      <point x="491" y="675"/>
      <point x="413" y="727"/>
      <point x="287" y="727" type="curve"/>
      <point x="166" y="727"/>
      <point x="87" y="673"/>
      <point x="87" y="559" type="curve"/>
      <point x="130" y="559"/>
      <point x="87" y="559"/>
      <point x="130" y="559" type="curve"/>
      <point x="130" y="647"/>
      <point x="191" y="690"/>
      <point x="286" y="690" type="curve"/>
      <point x="386" y="690"/>
      <point x="448" y="650"/>
      <point x="448" y="557" type="curve"/>
      <point x="448" y="462"/>
      <point x="369" y="435"/>
      <point x="276" y="391" type="curve"/>
      <point x="160" y="335"/>
      <point x="66" y="299"/>
      <point x="66" y="173" type="curve"/>
      <point x="66" y="50"/>
      <point x="153" y="-5"/>
      <point x="285" y="-5" type="curve"/>
      <point x="420" y="-5"/>
      <point x="511" y="47"/>
      <point x="511" y="173" type="curve"/>
      <point x="511" y="297"/>
      <point x="418" y="336"/>
      <point x="304" y="391" type="curve"/>
      <point x="210" y="437"/>
      <point x="130" y="462"/>
      <point x="130" y="559" type="curve"/>
      <point x="87" y="559"/>
      <point x="130" y="559"/>
    </contour>
  </outline>
</glyph>
<glyph name="nine" format="1">
  <advance width="602"/>
  <unicode hex="0039"/>
  <outline>
    <contour>
      <point x="506" y="490" type="curve"/>
      <point x="463" y="400"/>
      <point x="401" y="344"/>
      <point x="295" y="344" type="curve"/>
      <point x="182" y="344"/>
      <point x="112" y="406"/>
      <point x="112" y="517" type="curve"/>
      <point x="112" y="625"/>
      <point x="180" y="688"/>
      <point x="288" y="688" type="curve"/>
      <point x="420" y="688"/>
      <point x="498" y="608"/>
      <point x="498" y="477" type="curve"/>
      <point x="498" y="221"/>
      <point x="326" y="86"/>
      <point x="68" y="22" type="curve"/>
      <point x="80" y="-14"/>
      <point x="68" y="22"/>
      <point x="80" y="-14" type="curve"/>
      <point x="355" y="50"/>
      <point x="540" y="200"/>
      <point x="540" y="479" type="curve"/>
      <point x="540" y="635"/>
      <point x="447" y="728"/>
      <point x="290" y="728" type="curve"/>
      <point x="153" y="728"/>
      <point x="70" y="650"/>
      <point x="70" y="516" type="curve"/>
      <point x="70" y="381"/>
      <point x="154" y="307"/>
      <point x="291" y="307" type="curve"/>
      <point x="412" y="307"/>
      <point x="487" y="370"/>
      <point x="529" y="479" type="curve"/>
      <point x="506" y="490"/>
      <point x="529" y="479"/>
    </contour>
  </outline>
</glyph>
<glyph name="colon" format="1">
  <advance width="229"/>
  <unicode hex="003A"/>
  <outline>
    <contour>
      <point x="143" y="224" type="curve"/>
      <point x="143" y="240"/>
      <point x="131" y="249"/>
      <point x="114" y="249" type="curve"/>
      <point x="97" y="249"/>
      <point x="87" y="239"/>
      <point x="87" y="224" type="curve"/>
      <point x="132" y="224"/>
      <point x="98" y="224"/>
      <point x="143" y="224" type="curve"/>
      <point x="143" y="207"/>
      <point x="131" y="198"/>
      <point x="114" y="198" type="curve"/>
      <point x="97" y="198"/>
      <point x="87" y="207"/>
      <point x="87" y="224" type="curve"/>
      <point x="132" y="224"/>
      <point x="98" y="224"/>
    </contour>
    <contour>
      <point x="143" y="209" type="curve"/>
      <point x="143" y="226"/>
      <point x="131" y="235"/>
      <point x="114" y="235" type="curve"/>
      <point x="97" y="235"/>
      <point x="87" y="225"/>
      <point x="87" y="209" type="curve"/>
      <point x="132" y="209"/>
      <point x="97" y="209"/>
      <point x="143" y="209" type="curve"/>
      <point x="143" y="192"/>
      <point x="131" y="183"/>
      <point x="114" y="183" type="curve"/>
      <point x="97" y="183"/>
      <point x="87" y="192"/>
      <point x="87" y="209" type="curve"/>
      <point x="132" y="209"/>
      <point x="97" y="209"/>
    </contour>
  </outline>
</glyph>
<glyph name="semicolon" format="1">
  <advance width="268"/>
  <unicode hex="003B"/>
  <outline>
    <contour>
      <point x="79" y="-105" type="line"/>
      <point x="141" y="-105"/>
      <point x="166" y="-52"/>
      <point x="166" y="2" type="curve"/>
      <point x="166" y="40"/>
      <point x="157" y="70"/>
      <point x="131" y="70" type="curve"/>
      <point x="113" y="70"/>
      <point x="102" y="61"/>
      <point x="102" y="44" type="curve"/>
      <point x="102" y="29"/>
      <point x="110" y="20"/>
      <point x="127" y="15" type="curve"/>
      <point x="127" y="-10"/>
      <point x="127" y="-73"/>
      <point x="79" y="-74" type="curve"/>
    </contour>
    <contour>
      <point x="162" y="420" type="curve"/>
      <point x="162" y="437"/>
      <point x="150" y="446"/>
      <point x="133" y="446" type="curve"/>
      <point x="116" y="446"/>
      <point x="106" y="436"/>
      <point x="106" y="420" type="curve"/>
      <point x="151" y="420"/>
      <point x="116" y="420"/>
      <point x="162" y="420" type="curve"/>
      <point x="162" y="403"/>
      <point x="150" y="395"/>
      <point x="133" y="395" type="curve"/>
      <point x="116" y="395"/>
      <point x="106" y="404"/>
      <point x="106" y="420" type="curve"/>
      <point x="151" y="420"/>
      <point x="116" y="420"/>
    </contour>
  </outline>
</glyph>
<glyph name="greater" format="1">
  <advance width="748"/>
  <unicode hex="003E"/>
  <outline>
    <contour>
      <point x="70" y="17" type="curve"/>
      <point x="282" y="107"/>
      <point x="494" y="197"/>
      <point x="706" y="287" type="curve"/>
      <point x="706" y="325"/>
      <point x="706" y="287"/>
      <point x="706" y="325" type="curve"/>
      <point x="494" y="235"/>
      <point x="282" y="145"/>
      <point x="70" y="55" type="curve"/>
      <point x="70" y="17"/>
      <point x="70" y="55"/>
    </contour>
    <contour>
      <point x="60" y="551" type="curve"/>
      <point x="275" y="463"/>
      <point x="491" y="375"/>
      <point x="706" y="287" type="curve"/>
      <point x="706" y="325"/>
      <point x="706" y="287"/>
      <point x="706" y="325" type="curve"/>
      <point x="491" y="413"/>
      <point x="275" y="501"/>
      <point x="60" y="589" type="curve"/>
      <point x="60" y="551"/>
      <point x="60" y="589"/>
    </contour>
  </outline>
</glyph>
<glyph name="question" format="1">
  <advance width="509"/>
  <unicode hex="003F"/>
  <outline>
    <contour>
      <point x="201" y="341" type="curve"/>
      <point x="201" y="304"/>
      <point x="201" y="258"/>
      <point x="201" y="221" type="curve"/>
      <point x="243" y="221"/>
      <point x="201" y="221"/>
      <point x="243" y="221" type="curve"/>
      <point x="243" y="258"/>
      <point x="243" y="304"/>
      <point x="243" y="341" type="curve"/>
      <point x="201" y="341"/>
      <point x="243" y="341"/>
    </contour>
    <contour>
      <point x="86" y="618" type="line"/>
      <point x="119" y="652"/>
      <point x="168" y="680"/>
      <point x="230" y="680" type="curve"/>
      <point x="334" y="680"/>
      <point x="403" y="621"/>
      <point x="403" y="519" type="curve"/>
      <point x="403" y="406"/>
      <point x="324" y="341"/>
      <point x="205" y="341" type="curve"/>
      <point x="205" y="322"/>
      <point x="205" y="324"/>
      <point x="205" y="305" type="curve"/>
      <point x="347" y="305"/>
      <point x="445" y="384"/>
      <point x="445" y="519" type="curve"/>
      <point x="445" y="643"/>
      <point x="358" y="717"/>
      <point x="232" y="717" type="curve"/>
      <point x="157" y="717"/>
      <point x="102" y="686"/>
      <point x="61" y="644" type="curve"/>
    </contour>
    <contour>
      <point x="248" y="15" type="curve"/>
      <point x="248" y="31"/>
      <point x="237" y="39"/>
      <point x="222" y="39" type="curve"/>
      <point x="206" y="39"/>
      <point x="196" y="30"/>
      <point x="196" y="15" type="curve"/>
      <point x="248" y="15"/>
      <point x="196" y="15"/>
      <point x="248" y="15" type="curve"/>
      <point x="248" y="-1"/>
      <point x="237" y="-8"/>
      <point x="222" y="-8" type="curve"/>
      <point x="206" y="-8"/>
      <point x="196" y="0"/>
      <point x="196" y="15" type="curve"/>
      <point x="248" y="15"/>
      <point x="196" y="15"/>
    </contour>
  </outline>
</glyph>
<glyph name="B" format="1">
  <advance width="688"/>
  <unicode hex="0042"/>
  <outline>
    <contour>
      <point x="189" y="722" type="curve"/>
      <point x="138" y="722"/>
      <point x="96" y="722"/>
      <point x="46" y="722" type="curve"/>
      <point x="46" y="687"/>
      <point x="46" y="722"/>
      <point x="46" y="687" type="curve"/>
      <point x="197" y="687"/>
      <point x="37" y="687"/>
      <point x="189" y="687" type="curve"/>
      <point x="189" y="722"/>
      <point x="189" y="687"/>
    </contour>
    <contour>
      <point x="188" y="35" type="curve"/>
      <point x="36" y="35"/>
      <point x="196" y="35"/>
      <point x="45" y="35" type="curve"/>
      <point x="45" y="0"/>
      <point x="45" y="35"/>
      <point x="45" y="0" type="curve"/>
      <point x="95" y="0"/>
      <point x="137" y="0"/>
      <point x="188" y="0" type="curve"/>
      <point x="188" y="35"/>
      <point x="188" y="0"/>
    </contour>
    <contour>
      <point x="178" y="687" type="curve"/>
      <point x="250" y="687"/>
      <point x="315" y="687"/>
      <point x="387" y="687" type="curve"/>
      <point x="476" y="687"/>
      <point x="535" y="640"/>
      <point x="535" y="552" type="curve"/>
      <point x="535" y="463"/>
      <point x="456" y="427"/>
      <point x="362" y="427" type="curve"/>
      <point x="298" y="427"/>
      <point x="241" y="427"/>
      <point x="178" y="427" type="curve"/>
      <point x="178" y="402"/>
      <point x="178" y="416"/>
      <point x="178" y="391" type="curve"/>
      <point x="234" y="391"/>
      <point x="286" y="391"/>
      <point x="344" y="391" type="curve"/>
      <point x="465" y="391"/>
      <point x="578" y="434"/>
      <point x="578" y="551" type="curve"/>
      <point x="578" y="663"/>
      <point x="503" y="722"/>
      <point x="388" y="722" type="curve"/>
      <point x="315" y="722"/>
      <point x="250" y="722"/>
      <point x="178" y="722" type="curve"/>
      <point x="178" y="697"/>
      <point x="178" y="712"/>
    </contour>
    <contour>
      <point x="209" y="0" type="curve"/>
      <point x="209" y="241"/>
      <point x="209" y="481"/>
      <point x="209" y="722" type="curve"/>
      <point x="164" y="722"/>
      <point x="209" y="722"/>
      <point x="164" y="722" type="curve"/>
      <point x="164" y="481"/>
      <point x="165" y="241"/>
      <point x="164" y="0" type="curve"/>
      <point x="209" y="0"/>
      <point x="164" y="0"/>
    </contour>
    <contour>
      <point x="178" y="391" type="curve"/>
      <point x="241" y="391"/>
      <point x="298" y="391"/>
      <point x="362" y="391" type="curve"/>
      <point x="492" y="391"/>
      <point x="584" y="333"/>
      <point x="584" y="207" type="curve"/>
      <point x="584" y="93"/>
      <point x="507" y="35"/>
      <point x="387" y="35" type="curve"/>
      <point x="314" y="35"/>
      <point x="250" y="35"/>
      <point x="178" y="35" type="curve"/>
      <point x="178" y="10"/>
      <point x="178" y="25"/>
      <point x="178" y="0" type="curve"/>
      <point x="250" y="0"/>
      <point x="314" y="0"/>
      <point x="387" y="0" type="curve"/>
      <point x="532" y="0"/>
      <point x="627" y="69"/>
      <point x="627" y="207" type="curve"/>
      <point x="627" y="362"/>
      <point x="502" y="427"/>
      <point x="344" y="427" type="curve"/>
      <point x="287" y="427"/>
      <point x="234" y="427"/>
      <point x="178" y="427" type="curve"/>
      <point x="178" y="402"/>
      <point x="178" y="416"/>
    </contour>
  </outline>
</glyph>
<glyph name="C" format="1">
  <advance width="717"/>
  <unicode hex="0043"/>
  <outline>
    <contour>
      <point x="616" y="655" type="curve"/>
      <point x="616" y="535"/>
      <point x="616" y="651"/>
      <point x="616" y="531" type="curve"/>
      <point x="652" y="531"/>
      <point x="616" y="531"/>
      <point x="652" y="531" type="curve"/>
      <point x="652" y="651"/>
      <point x="652" y="535"/>
      <point x="652" y="655" type="curve"/>
      <point x="616" y="655"/>
      <point x="652" y="655"/>
    </contour>
    <contour>
      <point x="652" y="655" type="curve"/>
      <point x="581" y="696"/>
      <point x="502" y="727"/>
      <point x="412" y="727" type="curve"/>
      <point x="185" y="727"/>
      <point x="67" y="579"/>
      <point x="67" y="344" type="curve"/>
      <point x="67" y="128"/>
      <point x="179" y="-5"/>
      <point x="389" y="-5" type="curve"/>
      <point x="507" y="-5"/>
      <point x="582" y="29"/>
      <point x="670" y="96" type="curve"/>
      <point x="646" y="124"/>
      <point x="669" y="96"/>
      <point x="646" y="124" type="curve"/>
      <point x="565" y="62"/>
      <point x="495" y="34"/>
      <point x="391" y="34" type="curve"/>
      <point x="205" y="34"/>
      <point x="109" y="155"/>
      <point x="109" y="346" type="curve"/>
      <point x="109" y="554"/>
      <point x="211" y="690"/>
      <point x="410" y="690" type="curve"/>
      <point x="492" y="690"/>
      <point x="565" y="665"/>
      <point x="629" y="627" type="curve"/>
      <point x="652" y="655"/>
      <point x="629" y="627"/>
    </contour>
    <contour>
      <point x="407" y="818" type="move" name="top"/>
    </contour>
    <contour>
      <point x="392" y="3" type="move" name="bottom"/>
    </contour>
  </outline>
</glyph>
<glyph name="D" format="1">
  <advance width="799"/>
  <unicode hex="0044"/>
  <outline>
    <contour>
      <point x="190" y="35" type="curve"/>
      <point x="38" y="35"/>
      <point x="198" y="35"/>
      <point x="46" y="35" type="curve"/>
      <point x="46" y="0"/>
      <point x="46" y="35"/>
      <point x="46" y="0" type="curve"/>
      <point x="97" y="0"/>
      <point x="140" y="0"/>
      <point x="190" y="0" type="curve"/>
      <point x="190" y="35"/>
      <point x="190" y="0"/>
    </contour>
    <contour>
      <point x="190" y="722" type="curve"/>
      <point x="140" y="722"/>
      <point x="97" y="722"/>
      <point x="46" y="722" type="curve"/>
      <point x="46" y="687"/>
      <point x="46" y="722"/>
      <point x="46" y="687" type="curve"/>
      <point x="198" y="687"/>
      <point x="38" y="687"/>
      <point x="190" y="687" type="curve"/>
      <point x="190" y="722"/>
      <point x="190" y="687"/>
    </contour>
    <contour>
      <point x="166" y="722" type="curve"/>
      <point x="166" y="481"/>
      <point x="166" y="241"/>
      <point x="166" y="0" type="curve"/>
      <point x="210" y="0"/>
      <point x="166" y="0"/>
      <point x="210" y="0" type="curve"/>
      <point x="210" y="241"/>
      <point x="210" y="481"/>
      <point x="210" y="722" type="curve"/>
      <point x="166" y="722"/>
      <point x="210" y="722"/>
    </contour>
    <contour>
      <point x="190" y="0" type="curve"/>
      <point x="258" y="0"/>
      <point x="320" y="0"/>
      <point x="389" y="0" type="curve"/>
      <point x="616" y="0"/>
      <point x="736" y="126"/>
      <point x="736" y="353" type="curve"/>
      <point x="736" y="590"/>
      <point x="613" y="722"/>
      <point x="377" y="722" type="curve"/>
      <point x="313" y="722"/>
      <point x="254" y="722"/>
      <point x="190" y="722" type="curve"/>
      <point x="190" y="692"/>
      <point x="190" y="716"/>
      <point x="190" y="687" type="curve"/>
      <point x="254" y="687"/>
      <point x="311" y="687"/>
      <point x="375" y="687" type="curve"/>
      <point x="586" y="687"/>
      <point x="694" y="566"/>
      <point x="694" y="352" type="curve"/>
      <point x="694" y="150"/>
      <point x="593" y="35"/>
      <point x="393" y="35" type="curve"/>
      <point x="323" y="35"/>
      <point x="260" y="35"/>
      <point x="190" y="35" type="curve"/>
      <point x="190" y="6"/>
      <point x="190" y="30"/>
    </contour>
    <contour>
      <point x="359" y="818" type="move" name="top"/>
    </contour>
  </outline>
</glyph>
<glyph name="F" format="1">
  <advance width="654"/>
  <unicode hex="0046"/>
  <outline>
    <contour>
      <point x="189" y="0" type="curve"/>
      <point x="239" y="0"/>
      <point x="189" y="0"/>
      <point x="340" y="0" type="curve"/>
      <point x="340" y="35"/>
      <point x="340" y="0"/>
      <point x="340" y="35" type="curve"/>
      <point x="189" y="35"/>
      <point x="340" y="35"/>
      <point x="189" y="35" type="curve"/>
      <point x="189" y="0"/>
      <point x="189" y="35"/>
    </contour>
    <contour>
      <point x="189" y="722" type="curve"/>
      <point x="139" y="722"/>
      <point x="96" y="722"/>
      <point x="45" y="722" type="curve"/>
      <point x="45" y="687"/>
      <point x="45" y="722"/>
      <point x="45" y="687" type="curve"/>
      <point x="197" y="687"/>
      <point x="37" y="687"/>
      <point x="189" y="687" type="curve"/>
      <point x="189" y="722"/>
      <point x="189" y="687"/>
    </contour>
    <contour>
      <point x="189" y="35" type="curve"/>
      <point x="37" y="35"/>
      <point x="197" y="35"/>
      <point x="45" y="35" type="curve"/>
      <point x="45" y="0"/>
      <point x="45" y="35"/>
      <point x="45" y="0" type="curve"/>
      <point x="96" y="0"/>
      <point x="139" y="0"/>
      <point x="189" y="0" type="curve"/>
      <point x="189" y="35"/>
      <point x="189" y="0"/>
    </contour>
    <contour>
      <point x="569" y="704" type="curve"/>
      <point x="569" y="584"/>
      <point x="569" y="708"/>
      <point x="569" y="588" type="curve"/>
      <point x="605" y="588"/>
      <point x="569" y="588"/>
      <point x="605" y="588" type="curve"/>
      <point x="605" y="708"/>
      <point x="605" y="584"/>
      <point x="605" y="704" type="curve"/>
      <point x="569" y="704"/>
      <point x="605" y="704"/>
    </contour>
    <contour>
      <point x="193" y="356" type="curve"/>
      <point x="305" y="356"/>
      <point x="417" y="356"/>
      <point x="529" y="356" type="curve"/>
      <point x="529" y="392"/>
      <point x="529" y="356"/>
      <point x="529" y="392" type="curve"/>
      <point x="417" y="392"/>
      <point x="305" y="392"/>
      <point x="193" y="392" type="curve"/>
      <point x="193" y="356"/>
      <point x="193" y="392"/>
    </contour>
    <contour>
      <point x="210" y="0" type="curve"/>
      <point x="210" y="722" type="line"/>
      <point x="167" y="722"/>
      <point x="210" y="722"/>
      <point x="167" y="722" type="curve"/>
      <point x="167" y="481"/>
      <point x="167" y="241"/>
      <point x="167" y="0" type="curve"/>
      <point x="210" y="0"/>
      <point x="167" y="0"/>
    </contour>
    <contour>
      <point x="177" y="687" type="curve"/>
      <point x="320" y="687"/>
      <point x="462" y="687"/>
      <point x="605" y="687" type="curve"/>
      <point x="605" y="722"/>
      <point x="605" y="687"/>
      <point x="605" y="722" type="curve"/>
      <point x="462" y="722"/>
      <point x="320" y="722"/>
      <point x="177" y="722" type="curve"/>
      <point x="177" y="687"/>
      <point x="177" y="722"/>
    </contour>
  </outline>
</glyph>
<glyph name="H" format="1">
  <advance width="896"/>
  <unicode hex="0048"/>
  <outline>
    <contour>
      <point x="712" y="687" type="curve"/>
      <point x="866" y="687"/>
      <point x="702" y="687"/>
      <point x="856" y="687" type="curve"/>
      <point x="856" y="722"/>
      <point x="856" y="687"/>
      <point x="856" y="722" type="curve"/>
      <point x="805" y="722"/>
      <point x="764" y="722"/>
      <point x="712" y="722" type="curve"/>
      <point x="712" y="687"/>
      <point x="712" y="722"/>
    </contour>
    <contour>
      <point x="712" y="0" type="curve"/>
      <point x="764" y="0"/>
      <point x="805" y="0"/>
      <point x="856" y="0" type="curve"/>
      <point x="856" y="35"/>
      <point x="856" y="0"/>
      <point x="856" y="35" type="curve"/>
      <point x="702" y="35"/>
      <point x="866" y="35"/>
      <point x="712" y="35" type="curve"/>
      <point x="712" y="0"/>
      <point x="712" y="35"/>
    </contour>
    <contour>
      <point x="712" y="35" type="curve"/>
      <point x="558" y="35"/>
      <point x="723" y="35"/>
      <point x="569" y="35" type="curve"/>
      <point x="569" y="0"/>
      <point x="569" y="35"/>
      <point x="569" y="0" type="curve"/>
      <point x="620" y="0"/>
      <point x="661" y="0"/>
      <point x="712" y="0" type="curve"/>
      <point x="712" y="35"/>
      <point x="712" y="0"/>
    </contour>
    <contour>
      <point x="712" y="722" type="curve"/>
      <point x="661" y="722"/>
      <point x="620" y="722"/>
      <point x="569" y="722" type="curve"/>
      <point x="569" y="687"/>
      <point x="569" y="722"/>
      <point x="569" y="687" type="curve"/>
      <point x="723" y="687"/>
      <point x="558" y="687"/>
      <point x="712" y="687" type="curve"/>
      <point x="712" y="722"/>
      <point x="712" y="687"/>
    </contour>
    <contour>
      <point x="185" y="687" type="curve"/>
      <point x="339" y="687"/>
      <point x="174" y="687"/>
      <point x="328" y="687" type="curve"/>
      <point x="328" y="722"/>
      <point x="328" y="687"/>
      <point x="328" y="722" type="curve"/>
      <point x="277" y="722"/>
      <point x="236" y="722"/>
      <point x="185" y="722" type="curve"/>
      <point x="185" y="687"/>
      <point x="185" y="722"/>
    </contour>
    <contour>
      <point x="185" y="722" type="curve"/>
      <point x="134" y="722"/>
      <point x="93" y="722"/>
      <point x="41" y="722" type="curve"/>
      <point x="41" y="687"/>
      <point x="41" y="722"/>
      <point x="41" y="687" type="curve"/>
      <point x="195" y="687"/>
      <point x="31" y="687"/>
      <point x="185" y="687" type="curve"/>
      <point x="185" y="722"/>
      <point x="185" y="687"/>
    </contour>
    <contour>
      <point x="185" y="0" type="curve"/>
      <point x="236" y="0"/>
      <point x="174" y="0"/>
      <point x="328" y="0" type="curve"/>
      <point x="328" y="35"/>
      <point x="328" y="0"/>
      <point x="328" y="35" type="curve"/>
      <point x="174" y="35"/>
      <point x="339" y="35"/>
      <point x="185" y="35" type="curve"/>
      <point x="185" y="0"/>
      <point x="185" y="35"/>
    </contour>
    <contour>
      <point x="185" y="35" type="curve"/>
      <point x="31" y="35"/>
      <point x="195" y="35"/>
      <point x="41" y="35" type="curve"/>
      <point x="41" y="0"/>
      <point x="41" y="35"/>
      <point x="41" y="0" type="curve"/>
      <point x="93" y="0"/>
      <point x="134" y="0"/>
      <point x="185" y="0" type="curve"/>
      <point x="185" y="35"/>
      <point x="185" y="0"/>
    </contour>
    <contour>
      <point x="206" y="0" type="curve"/>
      <point x="206" y="722" type="line"/>
      <point x="164" y="722"/>
      <point x="206" y="722"/>
      <point x="164" y="722" type="curve"/>
      <point x="164" y="481"/>
      <point x="164" y="241"/>
      <point x="164" y="0" type="curve"/>
      <point x="206" y="0"/>
      <point x="164" y="0"/>
    </contour>
    <contour>
      <point x="709" y="381" type="curve"/>
      <point x="534" y="381"/>
      <point x="359" y="381"/>
      <point x="185" y="381" type="curve"/>
      <point x="185" y="345"/>
      <point x="185" y="381"/>
      <point x="185" y="345" type="curve"/>
      <point x="359" y="345"/>
      <point x="534" y="345"/>
      <point x="709" y="345" type="curve"/>
      <point x="709" y="381"/>
      <point x="709" y="345"/>
    </contour>
    <contour>
      <point x="733" y="8" type="curve"/>
      <point x="733" y="243"/>
      <point x="733" y="479"/>
      <point x="733" y="714" type="curve"/>
      <point x="690" y="714"/>
      <point x="733" y="714"/>
      <point x="690" y="714" type="curve"/>
      <point x="690" y="8" type="line"/>
      <point x="733" y="8"/>
      <point x="690" y="8"/>
    </contour>
  </outline>
</glyph>
<glyph name="I" format="1">
  <advance width="369"/>
  <unicode hex="0049"/>
  <outline>
    <contour>
      <point x="185" y="722" type="curve"/>
      <point x="134" y="722"/>
      <point x="93" y="722"/>
      <point x="42" y="722" type="curve"/>
      <point x="42" y="687"/>
      <point x="42" y="722"/>
      <point x="42" y="687" type="curve"/>
      <point x="196" y="687"/>
      <point x="31" y="687"/>
      <point x="185" y="687" type="curve"/>
      <point x="185" y="722"/>
      <point x="185" y="687"/>
    </contour>
    <contour>
      <point x="185" y="687" type="curve"/>
      <point x="339" y="687"/>
      <point x="175" y="687"/>
      <point x="329" y="687" type="curve"/>
      <point x="329" y="722"/>
      <point x="329" y="687"/>
      <point x="329" y="722" type="curve"/>
      <point x="277" y="722"/>
      <point x="236" y="722"/>
      <point x="185" y="722" type="curve"/>
      <point x="185" y="687"/>
      <point x="185" y="722"/>
    </contour>
    <contour>
      <point x="185" y="0" type="curve"/>
      <point x="236" y="0"/>
      <point x="277" y="0"/>
      <point x="329" y="0" type="curve"/>
      <point x="329" y="35"/>
      <point x="329" y="0"/>
      <point x="329" y="35" type="curve"/>
      <point x="175" y="35"/>
      <point x="339" y="35"/>
      <point x="185" y="35" type="curve"/>
      <point x="185" y="0"/>
      <point x="185" y="35"/>
    </contour>
    <contour>
      <point x="185" y="35" type="curve"/>
      <point x="31" y="35"/>
      <point x="196" y="35"/>
      <point x="42" y="35" type="curve"/>
      <point x="42" y="0"/>
      <point x="42" y="35"/>
      <point x="42" y="0" type="curve"/>
      <point x="93" y="0"/>
      <point x="134" y="0"/>
      <point x="185" y="0" type="curve"/>
      <point x="185" y="35"/>
      <point x="185" y="0"/>
    </contour>
    <contour>
      <point x="205" y="0" type="curve"/>
      <point x="205" y="241"/>
      <point x="205" y="481"/>
      <point x="205" y="722" type="curve"/>
      <point x="163" y="722"/>
      <point x="205" y="722"/>
      <point x="163" y="722" type="curve"/>
      <point x="163" y="481"/>
      <point x="163" y="241"/>
      <point x="163" y="0" type="curve"/>
      <point x="205" y="0"/>
      <point x="163" y="0"/>
    </contour>
    <contour>
      <point x="185" y="818" type="move" name="top"/>
    </contour>
    <contour>
      <point x="205" y="0" type="move" name="bottom"/>
    </contour>
  </outline>
</glyph>
<glyph name="J" format="1">
  <advance width="497"/>
  <unicode hex="004A"/>
  <outline>
    <contour>
      <point x="336" y="722" type="curve"/>
      <point x="287" y="722"/>
      <point x="247" y="722"/>
      <point x="197" y="722" type="curve"/>
      <point x="197" y="687"/>
      <point x="197" y="722"/>
      <point x="197" y="687" type="curve"/>
      <point x="347" y="687"/>
      <point x="187" y="687"/>
      <point x="336" y="687" type="curve"/>
      <point x="336" y="722"/>
      <point x="336" y="687"/>
    </contour>
    <contour>
      <point x="336" y="687" type="curve"/>
      <point x="482" y="687"/>
      <point x="326" y="687"/>
      <point x="471" y="687" type="curve"/>
      <point x="471" y="722"/>
      <point x="471" y="687"/>
      <point x="471" y="722" type="curve"/>
      <point x="423" y="722"/>
      <point x="384" y="722"/>
      <point x="336" y="722" type="curve"/>
      <point x="336" y="687"/>
      <point x="336" y="722"/>
    </contour>
    <contour>
      <point x="27" y="41" type="curve"/>
      <point x="59" y="19"/>
      <point x="102" y="-3"/>
      <point x="156" y="-3" type="curve"/>
      <point x="290" y="-3"/>
      <point x="357" y="79"/>
      <point x="357" y="221" type="curve"/>
      <point x="357" y="397"/>
      <point x="357" y="546"/>
      <point x="357" y="722" type="curve"/>
      <point x="319" y="722"/>
      <point x="351" y="722"/>
      <point x="313" y="722" type="curve"/>
      <point x="313" y="546"/>
      <point x="313" y="397"/>
      <point x="313" y="221" type="curve"/>
      <point x="313" y="107"/>
      <point x="265" y="33"/>
      <point x="156" y="33" type="curve"/>
      <point x="112" y="33"/>
      <point x="82" y="50"/>
      <point x="47" y="69" type="curve"/>
      <point x="30" y="46"/>
      <point x="44" y="65"/>
    </contour>
  </outline>
</glyph>
<glyph name="K" format="1">
  <advance width="750"/>
  <unicode hex="004B"/>
  <outline>
    <contour>
      <point x="578" y="722" type="curve"/>
      <point x="526" y="722"/>
      <point x="483" y="722"/>
      <point x="431" y="722" type="curve"/>
      <point x="431" y="687"/>
      <point x="431" y="722"/>
      <point x="431" y="687" type="curve"/>
      <point x="586" y="687"/>
      <point x="423" y="687"/>
      <point x="578" y="687" type="curve"/>
      <point x="578" y="722"/>
      <point x="578" y="687"/>
    </contour>
    <contour>
      <point x="601" y="0" type="curve"/>
      <point x="652" y="0"/>
      <point x="682" y="0"/>
      <point x="734" y="0" type="curve"/>
      <point x="734" y="35"/>
      <point x="734" y="0"/>
      <point x="734" y="35" type="curve"/>
      <point x="580" y="35"/>
      <point x="754" y="35"/>
      <point x="601" y="35" type="curve"/>
      <point x="601" y="0"/>
      <point x="601" y="35"/>
    </contour>
    <contour>
      <point x="576" y="687" type="curve"/>
      <point x="724" y="687"/>
      <point x="557" y="687"/>
      <point x="706" y="687" type="curve"/>
      <point x="706" y="722"/>
      <point x="706" y="687"/>
      <point x="706" y="722" type="curve"/>
      <point x="656" y="722"/>
      <point x="625" y="722"/>
      <point x="576" y="722" type="curve"/>
      <point x="576" y="687"/>
      <point x="576" y="722"/>
    </contour>
    <contour>
      <point x="185" y="722" type="curve"/>
      <point x="133" y="722"/>
      <point x="93" y="722"/>
      <point x="41" y="722" type="curve"/>
      <point x="41" y="687"/>
      <point x="41" y="722"/>
      <point x="41" y="687" type="curve"/>
      <point x="195" y="687"/>
      <point x="31" y="687"/>
      <point x="185" y="687" type="curve"/>
      <point x="185" y="722"/>
      <point x="185" y="687"/>
    </contour>
    <contour>
      <point x="185" y="687" type="curve"/>
      <point x="337" y="687"/>
      <point x="169" y="687"/>
      <point x="321" y="687" type="curve"/>
      <point x="321" y="722"/>
      <point x="321" y="687"/>
      <point x="321" y="722" type="curve"/>
      <point x="270" y="722"/>
      <point x="236" y="722"/>
      <point x="185" y="722" type="curve"/>
      <point x="185" y="687"/>
      <point x="185" y="722"/>
    </contour>
    <contour>
      <point x="185" y="0" type="curve"/>
      <point x="236" y="0"/>
      <point x="168" y="0"/>
      <point x="323" y="0" type="curve"/>
      <point x="323" y="35"/>
      <point x="323" y="0"/>
      <point x="323" y="35" type="curve"/>
      <point x="168" y="35"/>
      <point x="340" y="35"/>
      <point x="185" y="35" type="curve"/>
      <point x="185" y="0"/>
      <point x="185" y="35"/>
    </contour>
    <contour>
      <point x="185" y="35" type="curve"/>
      <point x="31" y="35"/>
      <point x="195" y="35"/>
      <point x="41" y="35" type="curve"/>
      <point x="41" y="0"/>
      <point x="41" y="35"/>
      <point x="41" y="0" type="curve"/>
      <point x="93" y="0"/>
      <point x="133" y="0"/>
      <point x="185" y="0" type="curve"/>
      <point x="185" y="35"/>
      <point x="185" y="0"/>
    </contour>
    <contour>
      <point x="569" y="722" type="curve"/>
      <point x="189" y="380" type="line"/>
      <point x="246" y="380"/>
      <point x="189" y="380"/>
      <point x="246" y="380" type="curve"/>
      <point x="620" y="714" type="line"/>
      <point x="562" y="714"/>
      <point x="627" y="722"/>
    </contour>
    <contour>
      <point x="206" y="0" type="curve"/>
      <point x="206" y="722" type="line"/>
      <point x="163" y="722"/>
      <point x="206" y="722"/>
      <point x="163" y="722" type="curve"/>
      <point x="163" y="481"/>
      <point x="163" y="241"/>
      <point x="163" y="0" type="curve"/>
      <point x="206" y="0"/>
      <point x="163" y="0"/>
    </contour>
    <contour>
      <point x="648" y="8" type="curve"/>
      <point x="246" y="380" type="line"/>
      <point x="189" y="380"/>
      <point x="246" y="380"/>
      <point x="189" y="380" type="curve"/>
      <point x="593" y="0" type="line"/>
      <point x="655" y="0"/>
      <point x="586" y="8"/>
    </contour>
    <contour>
      <point x="423" y="-31" type="move" name="bottom"/>
    </contour>
  </outline>
</glyph>
<glyph name="L" format="1">
  <advance width="663"/>
  <unicode hex="004C"/>
  <outline>
    <contour>
      <point x="625" y="18" type="curve"/>
      <point x="625" y="138"/>
      <point x="625" y="14"/>
      <point x="625" y="134" type="curve"/>
      <point x="589" y="134"/>
      <point x="625" y="134"/>
      <point x="589" y="134" type="curve"/>
      <point x="589" y="14"/>
      <point x="589" y="138"/>
      <point x="589" y="18" type="curve"/>
      <point x="625" y="18"/>
      <point x="589" y="18"/>
    </contour>
    <contour>
      <point x="184" y="35" type="curve"/>
      <point x="30" y="35"/>
      <point x="194" y="35"/>
      <point x="40" y="35" type="curve"/>
      <point x="40" y="0"/>
      <point x="40" y="35"/>
      <point x="40" y="0" type="curve"/>
      <point x="92" y="0"/>
      <point x="133" y="0"/>
      <point x="184" y="0" type="curve"/>
      <point x="184" y="35"/>
      <point x="184" y="0"/>
    </contour>
    <contour>
      <point x="184" y="722" type="curve"/>
      <point x="133" y="722"/>
      <point x="92" y="722"/>
      <point x="40" y="722" type="curve"/>
      <point x="40" y="687"/>
      <point x="40" y="722"/>
      <point x="40" y="687" type="curve"/>
      <point x="194" y="687"/>
      <point x="30" y="687"/>
      <point x="184" y="687" type="curve"/>
      <point x="184" y="722"/>
      <point x="184" y="687"/>
    </contour>
    <contour>
      <point x="184" y="687" type="curve"/>
      <point x="338" y="687"/>
      <point x="174" y="687"/>
      <point x="328" y="687" type="curve"/>
      <point x="328" y="722"/>
      <point x="328" y="687"/>
      <point x="328" y="722" type="curve"/>
      <point x="276" y="722"/>
      <point x="235" y="722"/>
      <point x="184" y="722" type="curve"/>
      <point x="184" y="687"/>
      <point x="184" y="722"/>
    </contour>
    <contour>
      <point x="207" y="0" type="curve"/>
      <point x="207" y="241"/>
      <point x="207" y="481"/>
      <point x="207" y="722" type="curve"/>
      <point x="164" y="722"/>
      <point x="207" y="722"/>
      <point x="164" y="722" type="curve"/>
      <point x="164" y="481"/>
      <point x="164" y="241"/>
      <point x="164" y="0" type="curve"/>
      <point x="207" y="0"/>
      <point x="164" y="0"/>
    </contour>
    <contour>
      <point x="184" y="0" type="curve"/>
      <point x="331" y="0"/>
      <point x="478" y="0"/>
      <point x="625" y="0" type="curve"/>
      <point x="625" y="35"/>
      <point x="625" y="0"/>
      <point x="625" y="35" type="curve"/>
      <point x="478" y="35"/>
      <point x="331" y="35"/>
      <point x="184" y="35" type="curve"/>
      <point x="184" y="0"/>
      <point x="184" y="35"/>
    </contour>
    <contour>
      <point x="186" y="818" type="move" name="top"/>
    </contour>
    <contour>
      <point x="368" y="-29" type="move" name="bottom"/>
    </contour>
  </outline>
</glyph>
<glyph name="M" format="1">
  <advance width="1054"/>
  <unicode hex="004D"/>
  <outline>
    <contour>
      <point x="887" y="0" type="curve"/>
      <point x="938" y="0"/>
      <point x="979" y="0"/>
      <point x="1029" y="0" type="curve"/>
      <point x="1029" y="35"/>
      <point x="1029" y="0"/>
      <point x="1029" y="35" type="curve"/>
      <point x="876" y="35"/>
      <point x="1040" y="35"/>
      <point x="887" y="35" type="curve"/>
      <point x="887" y="0"/>
      <point x="887" y="35"/>
    </contour>
    <contour>
      <point x="887" y="35" type="curve"/>
      <point x="734" y="35"/>
      <point x="897" y="35"/>
      <point x="744" y="35" type="curve"/>
      <point x="744" y="0"/>
      <point x="744" y="35"/>
      <point x="744" y="0" type="curve"/>
      <point x="795" y="0"/>
      <point x="836" y="0"/>
      <point x="887" y="0" type="curve"/>
      <point x="887" y="35"/>
      <point x="887" y="0"/>
    </contour>
    <contour>
      <point x="169" y="35" type="curve"/>
      <point x="15" y="35"/>
      <point x="179" y="35"/>
      <point x="26" y="35" type="curve"/>
      <point x="26" y="0"/>
      <point x="26" y="35"/>
      <point x="26" y="0" type="curve"/>
      <point x="77" y="0"/>
      <point x="118" y="0"/>
      <point x="169" y="0" type="curve"/>
      <point x="169" y="35"/>
      <point x="169" y="0"/>
    </contour>
    <contour>
      <point x="230" y="722" type="curve"/>
      <point x="178" y="722"/>
      <point x="138" y="722"/>
      <point x="87" y="722" type="curve"/>
      <point x="87" y="687"/>
      <point x="87" y="722"/>
      <point x="87" y="687" type="curve"/>
      <point x="240" y="687"/>
      <point x="76" y="687"/>
      <point x="230" y="687" type="curve"/>
      <point x="230" y="722"/>
      <point x="230" y="687"/>
    </contour>
    <contour>
      <point x="824" y="687" type="curve"/>
      <point x="977" y="687"/>
      <point x="813" y="687"/>
      <point x="967" y="687" type="curve"/>
      <point x="967" y="722"/>
      <point x="967" y="687"/>
      <point x="967" y="722" type="curve"/>
      <point x="916" y="722"/>
      <point x="875" y="722"/>
      <point x="824" y="722" type="curve"/>
      <point x="824" y="687"/>
      <point x="824" y="722"/>
    </contour>
    <contour>
      <point x="169" y="0" type="curve"/>
      <point x="219" y="0"/>
      <point x="158" y="0"/>
      <point x="311" y="0" type="curve"/>
      <point x="311" y="35"/>
      <point x="311" y="0"/>
      <point x="311" y="35" type="curve"/>
      <point x="158" y="35"/>
      <point x="321" y="35"/>
      <point x="169" y="35" type="curve"/>
      <point x="169" y="0"/>
      <point x="169" y="35"/>
    </contour>
    <contour>
      <point x="908" y="0" type="curve"/>
      <point x="887" y="241"/>
      <point x="864" y="481"/>
      <point x="843" y="722" type="curve"/>
      <point x="804" y="722"/>
      <point x="843" y="722"/>
      <point x="804" y="722" type="curve"/>
      <point x="825" y="481"/>
      <point x="845" y="241"/>
      <point x="866" y="0" type="curve"/>
      <point x="908" y="0"/>
      <point x="866" y="0"/>
    </contour>
    <contour>
      <point x="188" y="0" type="curve"/>
      <point x="208" y="241"/>
      <point x="227" y="481"/>
      <point x="247" y="722" type="curve"/>
      <point x="208" y="722"/>
      <point x="247" y="722"/>
      <point x="208" y="722" type="curve"/>
      <point x="187" y="481"/>
      <point x="167" y="241"/>
      <point x="146" y="0" type="curve"/>
      <point x="188" y="0"/>
      <point x="146" y="0"/>
    </contour>
    <contour>
      <point x="544" y="0" type="curve"/>
      <point x="447" y="241"/>
      <point x="349" y="481"/>
      <point x="250" y="722" type="curve"/>
      <point x="211" y="722"/>
      <point x="250" y="722"/>
      <point x="210" y="722" type="curve"/>
      <point x="308" y="481"/>
      <point x="405" y="241"/>
      <point x="502" y="0" type="curve"/>
      <point x="543" y="0"/>
      <point x="503" y="0"/>
    </contour>
    <contour>
      <point x="553" y="0" type="curve"/>
      <point x="649" y="241"/>
      <point x="745" y="481"/>
      <point x="840" y="722" type="curve"/>
      <point x="801" y="722"/>
      <point x="839" y="722"/>
      <point x="800" y="722" type="curve"/>
      <point x="703" y="481"/>
      <point x="607" y="241"/>
      <point x="510" y="0" type="curve"/>
      <point x="552" y="0"/>
      <point x="511" y="0"/>
    </contour>
  </outline>
</glyph>
<glyph name="P" format="1">
  <advance width="644"/>
  <unicode hex="0050"/>
  <outline>
    <contour>
      <point x="190" y="722" type="curve"/>
      <point x="140" y="722"/>
      <point x="97" y="722"/>
      <point x="46" y="722" type="curve"/>
      <point x="46" y="687"/>
      <point x="46" y="722"/>
      <point x="46" y="687" type="curve"/>
      <point x="198" y="687"/>
      <point x="38" y="687"/>
      <point x="190" y="687" type="curve"/>
      <point x="190" y="722"/>
      <point x="190" y="687"/>
    </contour>
    <contour>
      <point x="190" y="35" type="curve"/>
      <point x="38" y="35"/>
      <point x="198" y="35"/>
      <point x="46" y="35" type="curve"/>
      <point x="46" y="0"/>
      <point x="46" y="35"/>
      <point x="46" y="0" type="curve"/>
      <point x="97" y="0"/>
      <point x="140" y="0"/>
      <point x="190" y="0" type="curve"/>
      <point x="190" y="35"/>
      <point x="190" y="0"/>
    </contour>
    <contour>
      <point x="190" y="0" type="curve"/>
      <point x="240" y="0"/>
      <point x="182" y="0"/>
      <point x="332" y="0" type="curve"/>
      <point x="332" y="35"/>
      <point x="332" y="0"/>
      <point x="332" y="35" type="curve"/>
      <point x="182" y="35"/>
      <point x="341" y="35"/>
      <point x="190" y="35" type="curve"/>
      <point x="190" y="0"/>
      <point x="190" y="35"/>
    </contour>
    <contour>
      <point x="184" y="321" type="curve"/>
      <point x="239" y="294"/>
      <point x="293" y="275"/>
      <point x="355" y="275" type="curve"/>
      <point x="495" y="278"/>
      <point x="589" y="352"/>
      <point x="589" y="492" type="curve"/>
      <point x="589" y="639"/>
      <point x="481" y="722"/>
      <point x="328" y="722" type="curve"/>
      <point x="283" y="722"/>
      <point x="238" y="722"/>
      <point x="193" y="722" type="curve"/>
      <point x="193" y="687"/>
      <point x="193" y="722"/>
      <point x="193" y="687" type="curve"/>
      <point x="236" y="687"/>
      <point x="279" y="687"/>
      <point x="322" y="687" type="curve"/>
      <point x="454" y="687"/>
      <point x="546" y="618"/>
      <point x="546" y="491" type="curve"/>
      <point x="546" y="377"/>
      <point x="469" y="311"/>
      <point x="354" y="311" type="curve"/>
      <point x="294" y="311"/>
      <point x="252" y="326"/>
      <point x="198" y="353" type="curve"/>
      <point x="185" y="321"/>
      <point x="198" y="352"/>
    </contour>
    <contour>
      <point x="210" y="0" type="curve"/>
      <point x="210" y="241"/>
      <point x="210" y="481"/>
      <point x="210" y="722" type="curve"/>
      <point x="167" y="722"/>
      <point x="210" y="722"/>
      <point x="167" y="722" type="curve"/>
      <point x="167" y="481"/>
      <point x="167" y="241"/>
      <point x="167" y="0" type="curve"/>
      <point x="210" y="0"/>
      <point x="167" y="0"/>
    </contour>
  </outline>
</glyph>
<glyph name="Q" format="1">
  <advance width="815"/>
  <unicode hex="0051"/>
  <outline>
    <contour>
      <point x="381" y="7" type="curve"/>
      <point x="489" y="-172"/>
      <point x="613" y="-236"/>
      <point x="812" y="-236" type="curve"/>
      <point x="812" y="-199"/>
      <point x="812" y="-236"/>
      <point x="812" y="-199" type="curve"/>
      <point x="631" y="-199"/>
      <point x="518" y="-140"/>
      <point x="418" y="25" type="curve"/>
      <point x="381" y="7"/>
      <point x="418" y="25"/>
    </contour>
    <contour>
      <point x="110" y="360" type="curve"/>
      <point x="110" y="553"/>
      <point x="204" y="689"/>
      <point x="389" y="689" type="curve"/>
      <point x="575" y="689"/>
      <point x="670" y="555"/>
      <point x="670" y="363" type="curve"/>
      <point x="670" y="170"/>
      <point x="578" y="33"/>
      <point x="393" y="33" type="curve"/>
      <point x="206" y="33"/>
      <point x="110" y="167"/>
      <point x="110" y="360" type="curve"/>
      <point x="66" y="360"/>
      <point x="110" y="360"/>
      <point x="66" y="360" type="curve"/>
      <point x="66" y="143"/>
      <point x="181" y="-5"/>
      <point x="391" y="-5" type="curve"/>
      <point x="602" y="-5"/>
      <point x="714" y="146"/>
      <point x="714" y="364" type="curve"/>
      <point x="714" y="581"/>
      <point x="601" y="728"/>
      <point x="392" y="728" type="curve"/>
      <point x="181" y="728"/>
      <point x="66" y="578"/>
      <point x="66" y="360" type="curve"/>
      <point x="110" y="360"/>
      <point x="66" y="360"/>
    </contour>
  </outline>
</glyph>
<glyph name="T" format="1">
  <advance width="738"/>
  <unicode hex="0054"/>
  <outline>
    <contour>
      <point x="46" y="703" type="curve"/>
      <point x="46" y="583"/>
      <point x="46" y="708"/>
      <point x="46" y="588" type="curve"/>
      <point x="82" y="588"/>
      <point x="46" y="588"/>
      <point x="82" y="588" type="curve"/>
      <point x="82" y="708"/>
      <point x="82" y="583"/>
      <point x="82" y="703" type="curve"/>
      <point x="46" y="703"/>
      <point x="82" y="703"/>
    </contour>
    <contour>
      <point x="657" y="703" type="curve"/>
      <point x="657" y="583"/>
      <point x="657" y="708"/>
      <point x="657" y="588" type="curve"/>
      <point x="693" y="588"/>
      <point x="657" y="588"/>
      <point x="693" y="588" type="curve"/>
      <point x="693" y="708"/>
      <point x="693" y="583"/>
      <point x="693" y="703" type="curve"/>
      <point x="657" y="703"/>
      <point x="693" y="703"/>
    </contour>
    <contour>
      <point x="368" y="0" type="curve"/>
      <point x="418" y="0"/>
      <point x="463" y="0"/>
      <point x="512" y="0" type="curve"/>
      <point x="512" y="35"/>
      <point x="512" y="0"/>
      <point x="512" y="35" type="curve"/>
      <point x="365" y="35"/>
      <point x="516" y="35"/>
      <point x="368" y="35" type="curve"/>
      <point x="368" y="0"/>
      <point x="368" y="35"/>
    </contour>
    <contour>
      <point x="368" y="35" type="curve"/>
      <point x="221" y="35"/>
      <point x="372" y="35"/>
      <point x="225" y="35" type="curve"/>
      <point x="225" y="0"/>
      <point x="225" y="35"/>
      <point x="225" y="0" type="curve"/>
      <point x="274" y="0"/>
      <point x="319" y="0"/>
      <point x="368" y="0" type="curve"/>
      <point x="368" y="35"/>
      <point x="368" y="0"/>
    </contour>
    <contour>
      <point x="391" y="0" type="curve"/>
      <point x="391" y="237"/>
      <point x="391" y="473"/>
      <point x="391" y="710" type="curve"/>
      <point x="348" y="710"/>
      <point x="391" y="710"/>
      <point x="348" y="710" type="curve"/>
      <point x="348" y="473"/>
      <point x="348" y="237"/>
      <point x="348" y="0" type="curve"/>
      <point x="391" y="0"/>
      <point x="348" y="0"/>
    </contour>
    <contour>
      <point x="46" y="684" type="curve"/>
      <point x="261" y="684"/>
      <point x="477" y="684"/>
      <point x="693" y="684" type="curve"/>
      <point x="693" y="723"/>
      <point x="693" y="683"/>
      <point x="693" y="722" type="curve"/>
      <point x="477" y="722"/>
      <point x="261" y="722"/>
      <point x="46" y="722" type="curve"/>
      <point x="46" y="683"/>
      <point x="46" y="723"/>
    </contour>
    <contour>
      <point x="368" y="818" type="move" name="top"/>
    </contour>
    <contour>
      <point x="382" y="-32" type="move" name="bottom"/>
    </contour>
  </outline>
</glyph>
<glyph name="U" format="1">
  <advance width="866"/>
  <unicode hex="0055"/>
  <outline>
    <contour>
      <point x="695" y="687" type="curve"/>
      <point x="842" y="687"/>
      <point x="691" y="687"/>
      <point x="838" y="687" type="curve"/>
      <point x="838" y="722"/>
      <point x="838" y="687"/>
      <point x="838" y="722" type="curve"/>
      <point x="790" y="722"/>
      <point x="744" y="722"/>
      <point x="695" y="722" type="curve"/>
      <point x="695" y="687"/>
      <point x="695" y="722"/>
    </contour>
    <contour>
      <point x="695" y="722" type="curve"/>
      <point x="646" y="722"/>
      <point x="600" y="722"/>
      <point x="552" y="722" type="curve"/>
      <point x="552" y="687"/>
      <point x="552" y="722"/>
      <point x="552" y="687" type="curve"/>
      <point x="698" y="687"/>
      <point x="548" y="687"/>
      <point x="695" y="687" type="curve"/>
      <point x="695" y="722"/>
      <point x="695" y="687"/>
    </contour>
    <contour>
      <point x="173" y="722" type="curve"/>
      <point x="124" y="722"/>
      <point x="78" y="722"/>
      <point x="29" y="722" type="curve"/>
      <point x="29" y="687"/>
      <point x="29" y="722"/>
      <point x="29" y="687" type="curve"/>
      <point x="176" y="687"/>
      <point x="26" y="687"/>
      <point x="173" y="687" type="curve"/>
      <point x="173" y="722"/>
      <point x="173" y="687"/>
    </contour>
    <contour>
      <point x="173" y="687" type="curve"/>
      <point x="320" y="687"/>
      <point x="169" y="687"/>
      <point x="316" y="687" type="curve"/>
      <point x="316" y="722"/>
      <point x="316" y="687"/>
      <point x="316" y="722" type="curve"/>
      <point x="267" y="722"/>
      <point x="221" y="722"/>
      <point x="173" y="722" type="curve"/>
      <point x="173" y="687"/>
      <point x="173" y="722"/>
    </contour>
    <contour>
      <point x="150" y="714" type="curve"/>
      <point x="150" y="552"/>
      <point x="150" y="434"/>
      <point x="150" y="272" type="curve"/>
      <point x="150" y="85"/>
      <point x="244" y="-5"/>
      <point x="434" y="-5" type="curve"/>
      <point x="621" y="-5"/>
      <point x="715" y="83"/>
      <point x="715" y="267" type="curve"/>
      <point x="715" y="431"/>
      <point x="715" y="551"/>
      <point x="715" y="714" type="curve"/>
      <point x="682" y="714"/>
      <point x="708" y="714"/>
      <point x="675" y="714" type="curve"/>
      <point x="675" y="548"/>
      <point x="675" y="428"/>
      <point x="675" y="262" type="curve"/>
      <point x="675" y="110"/>
      <point x="593" y="34"/>
      <point x="437" y="34" type="curve"/>
      <point x="271" y="34"/>
      <point x="190" y="114"/>
      <point x="190" y="279" type="curve"/>
      <point x="190" y="438"/>
      <point x="190" y="555"/>
      <point x="190" y="714" type="curve"/>
      <point x="157" y="714"/>
      <point x="183" y="714"/>
    </contour>
    <contour>
      <point x="438" y="818" type="move" name="top"/>
    </contour>
    <contour>
      <point x="449" y="-31" type="move" name="bottom"/>
    </contour>
  </outline>
</glyph>
<glyph name="V" format="1">
  <advance width="846"/>
  <unicode hex="0056"/>
  <outline>
    <contour>
      <point x="687" y="722" type="curve"/>
      <point x="636" y="722"/>
      <point x="588" y="722"/>
      <point x="537" y="722" type="curve"/>
      <point x="537" y="687"/>
      <point x="537" y="722"/>
      <point x="537" y="687" type="curve"/>
      <point x="690" y="687"/>
      <point x="534" y="687"/>
      <point x="687" y="687" type="curve"/>
      <point x="687" y="722"/>
      <point x="687" y="687"/>
    </contour>
    <contour>
      <point x="125" y="722" type="curve"/>
      <point x="77" y="722"/>
      <point x="32" y="722"/>
      <point x="-16" y="722" type="curve"/>
      <point x="-16" y="687"/>
      <point x="-16" y="722"/>
      <point x="-16" y="687" type="curve"/>
      <point x="129" y="687"/>
      <point x="-20" y="687"/>
      <point x="125" y="687" type="curve"/>
      <point x="125" y="722"/>
      <point x="125" y="687"/>
    </contour>
    <contour>
      <point x="689" y="687" type="curve"/>
      <point x="833" y="687"/>
      <point x="685" y="687"/>
      <point x="830" y="687" type="curve"/>
      <point x="830" y="722"/>
      <point x="830" y="687"/>
      <point x="830" y="722" type="curve"/>
      <point x="782" y="722"/>
      <point x="737" y="722"/>
      <point x="689" y="722" type="curve"/>
      <point x="689" y="687"/>
      <point x="689" y="722"/>
    </contour>
    <contour>
      <point x="127" y="687" type="curve"/>
      <point x="280" y="687"/>
      <point x="124" y="687"/>
      <point x="277" y="687" type="curve"/>
      <point x="277" y="722"/>
      <point x="277" y="687"/>
      <point x="277" y="722" type="curve"/>
      <point x="226" y="722"/>
      <point x="178" y="722"/>
      <point x="127" y="722" type="curve"/>
      <point x="127" y="687"/>
      <point x="127" y="722"/>
    </contour>
    <contour>
      <point x="680" y="722" type="curve"/>
      <point x="583" y="481"/>
      <point x="487" y="241"/>
      <point x="391" y="0" type="curve"/>
      <point x="436" y="0"/>
      <point x="390" y="0"/>
      <point x="435" y="0" type="curve"/>
      <point x="532" y="241"/>
      <point x="628" y="481"/>
      <point x="725" y="722" type="curve"/>
      <point x="680" y="722"/>
      <point x="725" y="722"/>
    </contour>
    <contour>
      <point x="89" y="722" type="curve"/>
      <point x="187" y="481"/>
      <point x="285" y="241"/>
      <point x="383" y="0" type="curve"/>
      <point x="429" y="0"/>
      <point x="383" y="0"/>
      <point x="429" y="0" type="curve"/>
      <point x="331" y="241"/>
      <point x="233" y="481"/>
      <point x="136" y="722" type="curve"/>
      <point x="89" y="722"/>
      <point x="135" y="722"/>
    </contour>
  </outline>
</glyph>
<glyph name="W" format="1">
  <advance width="1057"/>
  <unicode hex="0057"/>
  <outline>
    <contour>
      <point x="138" y="687" type="curve"/>
      <point x="283" y="687"/>
      <point x="134" y="687"/>
      <point x="279" y="687" type="curve"/>
      <point x="279" y="722"/>
      <point x="279" y="687"/>
      <point x="279" y="722" type="curve"/>
      <point x="231" y="722"/>
      <point x="186" y="722"/>
      <point x="138" y="722" type="curve"/>
      <point x="138" y="687"/>
      <point x="138" y="722"/>
    </contour>
    <contour>
      <point x="137" y="722" type="curve"/>
      <point x="89" y="722"/>
      <point x="43" y="722"/>
      <point x="-5" y="722" type="curve"/>
      <point x="-5" y="687"/>
      <point x="-5" y="722"/>
      <point x="-5" y="687" type="curve"/>
      <point x="141" y="687"/>
      <point x="-9" y="687"/>
      <point x="137" y="687" type="curve"/>
      <point x="137" y="722"/>
      <point x="137" y="687"/>
    </contour>
    <contour>
      <point x="903" y="722" type="curve"/>
      <point x="854" y="722"/>
      <point x="810" y="722"/>
      <point x="762" y="722" type="curve"/>
      <point x="762" y="687"/>
      <point x="762" y="722"/>
      <point x="762" y="687" type="curve"/>
      <point x="906" y="687"/>
      <point x="758" y="687"/>
      <point x="903" y="687" type="curve"/>
      <point x="903" y="722"/>
      <point x="903" y="687"/>
    </contour>
    <contour>
      <point x="903" y="687" type="curve"/>
      <point x="1049" y="687"/>
      <point x="899" y="687"/>
      <point x="1045" y="687" type="curve"/>
      <point x="1045" y="722"/>
      <point x="1045" y="687"/>
      <point x="1045" y="722" type="curve"/>
      <point x="997" y="722"/>
      <point x="951" y="722"/>
      <point x="903" y="722" type="curve"/>
      <point x="903" y="687"/>
      <point x="903" y="722"/>
    </contour>
    <contour>
      <point x="333" y="0" type="curve"/>
      <point x="403" y="241"/>
      <point x="472" y="481"/>
      <point x="542" y="722" type="curve"/>
      <point x="502" y="722"/>
      <point x="543" y="722"/>
      <point x="502" y="722" type="curve"/>
      <point x="434" y="481"/>
      <point x="365" y="241"/>
      <point x="297" y="0" type="curve"/>
      <point x="332" y="0"/>
      <point x="298" y="0"/>
    </contour>
    <contour>
      <point x="511" y="722" type="curve"/>
      <point x="574" y="481"/>
      <point x="636" y="241"/>
      <point x="699" y="0" type="curve"/>
      <point x="734" y="0"/>
      <point x="699" y="0"/>
      <point x="735" y="0" type="curve"/>
      <point x="674" y="241"/>
      <point x="612" y="481"/>
      <point x="550" y="722" type="curve"/>
      <point x="510" y="722"/>
      <point x="551" y="722"/>
    </contour>
    <contour>
      <point x="102" y="722" type="curve"/>
      <point x="165" y="481"/>
      <point x="228" y="241"/>
      <point x="292" y="0" type="curve"/>
      <point x="327" y="0"/>
      <point x="294" y="0"/>
      <point x="329" y="0" type="curve"/>
      <point x="268" y="241"/>
      <point x="205" y="481"/>
      <point x="144" y="722" type="curve"/>
      <point x="102" y="722"/>
      <point x="144" y="722"/>
    </contour>
    <contour>
      <point x="896" y="722" type="curve"/>
      <point x="831" y="481"/>
      <point x="767" y="241"/>
      <point x="704" y="0" type="curve"/>
      <point x="739" y="0"/>
      <point x="705" y="0"/>
      <point x="740" y="0" type="curve"/>
      <point x="807" y="241"/>
      <point x="872" y="481"/>
      <point x="938" y="722" type="curve"/>
      <point x="896" y="722"/>
      <point x="938" y="722"/>
    </contour>
  </outline>
</glyph>
<glyph name="X" format="1">
  <advance width="791"/>
  <unicode hex="0058"/>
  <outline>
    <contour>
      <point x="145" y="0" type="curve"/>
      <point x="195" y="0"/>
      <point x="142" y="0"/>
      <point x="290" y="0" type="curve"/>
      <point x="290" y="35"/>
      <point x="290" y="0"/>
      <point x="290" y="35" type="curve"/>
      <point x="142" y="35"/>
      <point x="294" y="35"/>
      <point x="145" y="35" type="curve"/>
      <point x="145" y="0"/>
      <point x="145" y="35"/>
    </contour>
    <contour>
      <point x="144" y="35" type="curve"/>
      <point x="-3" y="35"/>
      <point x="147" y="35"/>
      <point x="1" y="35" type="curve"/>
      <point x="1" y="0"/>
      <point x="1" y="35"/>
      <point x="1" y="0" type="curve"/>
      <point x="50" y="0"/>
      <point x="95" y="0"/>
      <point x="144" y="0" type="curve"/>
      <point x="144" y="35"/>
      <point x="144" y="0"/>
    </contour>
    <contour>
      <point x="644" y="0" type="curve"/>
      <point x="692" y="0"/>
      <point x="738" y="0"/>
      <point x="787" y="0" type="curve"/>
      <point x="787" y="35"/>
      <point x="787" y="0"/>
      <point x="787" y="35" type="curve"/>
      <point x="640" y="35"/>
      <point x="790" y="35"/>
      <point x="644" y="35" type="curve"/>
      <point x="644" y="0"/>
      <point x="644" y="35"/>
    </contour>
    <contour>
      <point x="642" y="35" type="curve"/>
      <point x="494" y="35"/>
      <point x="646" y="35"/>
      <point x="497" y="35" type="curve"/>
      <point x="497" y="0"/>
      <point x="497" y="35"/>
      <point x="497" y="0" type="curve"/>
      <point x="547" y="0"/>
      <point x="593" y="0"/>
      <point x="642" y="0" type="curve"/>
      <point x="642" y="35"/>
      <point x="642" y="0"/>
    </contour>
    <contour>
      <point x="617" y="687" type="curve"/>
      <point x="763" y="687"/>
      <point x="613" y="687"/>
      <point x="760" y="687" type="curve"/>
      <point x="760" y="722"/>
      <point x="760" y="687"/>
      <point x="760" y="722" type="curve"/>
      <point x="711" y="722"/>
      <point x="665" y="722"/>
      <point x="617" y="722" type="curve"/>
      <point x="617" y="687"/>
      <point x="617" y="722"/>
    </contour>
    <contour>
      <point x="618" y="722" type="curve"/>
      <point x="568" y="722"/>
      <point x="522" y="722"/>
      <point x="472" y="722" type="curve"/>
      <point x="472" y="687"/>
      <point x="472" y="722"/>
      <point x="472" y="687" type="curve"/>
      <point x="622" y="687"/>
      <point x="468" y="687"/>
      <point x="618" y="687" type="curve"/>
      <point x="618" y="722"/>
      <point x="618" y="687"/>
    </contour>
    <contour>
      <point x="176" y="722" type="curve"/>
      <point x="127" y="722"/>
      <point x="81" y="722"/>
      <point x="33" y="722" type="curve"/>
      <point x="33" y="687"/>
      <point x="33" y="722"/>
      <point x="33" y="687" type="curve"/>
      <point x="179" y="687"/>
      <point x="29" y="687"/>
      <point x="176" y="687" type="curve"/>
      <point x="176" y="722"/>
      <point x="176" y="687"/>
    </contour>
    <contour>
      <point x="175" y="687" type="curve"/>
      <point x="324" y="687"/>
      <point x="171" y="687"/>
      <point x="321" y="687" type="curve"/>
      <point x="321" y="722"/>
      <point x="321" y="687"/>
      <point x="321" y="722" type="curve"/>
      <point x="271" y="722"/>
      <point x="224" y="722"/>
      <point x="175" y="722" type="curve"/>
      <point x="175" y="687"/>
      <point x="175" y="722"/>
    </contour>
    <contour>
      <point x="618" y="722" type="curve"/>
      <point x="445" y="482"/>
      <point x="272" y="244"/>
      <point x="99" y="4" type="curve"/>
      <point x="148" y="4"/>
      <point x="99" y="0"/>
      <point x="148" y="0" type="curve"/>
      <point x="320" y="240"/>
      <point x="491" y="479"/>
      <point x="663" y="719" type="curve"/>
      <point x="618" y="719"/>
      <point x="663" y="722"/>
    </contour>
    <contour>
      <point x="133" y="719" type="curve"/>
      <point x="303" y="479"/>
      <point x="473" y="240"/>
      <point x="643" y="0" type="curve"/>
      <point x="691" y="0"/>
      <point x="643" y="3"/>
      <point x="691" y="3" type="curve"/>
      <point x="520" y="243"/>
      <point x="348" y="482"/>
      <point x="177" y="722" type="curve"/>
      <point x="133" y="722"/>
      <point x="177" y="719"/>
    </contour>
  </outline>
</glyph>
<glyph name="Y" format="1">
  <advance width="741"/>
  <unicode hex="0059"/>
  <outline>
    <contour>
      <point x="353" y="35" type="curve"/>
      <point x="206" y="35"/>
      <point x="357" y="35"/>
      <point x="210" y="35" type="curve"/>
      <point x="210" y="0"/>
      <point x="210" y="35"/>
      <point x="210" y="0" type="curve"/>
      <point x="258" y="0"/>
      <point x="304" y="0"/>
      <point x="353" y="0" type="curve"/>
      <point x="353" y="35"/>
      <point x="353" y="0"/>
    </contour>
    <contour>
      <point x="353" y="0" type="curve"/>
      <point x="402" y="0"/>
      <point x="448" y="0"/>
      <point x="497" y="0" type="curve"/>
      <point x="497" y="35"/>
      <point x="497" y="0"/>
      <point x="497" y="35" type="curve"/>
      <point x="350" y="35"/>
      <point x="500" y="35"/>
      <point x="353" y="35" type="curve"/>
      <point x="353" y="0"/>
      <point x="353" y="35"/>
    </contour>
    <contour>
      <point x="584" y="722" type="curve"/>
      <point x="535" y="722"/>
      <point x="490" y="722"/>
      <point x="442" y="722" type="curve"/>
      <point x="442" y="687"/>
      <point x="442" y="722"/>
      <point x="442" y="687" type="curve"/>
      <point x="588" y="687"/>
      <point x="438" y="687"/>
      <point x="584" y="687" type="curve"/>
      <point x="584" y="722"/>
      <point x="584" y="687"/>
    </contour>
    <contour>
      <point x="134" y="722" type="curve"/>
      <point x="86" y="722"/>
      <point x="42" y="722"/>
      <point x="-5" y="722" type="curve"/>
      <point x="-5" y="687"/>
      <point x="-5" y="722"/>
      <point x="-5" y="687" type="curve"/>
      <point x="138" y="687"/>
      <point x="-9" y="687"/>
      <point x="134" y="687" type="curve"/>
      <point x="134" y="722"/>
      <point x="134" y="687"/>
    </contour>
    <contour>
      <point x="136" y="687" type="curve"/>
      <point x="282" y="687"/>
      <point x="132" y="687"/>
      <point x="278" y="687" type="curve"/>
      <point x="278" y="722"/>
      <point x="278" y="687"/>
      <point x="278" y="722" type="curve"/>
      <point x="229" y="722"/>
      <point x="184" y="722"/>
      <point x="136" y="722" type="curve"/>
      <point x="136" y="687"/>
      <point x="136" y="722"/>
    </contour>
    <contour>
      <point x="586" y="687" type="curve"/>
      <point x="729" y="687"/>
      <point x="582" y="687"/>
      <point x="726" y="687" type="curve"/>
      <point x="726" y="722"/>
      <point x="726" y="687"/>
      <point x="726" y="722" type="curve"/>
      <point x="678" y="722"/>
      <point x="633" y="722"/>
      <point x="586" y="722" type="curve"/>
      <point x="586" y="687"/>
      <point x="586" y="722"/>
    </contour>
    <contour>
      <point x="88" y="719" type="curve"/>
      <point x="169" y="592"/>
      <point x="250" y="464"/>
      <point x="331" y="337" type="curve"/>
      <point x="375" y="337"/>
      <point x="329" y="339"/>
      <point x="374" y="339" type="curve"/>
      <point x="293" y="467"/>
      <point x="212" y="594"/>
      <point x="132" y="722" type="curve"/>
      <point x="88" y="722"/>
      <point x="132" y="719"/>
    </contour>
    <contour>
      <point x="588" y="722" type="curve"/>
      <point x="503" y="594"/>
      <point x="418" y="467"/>
      <point x="333" y="339" type="curve"/>
      <point x="377" y="339"/>
      <point x="332" y="337"/>
      <point x="376" y="337" type="curve"/>
      <point x="462" y="464"/>
      <point x="547" y="592"/>
      <point x="632" y="719" type="curve"/>
      <point x="588" y="719"/>
      <point x="632" y="722"/>
    </contour>
    <contour>
      <point x="377" y="0" type="curve"/>
      <point x="377" y="115"/>
      <point x="377" y="230"/>
      <point x="377" y="345" type="curve"/>
      <point x="330" y="345"/>
      <point x="377" y="345"/>
      <point x="330" y="345" type="curve"/>
      <point x="330" y="230"/>
      <point x="330" y="115"/>
      <point x="330" y="0" type="curve"/>
      <point x="377" y="0"/>
      <point x="330" y="0"/>
    </contour>
    <contour>
      <point x="355" y="818" type="move" name="top"/>
    </contour>
  </outline>
</glyph>
<glyph name="bracketright" format="1">
  <advance width="298"/>
  <unicode hex="005D"/>
  <outline>
    <contour>
      <point x="42" y="732" type="curve"/>
      <point x="95" y="732"/>
      <point x="148" y="732"/>
      <point x="201" y="732" type="curve"/>
      <point x="197" y="736"/>
      <point x="190" y="739"/>
      <point x="186" y="743" type="curve"/>
      <point x="181" y="748"/>
      <point x="177" y="753"/>
      <point x="173" y="757" type="curve"/>
      <point x="173" y="468"/>
      <point x="172" y="179"/>
      <point x="173" y="-111" type="curve"/>
      <point x="177" y="-106"/>
      <point x="183" y="-101"/>
      <point x="188" y="-96" type="curve"/>
      <point x="192" y="-92"/>
      <point x="198" y="-88"/>
      <point x="202" y="-83" type="curve"/>
      <point x="148" y="-83"/>
      <point x="95" y="-83"/>
      <point x="42" y="-83" type="curve"/>
      <point x="41" y="-122"/>
      <point x="42" y="-83"/>
      <point x="41" y="-122" type="curve"/>
      <point x="95" y="-122"/>
      <point x="148" y="-122"/>
      <point x="202" y="-122" type="curve"/>
      <point x="216" y="-122"/>
      <point x="202" y="-122"/>
      <point x="216" y="-122" type="curve"/>
      <point x="216" y="-111"/>
      <point x="216" y="-122"/>
      <point x="216" y="-111" type="curve"/>
      <point x="216" y="179"/>
      <point x="216" y="468"/>
      <point x="216" y="757" type="curve"/>
      <point x="216" y="771"/>
      <point x="216" y="757"/>
      <point x="216" y="771" type="curve"/>
      <point x="201" y="771"/>
      <point x="216" y="771"/>
      <point x="201" y="771" type="curve"/>
      <point x="148" y="771"/>
      <point x="95" y="771"/>
      <point x="42" y="771" type="curve"/>
      <point x="42" y="732"/>
      <point x="42" y="771"/>
    </contour>
  </outline>
</glyph>
<glyph name="asciicircum" format="1">
  <advance width="552"/>
  <unicode hex="005E"/>
  <outline>
    <contour>
      <point x="115" y="464" type="curve"/>
      <point x="175" y="577"/>
      <point x="236" y="689"/>
      <point x="297" y="801" type="curve"/>
      <point x="254" y="801"/>
      <point x="296" y="801"/>
      <point x="253" y="801" type="curve"/>
      <point x="193" y="689"/>
      <point x="132" y="577"/>
      <point x="72" y="464" type="curve"/>
      <point x="114" y="464"/>
      <point x="73" y="464"/>
    </contour>
    <contour>
      <point x="481" y="464" type="curve"/>
      <point x="422" y="573"/>
      <point x="357" y="692"/>
      <point x="297" y="801" type="curve"/>
      <point x="255" y="801"/>
      <point x="297" y="801"/>
      <point x="254" y="801" type="curve"/>
      <point x="314" y="692"/>
      <point x="378" y="573"/>
      <point x="438" y="464" type="curve"/>
      <point x="480" y="464"/>
      <point x="439" y="464"/>
    </contour>
  </outline>
</glyph>
<glyph name="grave" format="1">
  <advance width="416"/>
  <unicode hex="0060"/>
  <outline>
    <contour>
      <point x="246" y="586" type="line"/>
      <point x="117" y="752" type="line"/>
      <point x="59" y="752" type="line"/>
      <point x="201" y="586" type="line"/>
    </contour>
    <contour>
      <point x="220" y="586" type="move" name="_top"/>
    </contour>
  </outline>
</glyph>
<glyph name="b" format="1">
  <advance width="676"/>
  <unicode hex="0062"/>
  <outline>
    <contour>
      <point x="155" y="800" type="curve"/>
      <point x="106" y="800"/>
      <point x="61" y="800"/>
      <point x="11" y="800" type="curve"/>
      <point x="11" y="770"/>
      <point x="11" y="794"/>
      <point x="11" y="765" type="curve"/>
      <point x="151" y="765"/>
      <point x="16" y="765"/>
      <point x="155" y="765" type="curve"/>
      <point x="155" y="794"/>
      <point x="155" y="770"/>
    </contour>
    <contour>
      <point x="164" y="395" type="curve"/>
      <point x="203" y="446"/>
      <point x="279" y="502"/>
      <point x="372" y="502" type="curve"/>
      <point x="500" y="502"/>
      <point x="571" y="402"/>
      <point x="571" y="265" type="curve"/>
      <point x="571" y="133"/>
      <point x="496" y="30"/>
      <point x="372" y="31" type="curve"/>
      <point x="288" y="31"/>
      <point x="223" y="68"/>
      <point x="167" y="132" type="curve"/>
      <point x="145" y="115"/>
      <point x="164" y="127"/>
      <point x="142" y="110" type="curve"/>
      <point x="206" y="37"/>
      <point x="276" y="-5"/>
      <point x="376" y="-5" type="curve"/>
      <point x="527" y="-5"/>
      <point x="614" y="107"/>
      <point x="614" y="267" type="curve"/>
      <point x="614" y="425"/>
      <point x="529" y="538"/>
      <point x="377" y="538" type="curve"/>
      <point x="272" y="538"/>
      <point x="190" y="481"/>
      <point x="144" y="422" type="curve"/>
      <point x="160" y="402"/>
      <point x="147" y="414"/>
    </contour>
    <contour>
      <point x="174" y="0" type="curve"/>
      <point x="174" y="270"/>
      <point x="174" y="530"/>
      <point x="174" y="800" type="curve"/>
      <point x="139" y="800"/>
      <point x="167" y="800"/>
      <point x="132" y="800" type="curve"/>
      <point x="132" y="530"/>
      <point x="132" y="270"/>
      <point x="132" y="0" type="curve"/>
      <point x="167" y="0"/>
      <point x="139" y="0"/>
    </contour>
    <contour>
      <point x="155" y="35" type="curve"/>
      <point x="16" y="35"/>
      <point x="151" y="35"/>
      <point x="11" y="35" type="curve"/>
      <point x="11" y="6"/>
      <point x="11" y="30"/>
      <point x="11" y="0" type="curve"/>
      <point x="61" y="0"/>
      <point x="106" y="0"/>
      <point x="155" y="0" type="curve"/>
      <point x="155" y="30"/>
      <point x="155" y="5"/>
    </contour>
  </outline>
</glyph>
<glyph name="f" format="1">
  <advance width="499"/>
  <unicode hex="0066"/>
  <outline>
    <contour>
      <point x="453" y="773" type="curve"/>
      <point x="453" y="652"/>
      <point x="453" y="777"/>
      <point x="453" y="656" type="curve"/>
      <point x="488" y="656"/>
      <point x="453" y="656"/>
      <point x="488" y="656" type="curve"/>
      <point x="488" y="777"/>
      <point x="488" y="652"/>
      <point x="488" y="773" type="curve"/>
      <point x="453" y="773"/>
      <point x="488" y="773"/>
    </contour>
    <contour>
      <point x="229" y="0" type="curve"/>
      <point x="278" y="0"/>
      <point x="323" y="0"/>
      <point x="372" y="0" type="curve"/>
      <point x="372" y="35"/>
      <point x="372" y="0"/>
      <point x="372" y="35" type="curve"/>
      <point x="223" y="35"/>
      <point x="378" y="35"/>
      <point x="229" y="35" type="curve"/>
      <point x="229" y="0"/>
      <point x="229" y="35"/>
    </contour>
    <contour>
      <point x="229" y="35" type="curve"/>
      <point x="80" y="35"/>
      <point x="235" y="35"/>
      <point x="86" y="35" type="curve"/>
      <point x="86" y="0"/>
      <point x="86" y="35"/>
      <point x="86" y="0" type="curve"/>
      <point x="135" y="0"/>
      <point x="180" y="0"/>
      <point x="229" y="0" type="curve"/>
      <point x="229" y="35"/>
      <point x="229" y="0"/>
    </contour>
    <contour>
      <point x="37" y="498" type="curve"/>
      <point x="458" y="498" type="line"/>
      <point x="458" y="533"/>
      <point x="458" y="498"/>
      <point x="458" y="533" type="curve"/>
      <point x="37" y="533" type="line"/>
      <point x="37" y="498"/>
      <point x="37" y="533"/>
    </contour>
    <contour>
      <point x="250" y="0" type="curve"/>
      <point x="250" y="635" type="line"/>
      <point x="250" y="717"/>
      <point x="294" y="770"/>
      <point x="373" y="770" type="curve"/>
      <point x="407" y="770"/>
      <point x="440" y="759"/>
      <point x="471" y="745" type="curve"/>
      <point x="488" y="773"/>
      <point x="471" y="745"/>
      <point x="488" y="773" type="curve"/>
      <point x="452" y="790"/>
      <point x="412" y="805"/>
      <point x="373" y="805" type="curve"/>
      <point x="270" y="805"/>
      <point x="207" y="739"/>
      <point x="208" y="635" type="curve"/>
      <point x="208" y="0" type="line"/>
      <point x="250" y="0"/>
      <point x="208" y="0"/>
    </contour>
  </outline>
</glyph>
<glyph name="i" format="1">
  <advance width="323"/>
  <unicode hex="0069"/>
  <outline>
    <contour>
      <point x="178" y="35" type="curve"/>
      <point x="28" y="35"/>
      <point x="184" y="35"/>
      <point x="34" y="35" type="curve"/>
      <point x="34" y="0"/>
      <point x="34" y="35"/>
      <point x="34" y="0" type="curve"/>
      <point x="84" y="0"/>
      <point x="128" y="0"/>
      <point x="178" y="0" type="curve"/>
      <point x="178" y="35"/>
      <point x="178" y="0"/>
    </contour>
    <contour>
      <point x="178" y="0" type="curve"/>
      <point x="224" y="0"/>
      <point x="265" y="0"/>
      <point x="312" y="0" type="curve"/>
      <point x="312" y="35"/>
      <point x="312" y="0"/>
      <point x="312" y="35" type="curve"/>
      <point x="172" y="35"/>
      <point x="317" y="35"/>
      <point x="178" y="35" type="curve"/>
      <point x="178" y="0"/>
      <point x="178" y="35"/>
    </contour>
    <contour>
      <point x="178" y="533" type="curve"/>
      <point x="128" y="533"/>
      <point x="84" y="533"/>
      <point x="34" y="533" type="curve"/>
      <point x="34" y="498"/>
      <point x="34" y="533"/>
      <point x="34" y="498" type="curve"/>
      <point x="184" y="498"/>
      <point x="28" y="498"/>
      <point x="178" y="498" type="curve"/>
      <point x="178" y="533"/>
      <point x="178" y="498"/>
    </contour>
    <contour>
      <point x="201" y="0" type="curve"/>
      <point x="201" y="178"/>
      <point x="201" y="355"/>
      <point x="201" y="533" type="curve"/>
      <point x="155" y="533"/>
      <point x="201" y="533"/>
      <point x="155" y="533" type="curve"/>
      <point x="155" y="355"/>
      <point x="155" y="178"/>
      <point x="155" y="0" type="curve"/>
      <point x="201" y="0"/>
      <point x="155" y="0"/>
    </contour>
    <contour>
      <point x="205" y="684" type="curve"/>
      <point x="205" y="701"/>
      <point x="193" y="710"/>
      <point x="176" y="710" type="curve"/>
      <point x="159" y="710"/>
      <point x="149" y="700"/>
      <point x="149" y="684" type="curve"/>
      <point x="194" y="684"/>
      <point x="160" y="684"/>
      <point x="205" y="684" type="curve"/>
      <point x="205" y="667"/>
      <point x="193" y="658"/>
      <point x="176" y="658" type="curve"/>
      <point x="159" y="658"/>
      <point x="149" y="668"/>
      <point x="149" y="684" type="curve"/>
      <point x="194" y="684"/>
      <point x="160" y="684"/>
    </contour>
    <contour>
      <point x="177" y="661" type="move" name="top"/>
    </contour>
    <contour>
      <point x="199" y="1" type="move" name="bottom"/>
    </contour>
  </outline>
</glyph>
<glyph name="j" format="1">
  <advance width="312"/>
  <unicode hex="006A"/>
  <outline>
    <contour>
      <point x="188" y="533" type="curve"/>
      <point x="138" y="533"/>
      <point x="92" y="533"/>
      <point x="42" y="533" type="curve"/>
      <point x="42" y="498"/>
      <point x="42" y="533"/>
      <point x="42" y="498" type="curve"/>
      <point x="192" y="498"/>
      <point x="38" y="498"/>
      <point x="188" y="498" type="curve"/>
      <point x="188" y="533"/>
      <point x="188" y="498"/>
    </contour>
    <contour>
      <point x="3" y="-301" type="curve"/>
      <point x="12" y="-302"/>
      <point x="23" y="-304"/>
      <point x="35" y="-304" type="curve"/>
      <point x="137" y="-304"/>
      <point x="211" y="-241"/>
      <point x="211" y="-139" type="curve"/>
      <point x="211" y="85"/>
      <point x="211" y="309"/>
      <point x="211" y="533" type="curve"/>
      <point x="168" y="533"/>
      <point x="211" y="533"/>
      <point x="168" y="533" type="curve"/>
      <point x="168" y="309"/>
      <point x="168" y="85"/>
      <point x="168" y="-139" type="curve"/>
      <point x="168" y="-215"/>
      <point x="114" y="-268"/>
      <point x="37" y="-268" type="curve"/>
      <point x="28" y="-268"/>
      <point x="16" y="-266"/>
      <point x="10" y="-265" type="curve"/>
      <point x="4" y="-300"/>
      <point x="10" y="-267"/>
    </contour>
    <contour>
      <point x="218" y="684" type="curve"/>
      <point x="218" y="700"/>
      <point x="207" y="709"/>
      <point x="189" y="709" type="curve"/>
      <point x="173" y="709"/>
      <point x="162" y="699"/>
      <point x="162" y="684" type="curve"/>
      <point x="207" y="684"/>
      <point x="173" y="684"/>
      <point x="218" y="684" type="curve"/>
      <point x="218" y="667"/>
      <point x="207" y="658"/>
      <point x="189" y="658" type="curve"/>
      <point x="173" y="658"/>
      <point x="162" y="667"/>
      <point x="162" y="684" type="curve"/>
      <point x="207" y="684"/>
      <point x="173" y="684"/>
    </contour>
  </outline>
</glyph>
<glyph name="k" format="1">
  <advance width="626"/>
  <unicode hex="006B"/>
  <outline>
    <contour>
      <point x="151" y="35" type="curve"/>
      <point x="1" y="35"/>
      <point x="157" y="35"/>
      <point x="7" y="35" type="curve"/>
      <point x="7" y="0"/>
      <point x="7" y="35"/>
      <point x="7" y="0" type="curve"/>
      <point x="57" y="0"/>
      <point x="101" y="0"/>
      <point x="151" y="0" type="curve"/>
      <point x="151" y="35"/>
      <point x="151" y="0"/>
    </contour>
    <contour>
      <point x="470" y="0" type="curve"/>
      <point x="518" y="0"/>
      <point x="560" y="0"/>
      <point x="609" y="0" type="curve"/>
      <point x="609" y="35"/>
      <point x="609" y="0"/>
      <point x="609" y="35" type="curve"/>
      <point x="463" y="35"/>
      <point x="616" y="35"/>
      <point x="470" y="35" type="curve"/>
      <point x="470" y="0"/>
      <point x="470" y="35"/>
    </contour>
    <contour>
      <point x="448" y="498" type="curve"/>
      <point x="578" y="498"/>
      <point x="441" y="498"/>
      <point x="571" y="498" type="curve"/>
      <point x="571" y="533"/>
      <point x="571" y="498"/>
      <point x="571" y="533" type="curve"/>
      <point x="528" y="533"/>
      <point x="491" y="533"/>
      <point x="448" y="533" type="curve"/>
      <point x="448" y="498"/>
      <point x="448" y="533"/>
    </contour>
    <contour>
      <point x="151" y="0" type="curve"/>
      <point x="194" y="0"/>
      <point x="147" y="0"/>
      <point x="276" y="0" type="curve"/>
      <point x="276" y="35"/>
      <point x="276" y="0"/>
      <point x="276" y="35" type="curve"/>
      <point x="147" y="35"/>
      <point x="280" y="35"/>
      <point x="151" y="35" type="curve"/>
      <point x="151" y="0"/>
      <point x="151" y="35"/>
    </contour>
    <contour>
      <point x="452" y="533" type="curve"/>
      <point x="402" y="533"/>
      <point x="356" y="533"/>
      <point x="305" y="533" type="curve"/>
      <point x="305" y="498"/>
      <point x="305" y="533"/>
      <point x="305" y="498" type="curve"/>
      <point x="456" y="498"/>
      <point x="301" y="498"/>
      <point x="452" y="498" type="curve"/>
      <point x="452" y="533"/>
      <point x="452" y="498"/>
    </contour>
    <contour>
      <point x="153" y="800" type="curve"/>
      <point x="103" y="800"/>
      <point x="59" y="800"/>
      <point x="9" y="800" type="curve"/>
      <point x="9" y="765"/>
      <point x="9" y="800"/>
      <point x="9" y="765" type="curve"/>
      <point x="159" y="765"/>
      <point x="3" y="765"/>
      <point x="153" y="765" type="curve"/>
      <point x="153" y="800"/>
      <point x="153" y="765"/>
    </contour>
    <contour>
      <point x="173" y="0" type="curve"/>
      <point x="173" y="800" type="line"/>
      <point x="130" y="800"/>
      <point x="173" y="800"/>
      <point x="130" y="800" type="curve"/>
      <point x="130" y="533"/>
      <point x="130" y="267"/>
      <point x="130" y="0" type="curve"/>
      <point x="173" y="0"/>
      <point x="130" y="0"/>
    </contour>
    <contour>
      <point x="441" y="533" type="curve"/>
      <point x="157" y="275" type="line"/>
      <point x="215" y="275"/>
      <point x="155" y="275"/>
      <point x="214" y="275" type="curve"/>
      <point x="494" y="526" type="line"/>
      <point x="435" y="526"/>
      <point x="500" y="533"/>
    </contour>
    <contour>
      <point x="520" y="9" type="curve"/>
      <point x="214" y="275" type="line"/>
      <point x="155" y="275"/>
      <point x="215" y="275"/>
      <point x="157" y="275" type="curve"/>
      <point x="466" y="0" type="line"/>
      <point x="527" y="0"/>
      <point x="459" y="9"/>
    </contour>
    <contour>
      <point x="370" y="-31" type="move" name="bottom"/>
    </contour>
  </outline>
</glyph>
<glyph name="l" format="1">
  <advance width="319"/>
  <unicode hex="006C"/>
  <outline>
    <contour>
      <point x="160" y="35" type="curve"/>
      <point x="10" y="35"/>
      <point x="160" y="35"/>
      <point x="10" y="35" type="curve"/>
      <point x="10" y="0"/>
      <point x="10" y="35"/>
      <point x="10" y="0" type="curve"/>
      <point x="60" y="0"/>
      <point x="110" y="0"/>
      <point x="160" y="0" type="curve"/>
      <point x="160" y="35"/>
      <point x="160" y="0"/>
    </contour>
    <contour>
      <point x="162" y="800" type="curve"/>
      <point x="112" y="800"/>
      <point x="62" y="800"/>
      <point x="12" y="800" type="curve"/>
      <point x="12" y="765"/>
      <point x="12" y="800"/>
      <point x="12" y="765" type="curve"/>
      <point x="162" y="765"/>
      <point x="12" y="765"/>
      <point x="162" y="765" type="curve"/>
      <point x="162" y="800"/>
      <point x="162" y="765"/>
    </contour>
    <contour>
      <point x="160" y="0" type="curve"/>
      <point x="210" y="0"/>
      <point x="260" y="0"/>
      <point x="310" y="0" type="curve"/>
      <point x="310" y="35"/>
      <point x="310" y="0"/>
      <point x="310" y="35" type="curve"/>
      <point x="160" y="35"/>
      <point x="310" y="35"/>
      <point x="160" y="35" type="curve"/>
      <point x="160" y="0"/>
      <point x="160" y="35"/>
    </contour>
    <contour>
      <point x="180" y="0" type="curve"/>
      <point x="180" y="267"/>
      <point x="180" y="533"/>
      <point x="180" y="800" type="curve"/>
      <point x="138" y="800"/>
      <point x="180" y="800"/>
      <point x="138" y="800" type="curve"/>
      <point x="138" y="533"/>
      <point x="138" y="267"/>
      <point x="138" y="0" type="curve"/>
      <point x="180" y="0"/>
      <point x="138" y="0"/>
    </contour>
    <contour>
      <point x="160" y="899" type="move" name="top"/>
    </contour>
    <contour>
      <point x="173" y="-29" type="move" name="bottom"/>
    </contour>
  </outline>
</glyph>
<glyph name="m" format="1">
  <advance width="1027"/>
  <unicode hex="006D"/>
  <outline>
    <contour>
      <point x="528" y="0" type="curve"/>
      <point x="650" y="0"/>
      <point x="529" y="0"/>
      <point x="650" y="0" type="curve"/>
      <point x="650" y="35"/>
      <point x="650" y="0"/>
      <point x="650" y="35" type="curve"/>
      <point x="529" y="35"/>
      <point x="650" y="35"/>
      <point x="528" y="35" type="curve"/>
      <point x="528" y="0"/>
      <point x="528" y="35"/>
    </contour>
    <contour>
      <point x="876" y="0" type="curve"/>
      <point x="924" y="0"/>
      <point x="969" y="0"/>
      <point x="1017" y="0" type="curve"/>
      <point x="1017" y="35"/>
      <point x="1017" y="0"/>
      <point x="1017" y="35" type="curve"/>
      <point x="872" y="35"/>
      <point x="1021" y="35"/>
      <point x="876" y="35" type="curve"/>
      <point x="876" y="0"/>
      <point x="876" y="35"/>
    </contour>
    <contour>
      <point x="181" y="35" type="curve"/>
      <point x="34" y="35"/>
      <point x="185" y="35"/>
      <point x="38" y="35" type="curve"/>
      <point x="38" y="0"/>
      <point x="38" y="35"/>
      <point x="38" y="0" type="curve"/>
      <point x="87" y="0"/>
      <point x="133" y="0"/>
      <point x="181" y="0" type="curve"/>
      <point x="181" y="35"/>
      <point x="181" y="0"/>
    </contour>
    <contour>
      <point x="181" y="0" type="curve"/>
      <point x="224" y="0"/>
      <point x="174" y="0"/>
      <point x="300" y="0" type="curve"/>
      <point x="300" y="35"/>
      <point x="300" y="0"/>
      <point x="300" y="35" type="curve"/>
      <point x="174" y="35"/>
      <point x="308" y="35"/>
      <point x="181" y="35" type="curve"/>
      <point x="181" y="0"/>
      <point x="181" y="35"/>
    </contour>
    <contour>
      <point x="181" y="533" type="curve"/>
      <point x="133" y="533"/>
      <point x="87" y="533"/>
      <point x="38" y="533" type="curve"/>
      <point x="38" y="498"/>
      <point x="38" y="533"/>
      <point x="38" y="498" type="curve"/>
      <point x="185" y="498"/>
      <point x="34" y="498"/>
      <point x="181" y="498" type="curve"/>
      <point x="181" y="533"/>
      <point x="181" y="498"/>
    </contour>
    <contour>
      <point x="540" y="341" type="curve"/>
      <point x="576" y="432"/>
      <point x="635" y="502"/>
      <point x="723" y="502" type="curve"/>
      <point x="824" y="502"/>
      <point x="853" y="443"/>
      <point x="853" y="336" type="curve"/>
      <point x="853" y="225"/>
      <point x="853" y="112"/>
      <point x="853" y="0" type="curve"/>
      <point x="896" y="0"/>
      <point x="853" y="0"/>
      <point x="896" y="0" type="curve"/>
      <point x="896" y="114"/>
      <point x="896" y="227"/>
      <point x="896" y="340" type="curve"/>
      <point x="896" y="468"/>
      <point x="856" y="538"/>
      <point x="733" y="538" type="curve"/>
      <point x="626" y="538"/>
      <point x="556" y="466"/>
      <point x="521" y="359" type="curve"/>
      <point x="540" y="341"/>
      <point x="520" y="359"/>
    </contour>
    <contour>
      <point x="194" y="341" type="curve"/>
      <point x="229" y="432"/>
      <point x="286" y="503"/>
      <point x="376" y="503" type="curve"/>
      <point x="476" y="503"/>
      <point x="507" y="443"/>
      <point x="507" y="336" type="curve"/>
      <point x="507" y="225"/>
      <point x="507" y="112"/>
      <point x="507" y="0" type="curve"/>
      <point x="550" y="0"/>
      <point x="507" y="0"/>
      <point x="550" y="0" type="curve"/>
      <point x="550" y="114"/>
      <point x="550" y="227"/>
      <point x="550" y="340" type="curve"/>
      <point x="550" y="468"/>
      <point x="509" y="538"/>
      <point x="387" y="538" type="curve"/>
      <point x="278" y="538"/>
      <point x="212" y="468"/>
      <point x="174" y="360" type="curve"/>
      <point x="194" y="341"/>
      <point x="174" y="359"/>
    </contour>
    <contour>
      <point x="203" y="0" type="curve"/>
      <point x="203" y="178"/>
      <point x="203" y="355"/>
      <point x="203" y="533" type="curve"/>
      <point x="160" y="533"/>
      <point x="203" y="533"/>
      <point x="160" y="533" type="curve"/>
      <point x="160" y="355"/>
      <point x="160" y="178"/>
      <point x="160" y="0" type="curve"/>
      <point x="203" y="0"/>
      <point x="160" y="0"/>
    </contour>
  </outline>
</glyph>
<glyph name="o" format="1">
  <advance width="616"/>
  <unicode hex="006F"/>
  <outline>
    <contour>
      <point x="104" y="268" type="curve"/>
      <point x="104" y="410"/>
      <point x="171" y="503"/>
      <point x="304" y="503" type="curve"/>
      <point x="442" y="503"/>
      <point x="510" y="409"/>
      <point x="510" y="266" type="curve"/>
      <point x="510" y="124"/>
      <point x="442" y="31"/>
      <point x="309" y="31" type="curve"/>
      <point x="170" y="31"/>
      <point x="104" y="125"/>
      <point x="104" y="268" type="curve"/>
      <point x="71" y="268"/>
      <point x="95" y="268"/>
      <point x="62" y="268" type="curve"/>
      <point x="62" y="102"/>
      <point x="146" y="-5"/>
      <point x="307" y="-5" type="curve"/>
      <point x="469" y="-5"/>
      <point x="553" y="100"/>
      <point x="553" y="266" type="curve"/>
      <point x="553" y="431"/>
      <point x="468" y="538"/>
      <point x="306" y="538" type="curve"/>
      <point x="145" y="538"/>
      <point x="62" y="431"/>
      <point x="62" y="268" type="curve"/>
      <point x="95" y="268"/>
      <point x="71" y="268"/>
    </contour>
    <contour>
      <point x="304" y="662" type="move" name="top"/>
    </contour>
  </outline>
</glyph>
<glyph name="p" format="1">
  <advance width="679"/>
  <unicode hex="0070"/>
  <outline>
    <contour>
      <point x="154" y="-265" type="curve"/>
      <point x="0" y="-265"/>
      <point x="160" y="-265"/>
      <point x="6" y="-265" type="curve"/>
      <point x="6" y="-300"/>
      <point x="6" y="-265"/>
      <point x="6" y="-300" type="curve"/>
      <point x="58" y="-300"/>
      <point x="103" y="-300"/>
      <point x="154" y="-300" type="curve"/>
      <point x="154" y="-265"/>
      <point x="154" y="-300"/>
    </contour>
    <contour>
      <point x="154" y="-300" type="curve"/>
      <point x="202" y="-300"/>
      <point x="244" y="-300"/>
      <point x="292" y="-300" type="curve"/>
      <point x="292" y="-265"/>
      <point x="292" y="-300"/>
      <point x="292" y="-265" type="curve"/>
      <point x="148" y="-265"/>
      <point x="298" y="-265"/>
      <point x="154" y="-265" type="curve"/>
      <point x="154" y="-300"/>
      <point x="154" y="-265"/>
    </contour>
    <contour>
      <point x="156" y="533" type="curve"/>
      <point x="104" y="533"/>
      <point x="59" y="533"/>
      <point x="8" y="533" type="curve"/>
      <point x="8" y="498"/>
      <point x="8" y="533"/>
      <point x="8" y="498" type="curve"/>
      <point x="162" y="498"/>
      <point x="2" y="498"/>
      <point x="156" y="498" type="curve"/>
      <point x="156" y="533"/>
      <point x="156" y="498"/>
    </contour>
    <contour>
      <point x="164" y="396" type="curve"/>
      <point x="203" y="451"/>
      <point x="283" y="503"/>
      <point x="375" y="503" type="curve"/>
      <point x="505" y="503"/>
      <point x="574" y="407"/>
      <point x="574" y="274" type="curve"/>
      <point x="577" y="133"/>
      <point x="507" y="29"/>
      <point x="375" y="30" type="curve"/>
      <point x="288" y="30"/>
      <point x="226" y="70"/>
      <point x="166" y="131" type="curve"/>
      <point x="147" y="115"/>
      <point x="163" y="126"/>
      <point x="144" y="110" type="curve"/>
      <point x="209" y="38"/>
      <point x="279" y="-5"/>
      <point x="379" y="-5" type="curve"/>
      <point x="537" y="-5"/>
      <point x="617" y="114"/>
      <point x="617" y="276" type="curve"/>
      <point x="617" y="429"/>
      <point x="533" y="538"/>
      <point x="380" y="538" type="curve"/>
      <point x="276" y="538"/>
      <point x="192" y="486"/>
      <point x="146" y="424" type="curve"/>
      <point x="163" y="401"/>
      <point x="148" y="419"/>
    </contour>
    <contour>
      <point x="176" y="-300" type="curve"/>
      <point x="176" y="-22"/>
      <point x="176" y="255"/>
      <point x="176" y="533" type="curve"/>
      <point x="133" y="533"/>
      <point x="176" y="533"/>
      <point x="133" y="533" type="curve"/>
      <point x="133" y="255"/>
      <point x="133" y="-22"/>
      <point x="133" y="-300" type="curve"/>
      <point x="176" y="-300"/>
      <point x="133" y="-300"/>
    </contour>
  </outline>
</glyph>
<glyph name="t" format="1">
  <advance width="447"/>
  <unicode hex="0074"/>
  <outline>
    <contour>
      <point x="20" y="498" type="curve"/>
      <point x="424" y="498" type="line"/>
      <point x="424" y="533"/>
      <point x="424" y="498"/>
      <point x="424" y="533" type="curve"/>
      <point x="20" y="533" type="line"/>
      <point x="20" y="498"/>
      <point x="20" y="533"/>
    </contour>
    <contour>
      <point x="399" y="59" type="curve"/>
      <point x="365" y="42"/>
      <point x="340" y="32"/>
      <point x="302" y="32" type="curve"/>
      <point x="233" y="32"/>
      <point x="202" y="73"/>
      <point x="202" y="150" type="curve"/>
      <point x="202" y="678" type="line"/>
      <point x="181" y="665"/>
      <point x="180" y="662"/>
      <point x="159" y="649" type="curve"/>
      <point x="159" y="147" type="line"/>
      <point x="159" y="49"/>
      <point x="205" y="-5"/>
      <point x="298" y="-5" type="curve"/>
      <point x="344" y="-5"/>
      <point x="375" y="7"/>
      <point x="415" y="27" type="curve"/>
      <point x="399" y="59"/>
      <point x="415" y="27"/>
    </contour>
    <contour>
      <point x="307" y="-31" type="move" name="bottom"/>
    </contour>
  </outline>
</glyph>
<glyph name="v" format="1">
  <advance width="708"/>
  <unicode hex="0076"/>
  <outline>
    <contour>
      <point x="143" y="533" type="curve"/>
      <point x="96" y="533"/>
      <point x="51" y="533"/>
      <point x="4" y="533" type="curve"/>
      <point x="4" y="498"/>
      <point x="4" y="533"/>
      <point x="4" y="498" type="curve"/>
      <point x="147" y="498"/>
      <point x="1" y="498"/>
      <point x="143" y="498" type="curve"/>
      <point x="143" y="533"/>
      <point x="143" y="498"/>
    </contour>
    <contour>
      <point x="143" y="498" type="curve"/>
      <point x="278" y="498"/>
      <point x="140" y="498"/>
      <point x="275" y="498" type="curve"/>
      <point x="275" y="533"/>
      <point x="275" y="498"/>
      <point x="275" y="533" type="curve"/>
      <point x="230" y="533"/>
      <point x="188" y="533"/>
      <point x="143" y="533" type="curve"/>
      <point x="143" y="498"/>
      <point x="143" y="533"/>
    </contour>
    <contour>
      <point x="569" y="533" type="curve"/>
      <point x="523" y="533"/>
      <point x="480" y="533"/>
      <point x="433" y="533" type="curve"/>
      <point x="433" y="498"/>
      <point x="433" y="533"/>
      <point x="433" y="498" type="curve"/>
      <point x="572" y="498"/>
      <point x="430" y="498"/>
      <point x="569" y="498" type="curve"/>
      <point x="569" y="533"/>
      <point x="569" y="498"/>
    </contour>
    <contour>
      <point x="569" y="498" type="curve"/>
      <point x="708" y="498"/>
      <point x="566" y="498"/>
      <point x="705" y="498" type="curve"/>
      <point x="705" y="533"/>
      <point x="705" y="498"/>
      <point x="705" y="533" type="curve"/>
      <point x="658" y="533"/>
      <point x="616" y="533"/>
      <point x="569" y="533" type="curve"/>
      <point x="569" y="498"/>
      <point x="569" y="533"/>
    </contour>
    <contour>
      <point x="109" y="533" type="curve"/>
      <point x="181" y="355"/>
      <point x="254" y="178"/>
      <point x="326" y="0" type="curve"/>
      <point x="369" y="0"/>
      <point x="326" y="0"/>
      <point x="369" y="0" type="curve"/>
      <point x="297" y="178"/>
      <point x="226" y="355"/>
      <point x="155" y="533" type="curve"/>
      <point x="109" y="533"/>
      <point x="155" y="533"/>
    </contour>
    <contour>
      <point x="559" y="533" type="curve"/>
      <point x="333" y="0" type="line"/>
      <point x="376" y="0"/>
      <point x="333" y="0"/>
      <point x="376" y="0" type="curve"/>
      <point x="452" y="178"/>
      <point x="527" y="355"/>
      <point x="603" y="533" type="curve"/>
      <point x="559" y="533"/>
      <point x="603" y="533"/>
    </contour>
  </outline>
</glyph>
<glyph name="w" format="1">
  <advance width="1051"/>
  <unicode hex="0077"/>
  <outline>
    <contour>
      <point x="906" y="498" type="curve"/>
      <point x="1051" y="498"/>
      <point x="902" y="498"/>
      <point x="1047" y="498" type="curve"/>
      <point x="1047" y="533"/>
      <point x="1047" y="498"/>
      <point x="1047" y="533" type="curve"/>
      <point x="999" y="533"/>
      <point x="954" y="533"/>
      <point x="906" y="533" type="curve"/>
      <point x="906" y="498"/>
      <point x="906" y="533"/>
    </contour>
    <contour>
      <point x="906" y="533" type="curve"/>
      <point x="858" y="533"/>
      <point x="820" y="533"/>
      <point x="772" y="533" type="curve"/>
      <point x="772" y="498"/>
      <point x="772" y="533"/>
      <point x="772" y="498" type="curve"/>
      <point x="917" y="498"/>
      <point x="761" y="498"/>
      <point x="906" y="498" type="curve"/>
      <point x="906" y="533"/>
      <point x="906" y="498"/>
    </contour>
    <contour>
      <point x="145" y="533" type="curve"/>
      <point x="97" y="533"/>
      <point x="52" y="533"/>
      <point x="4" y="533" type="curve"/>
      <point x="4" y="498"/>
      <point x="4" y="533"/>
      <point x="4" y="498" type="curve"/>
      <point x="149" y="498"/>
      <point x="0" y="498"/>
      <point x="145" y="498" type="curve"/>
      <point x="145" y="533"/>
      <point x="145" y="498"/>
    </contour>
    <contour>
      <point x="145" y="498" type="curve"/>
      <point x="290" y="498"/>
      <point x="138" y="498"/>
      <point x="282" y="498" type="curve"/>
      <point x="282" y="533"/>
      <point x="282" y="498"/>
      <point x="282" y="533" type="curve"/>
      <point x="234" y="533"/>
      <point x="193" y="533"/>
      <point x="145" y="533" type="curve"/>
      <point x="145" y="498"/>
      <point x="145" y="533"/>
    </contour>
    <contour>
      <point x="339" y="0" type="curve"/>
      <point x="410" y="178"/>
      <point x="480" y="355"/>
      <point x="551" y="533" type="curve"/>
      <point x="507" y="533"/>
      <point x="551" y="533"/>
      <point x="507" y="533" type="curve"/>
      <point x="438" y="355"/>
      <point x="368" y="178"/>
      <point x="299" y="0" type="curve"/>
      <point x="339" y="0"/>
      <point x="299" y="0"/>
    </contour>
    <contour>
      <point x="901" y="533" type="curve"/>
      <point x="836" y="355"/>
      <point x="771" y="178"/>
      <point x="706" y="0" type="curve"/>
      <point x="746" y="0"/>
      <point x="706" y="0"/>
      <point x="746" y="0" type="curve"/>
      <point x="812" y="178"/>
      <point x="878" y="355"/>
      <point x="945" y="533" type="curve"/>
      <point x="901" y="533"/>
      <point x="945" y="533"/>
    </contour>
    <contour>
      <point x="514" y="533" type="curve"/>
      <point x="578" y="355"/>
      <point x="641" y="178"/>
      <point x="704" y="0" type="curve"/>
      <point x="745" y="0"/>
      <point x="704" y="0"/>
      <point x="745" y="0" type="curve"/>
      <point x="682" y="178"/>
      <point x="619" y="355"/>
      <point x="556" y="533" type="curve"/>
      <point x="514" y="533"/>
      <point x="556" y="533"/>
    </contour>
    <contour>
      <point x="107" y="533" type="curve"/>
      <point x="171" y="355"/>
      <point x="234" y="178"/>
      <point x="298" y="0" type="curve"/>
      <point x="338" y="0"/>
      <point x="298" y="0"/>
      <point x="338" y="0" type="curve"/>
      <point x="275" y="178"/>
      <point x="213" y="355"/>
      <point x="150" y="533" type="curve"/>
      <point x="107" y="533"/>
      <point x="150" y="533"/>
    </contour>
  </outline>
</glyph>
<glyph name="x" format="1">
  <advance width="718"/>
  <unicode hex="0078"/>
  <outline>
    <contour>
      <point x="144" y="35" type="curve"/>
      <point x="1" y="35"/>
      <point x="150" y="35"/>
      <point x="7" y="35" type="curve"/>
      <point x="7" y="0"/>
      <point x="7" y="35"/>
      <point x="7" y="0" type="curve"/>
      <point x="55" y="0"/>
      <point x="97" y="0"/>
      <point x="144" y="0" type="curve"/>
      <point x="144" y="35"/>
      <point x="144" y="0"/>
    </contour>
    <contour>
      <point x="575" y="35" type="curve"/>
      <point x="427" y="35"/>
      <point x="583" y="35"/>
      <point x="434" y="35" type="curve"/>
      <point x="434" y="0"/>
      <point x="434" y="35"/>
      <point x="434" y="0" type="curve"/>
      <point x="483" y="0"/>
      <point x="526" y="0"/>
      <point x="575" y="0" type="curve"/>
      <point x="575" y="35"/>
      <point x="575" y="0"/>
    </contour>
    <contour>
      <point x="574" y="0" type="curve"/>
      <point x="621" y="0"/>
      <point x="664" y="0"/>
      <point x="711" y="0" type="curve"/>
      <point x="711" y="35"/>
      <point x="711" y="0"/>
      <point x="711" y="35" type="curve"/>
      <point x="569" y="35"/>
      <point x="716" y="35"/>
      <point x="574" y="35" type="curve"/>
      <point x="574" y="0"/>
      <point x="574" y="35"/>
    </contour>
    <contour>
      <point x="143" y="0" type="curve"/>
      <point x="192" y="0"/>
      <point x="136" y="0"/>
      <point x="284" y="0" type="curve"/>
      <point x="284" y="35"/>
      <point x="284" y="0"/>
      <point x="284" y="35" type="curve"/>
      <point x="136" y="35"/>
      <point x="292" y="35"/>
      <point x="143" y="35" type="curve"/>
      <point x="143" y="0"/>
      <point x="143" y="35"/>
    </contour>
    <contour>
      <point x="555" y="498" type="curve"/>
      <point x="699" y="498"/>
      <point x="550" y="498"/>
      <point x="694" y="498" type="curve"/>
      <point x="694" y="533"/>
      <point x="694" y="498"/>
      <point x="694" y="533" type="curve"/>
      <point x="646" y="533"/>
      <point x="603" y="533"/>
      <point x="555" y="533" type="curve"/>
      <point x="555" y="498"/>
      <point x="555" y="533"/>
    </contour>
    <contour>
      <point x="168" y="533" type="curve"/>
      <point x="120" y="533"/>
      <point x="77" y="533"/>
      <point x="30" y="533" type="curve"/>
      <point x="30" y="498"/>
      <point x="30" y="533"/>
      <point x="30" y="498" type="curve"/>
      <point x="174" y="498"/>
      <point x="24" y="498"/>
      <point x="168" y="498" type="curve"/>
      <point x="168" y="533"/>
      <point x="168" y="498"/>
    </contour>
    <contour>
      <point x="164" y="498" type="curve"/>
      <point x="310" y="498"/>
      <point x="152" y="498"/>
      <point x="298" y="498" type="curve"/>
      <point x="298" y="533"/>
      <point x="298" y="498"/>
      <point x="298" y="533" type="curve"/>
      <point x="249" y="533"/>
      <point x="213" y="533"/>
      <point x="164" y="533" type="curve"/>
      <point x="164" y="498"/>
      <point x="164" y="533"/>
    </contour>
    <contour>
      <point x="557" y="533" type="curve"/>
      <point x="509" y="533"/>
      <point x="473" y="533"/>
      <point x="425" y="533" type="curve"/>
      <point x="425" y="498"/>
      <point x="425" y="533"/>
      <point x="425" y="498" type="curve"/>
      <point x="569" y="498"/>
      <point x="413" y="498"/>
      <point x="557" y="498" type="curve"/>
      <point x="557" y="533"/>
      <point x="557" y="498"/>
    </contour>
    <contour>
      <point x="609" y="7" type="curve"/>
      <point x="484" y="159"/>
      <point x="296" y="381"/>
      <point x="171" y="533" type="curve"/>
      <point x="128" y="533"/>
      <point x="174" y="525"/>
      <point x="131" y="525" type="curve"/>
      <point x="254" y="373"/>
      <point x="441" y="152"/>
      <point x="564" y="0" type="curve"/>
      <point x="612" y="0"/>
      <point x="561" y="7"/>
    </contour>
    <contour>
      <point x="554" y="533" type="curve"/>
      <point x="428" y="381"/>
      <point x="235" y="160"/>
      <point x="110" y="8" type="curve"/>
      <point x="158" y="8"/>
      <point x="107" y="0"/>
      <point x="155" y="0" type="curve"/>
      <point x="279" y="152"/>
      <point x="469" y="373"/>
      <point x="593" y="525" type="curve"/>
      <point x="550" y="525"/>
      <point x="597" y="533"/>
    </contour>
  </outline>
</glyph>
<glyph name="braceleft" format="1">
  <advance width="330"/>
  <unicode hex="007B"/>
  <outline>
    <contour>
      <point x="281" y="-86" type="curve"/>
      <point x="212" y="-86"/>
      <point x="179" y="-39"/>
      <point x="179" y="32" type="curve"/>
      <point x="179" y="90"/>
      <point x="179" y="148"/>
      <point x="179" y="205" type="curve"/>
      <point x="179" y="296"/>
      <point x="129" y="357"/>
      <point x="40" y="357" type="curve"/>
      <point x="40" y="321"/>
      <point x="40" y="357"/>
      <point x="40" y="321" type="curve"/>
      <point x="106" y="321"/>
      <point x="141" y="277"/>
      <point x="141" y="209" type="curve"/>
      <point x="141" y="151"/>
      <point x="141" y="92"/>
      <point x="141" y="34" type="curve"/>
      <point x="141" y="-60"/>
      <point x="190" y="-121"/>
      <point x="281" y="-121" type="curve"/>
      <point x="281" y="-86"/>
      <point x="281" y="-121"/>
    </contour>
    <contour>
      <point x="281" y="798" type="curve"/>
      <point x="190" y="798"/>
      <point x="140" y="738"/>
      <point x="140" y="645" type="curve"/>
      <point x="140" y="585"/>
      <point x="140" y="526"/>
      <point x="140" y="467" type="curve"/>
      <point x="140" y="400"/>
      <point x="105" y="357"/>
      <point x="40" y="357" type="curve"/>
      <point x="40" y="321"/>
      <point x="40" y="357"/>
      <point x="40" y="321" type="curve"/>
      <point x="129" y="321"/>
      <point x="179" y="380"/>
      <point x="179" y="472" type="curve"/>
      <point x="179" y="529"/>
      <point x="179" y="587"/>
      <point x="179" y="645" type="curve"/>
      <point x="179" y="715"/>
      <point x="212" y="763"/>
      <point x="281" y="763" type="curve"/>
      <point x="281" y="798"/>
      <point x="281" y="763"/>
    </contour>
  </outline>
</glyph>
<glyph name="braceright" format="1">
  <advance width="330"/>
  <unicode hex="007D"/>
  <outline>
    <contour>
      <point x="49" y="-122" type="curve"/>
      <point x="140" y="-122"/>
      <point x="189" y="-60"/>
      <point x="189" y="34" type="curve"/>
      <point x="189" y="92"/>
      <point x="189" y="151"/>
      <point x="189" y="209" type="curve"/>
      <point x="189" y="276"/>
      <point x="224" y="320"/>
      <point x="290" y="320" type="curve"/>
      <point x="290" y="357"/>
      <point x="290" y="320"/>
      <point x="290" y="357" type="curve"/>
      <point x="201" y="357"/>
      <point x="151" y="296"/>
      <point x="151" y="205" type="curve"/>
      <point x="151" y="148"/>
      <point x="151" y="90"/>
      <point x="151" y="32" type="curve"/>
      <point x="151" y="-39"/>
      <point x="118" y="-87"/>
      <point x="49" y="-87" type="curve"/>
      <point x="49" y="-122"/>
      <point x="49" y="-87"/>
    </contour>
    <contour>
      <point x="49" y="763" type="curve"/>
      <point x="118" y="763"/>
      <point x="150" y="715"/>
      <point x="150" y="645" type="curve"/>
      <point x="150" y="587"/>
      <point x="150" y="529"/>
      <point x="150" y="472" type="curve"/>
      <point x="150" y="380"/>
      <point x="201" y="320"/>
      <point x="290" y="320" type="curve"/>
      <point x="290" y="357"/>
      <point x="290" y="320"/>
      <point x="290" y="357" type="curve"/>
      <point x="224" y="357"/>
      <point x="189" y="399"/>
      <point x="189" y="467" type="curve"/>
      <point x="189" y="526"/>
      <point x="189" y="585"/>
      <point x="189" y="645" type="curve"/>
      <point x="189" y="738"/>
      <point x="140" y="798"/>
      <point x="49" y="798" type="curve"/>
      <point x="49" y="763"/>
      <point x="49" y="798"/>
    </contour>
  </outline>
</glyph>
<glyph name="asciitilde" format="1">
  <advance width="706"/>
  <unicode hex="007E"/>
  <outline>
    <contour>
      <point x="585" y="349" type="curve"/>
      <point x="567" y="301"/>
      <point x="542" y="251"/>
      <point x="483" y="251" type="curve"/>
      <point x="435" y="251"/>
      <point x="403" y="266"/>
      <point x="366" y="296" type="curve"/>
      <point x="322" y="331"/>
      <point x="288" y="352"/>
      <point x="233" y="352" type="curve"/>
      <point x="148" y="352"/>
      <point x="109" y="307"/>
      <point x="87" y="229" type="curve"/>
      <point x="110" y="220"/>
      <point x="97" y="224"/>
      <point x="120" y="216" type="curve"/>
      <point x="137" y="273"/>
      <point x="166" y="317"/>
      <point x="230" y="317" type="curve"/>
      <point x="274" y="317"/>
      <point x="301" y="302"/>
      <point x="334" y="275" type="curve"/>
      <point x="382" y="238"/>
      <point x="419" y="216"/>
      <point x="481" y="216" type="curve"/>
      <point x="562" y="216"/>
      <point x="594" y="267"/>
      <point x="620" y="338" type="curve"/>
      <point x="596" y="345"/>
      <point x="609" y="342"/>
    </contour>
  </outline>
</glyph>
<glyph name="exclamdown" format="1">
  <advance width="231"/>
  <unicode hex="00A1"/>
  <outline>
    <contour>
      <point x="96" y="306" type="line"/>
      <point x="90" y="-187" type="line"/>
      <point x="141" y="-187" type="line"/>
      <point x="135" y="306" type="line"/>
    </contour>
    <contour>
      <point x="87" y="516" type="curve"/>
      <point x="87" y="499"/>
      <point x="99" y="490"/>
      <point x="116" y="490" type="curve"/>
      <point x="132" y="490"/>
      <point x="143" y="500"/>
      <point x="143" y="516" type="curve"/>
      <point x="98" y="516"/>
      <point x="132" y="516"/>
      <point x="87" y="516" type="curve"/>
      <point x="87" y="533"/>
      <point x="99" y="542"/>
      <point x="116" y="541" type="curve"/>
      <point x="133" y="541"/>
      <point x="143" y="532"/>
      <point x="143" y="516" type="curve"/>
      <point x="98" y="516"/>
      <point x="132" y="516"/>
    </contour>
  </outline>
</glyph>
<glyph name="cent" format="1">
  <advance width="659"/>
  <unicode hex="00A2"/>
  <outline>
    <contour>
      <point x="365" y="-53" type="curve"/>
      <point x="365" y="-13"/>
      <point x="365" y="27"/>
      <point x="365" y="67" type="curve"/>
      <point x="322" y="67"/>
      <point x="365" y="67"/>
      <point x="322" y="67" type="curve"/>
      <point x="322" y="27"/>
      <point x="322" y="-13"/>
      <point x="322" y="-53" type="curve"/>
      <point x="365" y="-53"/>
      <point x="322" y="-53"/>
    </contour>
    <contour>
      <point x="344" y="778" type="curve"/>
      <point x="344" y="742"/>
      <point x="344" y="706"/>
      <point x="344" y="670" type="curve"/>
      <point x="386" y="670"/>
      <point x="344" y="670"/>
      <point x="386" y="670" type="curve"/>
      <point x="386" y="706"/>
      <point x="386" y="742"/>
      <point x="386" y="778" type="curve"/>
      <point x="344" y="778"/>
      <point x="386" y="778"/>
    </contour>
    <contour>
      <point x="598" y="608" type="curve"/>
      <point x="523" y="659"/>
      <point x="460" y="680"/>
      <point x="370" y="680" type="curve"/>
      <point x="176" y="680"/>
      <point x="60" y="560"/>
      <point x="60" y="366" type="curve"/>
      <point x="60" y="179"/>
      <point x="158" y="53"/>
      <point x="340" y="53" type="curve"/>
      <point x="443" y="53"/>
      <point x="514" y="83"/>
      <point x="596" y="146" type="curve"/>
      <point x="570" y="174"/>
      <point x="596" y="146"/>
      <point x="570" y="174" type="curve"/>
      <point x="498" y="117"/>
      <point x="436" y="89"/>
      <point x="344" y="89" type="curve"/>
      <point x="185" y="89"/>
      <point x="102" y="202"/>
      <point x="102" y="367" type="curve"/>
      <point x="102" y="537"/>
      <point x="201" y="644"/>
      <point x="366" y="644" type="curve"/>
      <point x="449" y="644"/>
      <point x="506" y="625"/>
      <point x="575" y="579" type="curve"/>
      <point x="598" y="608"/>
      <point x="575" y="579"/>
    </contour>
    <contour>
      <point x="562" y="608" type="curve"/>
      <point x="562" y="487"/>
      <point x="562" y="604"/>
      <point x="562" y="483" type="curve"/>
      <point x="598" y="483"/>
      <point x="562" y="483"/>
      <point x="598" y="483" type="curve"/>
      <point x="598" y="604"/>
      <point x="598" y="487"/>
      <point x="598" y="608" type="curve"/>
      <point x="562" y="608"/>
      <point x="598" y="608"/>
    </contour>
  </outline>
</glyph>
<glyph name="sterling" format="1">
  <advance width="540"/>
  <unicode hex="00A3"/>
  <outline>
    <contour>
      <point x="469" y="35" type="curve"/>
      <point x="327" y="35"/>
      <point x="188" y="35"/>
      <point x="48" y="35" type="curve"/>
      <point x="48" y="0"/>
      <point x="48" y="35"/>
      <point x="48" y="0" type="curve"/>
      <point x="188" y="0"/>
      <point x="328" y="0"/>
      <point x="469" y="0" type="curve"/>
      <point x="469" y="35"/>
      <point x="469" y="0"/>
    </contour>
    <contour>
      <point x="419" y="394" type="curve"/>
      <point x="308" y="394"/>
      <point x="195" y="394"/>
      <point x="84" y="394" type="curve"/>
      <point x="84" y="359"/>
      <point x="84" y="394"/>
      <point x="84" y="359" type="curve"/>
      <point x="195" y="359"/>
      <point x="308" y="359"/>
      <point x="419" y="359" type="curve"/>
      <point x="419" y="394"/>
      <point x="419" y="359"/>
    </contour>
    <contour>
      <point x="484" y="673" type="curve"/>
      <point x="436" y="707"/>
      <point x="397" y="723"/>
      <point x="340" y="723" type="curve"/>
      <point x="179" y="723"/>
      <point x="133" y="563"/>
      <point x="175" y="373" type="curve"/>
      <point x="213" y="195"/>
      <point x="190" y="35"/>
      <point x="48" y="35" type="curve"/>
      <point x="48" y="0"/>
      <point x="48" y="35"/>
      <point x="48" y="0" type="curve"/>
      <point x="224" y="0"/>
      <point x="259" y="177"/>
      <point x="216" y="380" type="curve"/>
      <point x="181" y="544"/>
      <point x="213" y="689"/>
      <point x="337" y="689" type="curve"/>
      <point x="388" y="689"/>
      <point x="421" y="675"/>
      <point x="462" y="647" type="curve"/>
      <point x="484" y="673"/>
      <point x="462" y="647"/>
    </contour>
  </outline>
</glyph>
<glyph name="currency" format="1">
  <advance width="655"/>
  <unicode hex="00A4"/>
  <outline>
    <contour>
      <point x="195" y="311" type="curve"/>
      <point x="195" y="395"/>
      <point x="244" y="449"/>
      <point x="328" y="449" type="curve"/>
      <point x="413" y="449"/>
      <point x="459" y="395"/>
      <point x="459" y="311" type="curve"/>
      <point x="459" y="226"/>
      <point x="415" y="167"/>
      <point x="332" y="167" type="curve"/>
      <point x="244" y="167"/>
      <point x="195" y="223"/>
      <point x="195" y="311" type="curve"/>
      <point x="152" y="311"/>
      <point x="195" y="311"/>
      <point x="153" y="311" type="curve"/>
      <point x="153" y="200"/>
      <point x="220" y="132"/>
      <point x="331" y="132" type="curve"/>
      <point x="439" y="132"/>
      <point x="502" y="204"/>
      <point x="502" y="312" type="curve"/>
      <point x="502" y="418"/>
      <point x="437" y="484"/>
      <point x="332" y="484" type="curve"/>
      <point x="221" y="484"/>
      <point x="153" y="420"/>
      <point x="153" y="311" type="curve"/>
      <point x="195" y="311"/>
      <point x="152" y="311"/>
    </contour>
    <contour>
      <point x="448" y="402" type="line"/>
      <point x="588" y="536" type="line"/>
      <point x="553" y="571" type="line"/>
      <point x="419" y="431" type="line"/>
    </contour>
    <contour>
      <point x="419" y="190" type="line"/>
      <point x="553" y="50" type="line"/>
      <point x="588" y="85" type="line"/>
      <point x="448" y="219" type="line"/>
    </contour>
    <contour>
      <point x="205" y="220" type="line"/>
      <point x="65" y="86" type="line"/>
      <point x="99" y="51" type="line"/>
      <point x="234" y="191" type="line"/>
    </contour>
    <contour>
      <point x="236" y="432" type="line"/>
      <point x="102" y="572" type="line"/>
      <point x="67" y="537" type="line"/>
      <point x="207" y="403" type="line"/>
    </contour>
  </outline>
</glyph>
<glyph name="yen" format="1">
  <advance width="847"/>
  <unicode hex="00A5"/>
  <outline>
    <contour>
      <point x="654" y="381" type="curve"/>
      <point x="580" y="381"/>
      <point x="507" y="381"/>
      <point x="434" y="381" type="curve"/>
      <point x="434" y="342"/>
      <point x="434" y="381"/>
      <point x="434" y="342" type="curve"/>
      <point x="507" y="342"/>
      <point x="580" y="342"/>
      <point x="654" y="342" type="curve"/>
      <point x="654" y="381"/>
      <point x="654" y="342"/>
    </contour>
    <contour>
      <point x="404" y="381" type="curve"/>
      <point x="331" y="381"/>
      <point x="259" y="381"/>
      <point x="187" y="381" type="curve"/>
      <point x="187" y="342"/>
      <point x="187" y="381"/>
      <point x="187" y="342" type="curve"/>
      <point x="259" y="342"/>
      <point x="331" y="342"/>
      <point x="404" y="342" type="curve"/>
      <point x="404" y="381"/>
      <point x="404" y="342"/>
    </contour>
    <contour>
      <point x="654" y="256" type="curve"/>
      <point x="499" y="256"/>
      <point x="343" y="256"/>
      <point x="187" y="256" type="curve"/>
      <point x="187" y="218"/>
      <point x="187" y="256"/>
      <point x="187" y="218" type="curve"/>
      <point x="343" y="218"/>
      <point x="499" y="218"/>
      <point x="654" y="218" type="curve"/>
      <point x="654" y="256"/>
      <point x="654" y="218"/>
    </contour>
    <contour>
      <point x="417" y="35" type="curve"/>
      <point x="256" y="35"/>
      <point x="420" y="35"/>
      <point x="260" y="35" type="curve"/>
      <point x="260" y="0"/>
      <point x="260" y="35"/>
      <point x="260" y="0" type="curve"/>
      <point x="313" y="0"/>
      <point x="363" y="0"/>
      <point x="417" y="0" type="curve"/>
      <point x="417" y="35"/>
      <point x="417" y="0"/>
    </contour>
    <contour>
      <point x="417" y="0" type="curve"/>
      <point x="470" y="0"/>
      <point x="521" y="0"/>
      <point x="574" y="0" type="curve"/>
      <point x="574" y="35"/>
      <point x="574" y="0"/>
      <point x="574" y="35" type="curve"/>
      <point x="413" y="35"/>
      <point x="577" y="35"/>
      <point x="417" y="35" type="curve"/>
      <point x="417" y="0"/>
      <point x="417" y="35"/>
    </contour>
    <contour>
      <point x="657" y="722" type="curve"/>
      <point x="603" y="722"/>
      <point x="554" y="722"/>
      <point x="501" y="722" type="curve"/>
      <point x="501" y="687"/>
      <point x="501" y="722"/>
      <point x="501" y="687" type="curve"/>
      <point x="661" y="687"/>
      <point x="497" y="687"/>
      <point x="657" y="687" type="curve"/>
      <point x="657" y="722"/>
      <point x="657" y="687"/>
    </contour>
    <contour>
      <point x="189" y="722" type="curve"/>
      <point x="137" y="722"/>
      <point x="87" y="722"/>
      <point x="36" y="722" type="curve"/>
      <point x="35" y="687"/>
      <point x="36" y="722"/>
      <point x="35" y="687" type="curve"/>
      <point x="192" y="687"/>
      <point x="32" y="687"/>
      <point x="189" y="687" type="curve"/>
      <point x="189" y="722"/>
      <point x="189" y="687"/>
    </contour>
    <contour>
      <point x="190" y="687" type="curve"/>
      <point x="350" y="687"/>
      <point x="186" y="687"/>
      <point x="346" y="687" type="curve"/>
      <point x="346" y="722"/>
      <point x="346" y="687"/>
      <point x="346" y="722" type="curve"/>
      <point x="293" y="722"/>
      <point x="243" y="722"/>
      <point x="190" y="722" type="curve"/>
      <point x="190" y="687"/>
      <point x="190" y="722"/>
    </contour>
    <contour>
      <point x="658" y="687" type="curve"/>
      <point x="815" y="687"/>
      <point x="655" y="687"/>
      <point x="812" y="687" type="curve"/>
      <point x="812" y="722"/>
      <point x="812" y="687"/>
      <point x="812" y="722" type="curve"/>
      <point x="759" y="722"/>
      <point x="710" y="722"/>
      <point x="658" y="722" type="curve"/>
      <point x="658" y="687"/>
      <point x="658" y="722"/>
    </contour>
    <contour>
      <point x="151" y="719" type="curve"/>
      <point x="233" y="591"/>
      <point x="313" y="464"/>
      <point x="394" y="336" type="curve"/>
      <point x="438" y="336"/>
      <point x="393" y="336"/>
      <point x="436" y="336" type="curve"/>
      <point x="355" y="465"/>
      <point x="274" y="593"/>
      <point x="194" y="722" type="curve"/>
      <point x="151" y="722"/>
      <point x="194" y="719"/>
    </contour>
    <contour>
      <point x="653" y="722" type="curve"/>
      <point x="567" y="593"/>
      <point x="482" y="465"/>
      <point x="396" y="336" type="curve"/>
      <point x="439" y="336"/>
      <point x="395" y="336"/>
      <point x="439" y="336" type="curve"/>
      <point x="524" y="464"/>
      <point x="610" y="592"/>
      <point x="695" y="719" type="curve"/>
      <point x="653" y="719"/>
      <point x="695" y="722"/>
    </contour>
    <contour>
      <point x="439" y="0" type="curve"/>
      <point x="439" y="114"/>
      <point x="439" y="227"/>
      <point x="439" y="340" type="curve"/>
      <point x="394" y="340"/>
      <point x="439" y="340"/>
      <point x="394" y="340" type="curve"/>
      <point x="394" y="227"/>
      <point x="394" y="114"/>
      <point x="394" y="0" type="curve"/>
      <point x="439" y="0"/>
      <point x="394" y="0"/>
    </contour>
  </outline>
</glyph>
<glyph name="section" format="1">
  <advance width="514"/>
  <unicode hex="00A7"/>
  <outline>
    <contour>
      <point x="415" y="708" type="curve"/>
      <point x="361" y="736"/>
      <point x="320" y="751"/>
      <point x="259" y="751" type="curve"/>
      <point x="166" y="751"/>
      <point x="103" y="706"/>
      <point x="103" y="622" type="curve"/>
      <point x="103" y="542"/>
      <point x="158" y="503"/>
      <point x="236" y="476" type="curve"/>
      <point x="321" y="448"/>
      <point x="409" y="440"/>
      <point x="409" y="360" type="curve"/>
      <point x="409" y="290"/>
      <point x="359" y="251"/>
      <point x="283" y="236" type="curve"/>
      <point x="308" y="208"/>
      <point x="283" y="236"/>
      <point x="308" y="208" type="curve"/>
      <point x="396" y="229"/>
      <point x="451" y="275"/>
      <point x="451" y="361" type="curve"/>
      <point x="450" y="461"/>
      <point x="358" y="478"/>
      <point x="258" y="509" type="curve"/>
      <point x="194" y="530"/>
      <point x="144" y="559"/>
      <point x="144" y="622" type="curve"/>
      <point x="144" y="683"/>
      <point x="188" y="716"/>
      <point x="256" y="716" type="curve"/>
      <point x="311" y="716"/>
      <point x="347" y="704"/>
      <point x="396" y="679" type="curve"/>
      <point x="415" y="708"/>
      <point x="396" y="679"/>
    </contour>
    <contour>
      <point x="203" y="515" type="curve"/>
      <point x="122" y="491"/>
      <point x="67" y="449"/>
      <point x="67" y="367" type="curve"/>
      <point x="67" y="272"/>
      <point x="149" y="245"/>
      <point x="245" y="216" type="curve"/>
      <point x="315" y="192"/>
      <point x="379" y="172"/>
      <point x="379" y="105" type="curve"/>
      <point x="379" y="41"/>
      <point x="330" y="6"/>
      <point x="260" y="6" type="curve"/>
      <point x="197" y="6"/>
      <point x="157" y="23"/>
      <point x="104" y="56" type="curve"/>
      <point x="81" y="29"/>
      <point x="104" y="56"/>
      <point x="81" y="29" type="curve"/>
      <point x="139" y="-11"/>
      <point x="188" y="-29"/>
      <point x="259" y="-29" type="curve"/>
      <point x="353" y="-29"/>
      <point x="421" y="14"/>
      <point x="421" y="105" type="curve"/>
      <point x="420" y="188"/>
      <point x="355" y="223"/>
      <point x="271" y="248" type="curve"/>
      <point x="189" y="275"/>
      <point x="110" y="291"/>
      <point x="110" y="368" type="curve"/>
      <point x="110" y="436"/>
      <point x="156" y="468"/>
      <point x="224" y="490" type="curve"/>
      <point x="203" y="515"/>
      <point x="224" y="490"/>
    </contour>
    <contour>
      <point x="117" y="29" type="curve"/>
      <point x="117" y="149"/>
      <point x="117" y="30"/>
      <point x="117" y="150" type="curve"/>
      <point x="81" y="150"/>
      <point x="117" y="150"/>
      <point x="81" y="150" type="curve"/>
      <point x="81" y="30"/>
      <point x="81" y="149"/>
      <point x="81" y="29" type="curve"/>
      <point x="117" y="29"/>
      <point x="81" y="29"/>
    </contour>
    <contour>
      <point x="415" y="587" type="curve"/>
      <point x="415" y="707"/>
      <point x="415" y="588"/>
      <point x="415" y="708" type="curve"/>
      <point x="379" y="708"/>
      <point x="415" y="708"/>
      <point x="379" y="708" type="curve"/>
      <point x="379" y="588"/>
      <point x="379" y="707"/>
      <point x="379" y="587" type="curve"/>
      <point x="415" y="587"/>
      <point x="379" y="587"/>
    </contour>
  </outline>
</glyph>
<glyph name="dieresis" format="1">
  <advance width="380"/>
  <unicode hex="00A8"/>
  <outline>
    <contour>
      <point x="106" y="661" type="curve"/>
      <point x="106" y="678"/>
      <point x="94" y="687"/>
      <point x="77" y="687" type="curve"/>
      <point x="61" y="687"/>
      <point x="50" y="677"/>
      <point x="50" y="661" type="curve"/>
      <point x="95" y="661"/>
      <point x="61" y="661"/>
      <point x="106" y="661" type="curve"/>
      <point x="106" y="644"/>
      <point x="94" y="636"/>
      <point x="77" y="636" type="curve"/>
      <point x="61" y="636"/>
      <point x="50" y="645"/>
      <point x="50" y="661" type="curve"/>
      <point x="95" y="661"/>
      <point x="61" y="661"/>
    </contour>
    <contour>
      <point x="246" y="661" type="curve"/>
      <point x="246" y="678"/>
      <point x="234" y="687"/>
      <point x="217" y="687" type="curve"/>
      <point x="200" y="687"/>
      <point x="190" y="677"/>
      <point x="190" y="661" type="curve"/>
      <point x="235" y="661"/>
      <point x="200" y="661"/>
      <point x="246" y="661" type="curve"/>
      <point x="246" y="644"/>
      <point x="234" y="636"/>
      <point x="217" y="636" type="curve"/>
      <point x="200" y="636"/>
      <point x="190" y="645"/>
      <point x="190" y="661" type="curve"/>
      <point x="235" y="661"/>
      <point x="200" y="661"/>
    </contour>
    <contour>
      <point x="148" y="637" type="move" name="_top"/>
    </contour>
  </outline>
</glyph>
<glyph name="copyright" format="1">
  <advance width="799"/>
  <unicode hex="00A9"/>
  <outline>
    <contour>
      <point x="103" y="320" type="curve"/>
      <point x="103" y="499"/>
      <point x="223" y="615"/>
      <point x="404" y="615" type="curve"/>
      <point x="580" y="615"/>
      <point x="696" y="496"/>
      <point x="696" y="319" type="curve"/>
      <point x="696" y="145"/>
      <point x="583" y="29"/>
      <point x="410" y="29" type="curve"/>
      <point x="230" y="29"/>
      <point x="103" y="140"/>
      <point x="103" y="320" type="curve"/>
      <point x="65" y="320"/>
      <point x="103" y="320"/>
      <point x="65" y="320" type="curve"/>
      <point x="65" y="122"/>
      <point x="206" y="-3"/>
      <point x="408" y="-3" type="curve"/>
      <point x="604" y="-3"/>
      <point x="734" y="126"/>
      <point x="734" y="320" type="curve"/>
      <point x="734" y="517"/>
      <point x="601" y="645"/>
      <point x="404" y="645" type="curve"/>
      <point x="203" y="645"/>
      <point x="65" y="519"/>
      <point x="65" y="320" type="curve"/>
      <point x="103" y="320"/>
      <point x="65" y="320"/>
    </contour>
    <contour>
      <point x="498" y="446" type="curve"/>
      <point x="498" y="425"/>
      <point x="498" y="402"/>
      <point x="498" y="380" type="curve"/>
      <point x="533" y="380"/>
      <point x="498" y="380"/>
      <point x="533" y="380" type="curve"/>
      <point x="533" y="408"/>
      <point x="533" y="437"/>
      <point x="533" y="464" type="curve"/>
      <point x="498" y="447"/>
      <point x="533" y="464"/>
    </contour>
    <contour>
      <point x="533" y="464" type="curve"/>
      <point x="493" y="489"/>
      <point x="458" y="499"/>
      <point x="410" y="499" type="curve"/>
      <point x="299" y="499"/>
      <point x="232" y="430"/>
      <point x="232" y="320" type="curve"/>
      <point x="232" y="213"/>
      <point x="291" y="145"/>
      <point x="396" y="145" type="curve"/>
      <point x="455" y="145"/>
      <point x="497" y="156"/>
      <point x="545" y="193" type="curve"/>
      <point x="522" y="216"/>
      <point x="545" y="193"/>
      <point x="522" y="216" type="curve"/>
      <point x="482" y="187"/>
      <point x="447" y="176"/>
      <point x="398" y="176" type="curve"/>
      <point x="313" y="176"/>
      <point x="270" y="234"/>
      <point x="270" y="321" type="curve"/>
      <point x="270" y="410"/>
      <point x="319" y="467"/>
      <point x="408" y="467" type="curve"/>
      <point x="446" y="467"/>
      <point x="470" y="460"/>
      <point x="499" y="447" type="curve"/>
      <point x="533" y="464"/>
      <point x="499" y="447"/>
    </contour>
  </outline>
</glyph>
<glyph name="ordfeminine" format="1">
  <advance width="475"/>
  <unicode hex="00AA"/>
  <outline>
    <contour>
      <point x="91" y="717" type="curve"/>
      <point x="91" y="686"/>
      <point x="91" y="683"/>
      <point x="91" y="652" type="curve"/>
      <point x="109" y="652"/>
      <point x="102" y="652"/>
      <point x="120" y="652" type="curve"/>
      <point x="120" y="683"/>
      <point x="120" y="686"/>
      <point x="120" y="717" type="curve"/>
      <point x="102" y="717"/>
      <point x="109" y="717"/>
    </contour>
    <contour>
      <point x="345" y="427" type="curve"/>
      <point x="345" y="519"/>
      <point x="345" y="587"/>
      <point x="345" y="679" type="curve"/>
      <point x="345" y="744"/>
      <point x="290" y="767"/>
      <point x="219" y="767" type="curve"/>
      <point x="166" y="767"/>
      <point x="122" y="747"/>
      <point x="91" y="717" type="curve"/>
      <point x="99" y="703"/>
      <point x="97" y="708"/>
      <point x="106" y="692" type="curve"/>
      <point x="131" y="715"/>
      <point x="168" y="738"/>
      <point x="214" y="738" type="curve"/>
      <point x="268" y="738"/>
      <point x="310" y="720"/>
      <point x="310" y="671" type="curve"/>
      <point x="310" y="582"/>
      <point x="310" y="516"/>
      <point x="310" y="427" type="curve"/>
      <point x="332" y="427"/>
      <point x="323" y="427"/>
    </contour>
    <contour>
      <point x="329" y="427" type="curve"/>
      <point x="355" y="427"/>
      <point x="373" y="427"/>
      <point x="399" y="427" type="curve"/>
      <point x="399" y="445"/>
      <point x="399" y="439"/>
      <point x="399" y="457" type="curve"/>
      <point x="364" y="457"/>
      <point x="364" y="457"/>
      <point x="329" y="457" type="curve"/>
      <point x="329" y="439"/>
      <point x="329" y="445"/>
    </contour>
    <contour>
      <point x="326" y="635" type="curve"/>
      <point x="275" y="628"/>
      <point x="241" y="627"/>
      <point x="190" y="620" type="curve"/>
      <point x="125" y="611"/>
      <point x="76" y="582"/>
      <point x="76" y="519" type="curve"/>
      <point x="76" y="455"/>
      <point x="123" y="423"/>
      <point x="191" y="423" type="curve"/>
      <point x="259" y="423"/>
      <point x="300" y="464"/>
      <point x="336" y="517" type="curve"/>
      <point x="325" y="526"/>
      <point x="329" y="523"/>
      <point x="318" y="532" type="curve"/>
      <point x="289" y="489"/>
      <point x="254" y="453"/>
      <point x="198" y="453" type="curve"/>
      <point x="147" y="453"/>
      <point x="111" y="474"/>
      <point x="111" y="521" type="curve"/>
      <point x="111" y="565"/>
      <point x="144" y="587"/>
      <point x="189" y="593" type="curve"/>
      <point x="240" y="600"/>
      <point x="276" y="602"/>
      <point x="327" y="609" type="curve"/>
      <point x="327" y="624"/>
      <point x="327" y="619"/>
    </contour>
  </outline>
</glyph>
<glyph name="guillemotleft" format="1">
  <advance width="646"/>
  <unicode hex="00AB"/>
  <outline>
    <contour>
      <point x="313" y="411" type="curve"/>
      <point x="304" y="406"/>
      <point x="82" y="303"/>
      <point x="73" y="298" type="curve"/>
      <point x="73" y="259"/>
      <point x="73" y="296"/>
      <point x="73" y="258" type="curve"/>
      <point x="82" y="263"/>
      <point x="304" y="367"/>
      <point x="313" y="372" type="curve"/>
      <point x="313" y="410"/>
      <point x="313" y="373"/>
    </contour>
    <contour>
      <point x="313" y="184" type="curve"/>
      <point x="305" y="189"/>
      <point x="82" y="293"/>
      <point x="73" y="298" type="curve"/>
      <point x="73" y="259"/>
      <point x="73" y="296"/>
      <point x="73" y="258" type="curve"/>
      <point x="82" y="253"/>
      <point x="305" y="150"/>
      <point x="313" y="145" type="curve"/>
      <point x="313" y="183"/>
      <point x="313" y="146"/>
    </contour>
    <contour>
      <point x="552" y="411" type="curve"/>
      <point x="543" y="406"/>
      <point x="320" y="303"/>
      <point x="311" y="298" type="curve"/>
      <point x="311" y="259"/>
      <point x="311" y="296"/>
      <point x="311" y="258" type="curve"/>
      <point x="320" y="263"/>
      <point x="543" y="367"/>
      <point x="552" y="372" type="curve"/>
      <point x="552" y="410"/>
      <point x="552" y="373"/>
    </contour>
    <contour>
      <point x="552" y="184" type="curve"/>
      <point x="543" y="189"/>
      <point x="320" y="293"/>
      <point x="311" y="298" type="curve"/>
      <point x="311" y="259"/>
      <point x="311" y="296"/>
      <point x="311" y="258" type="curve"/>
      <point x="320" y="253"/>
      <point x="543" y="150"/>
      <point x="552" y="145" type="curve"/>
      <point x="552" y="183"/>
      <point x="552" y="146"/>
    </contour>
  </outline>
</glyph>
<glyph name="logicalnot" format="1">
  <advance width="728"/>
  <unicode hex="00AC"/>
  <outline>
    <contour>
      <point x="108" y="290" type="curve"/>
      <point x="640" y="290" type="line"/>
      <point x="640" y="329"/>
      <point x="640" y="290"/>
      <point x="640" y="329" type="curve"/>
      <point x="108" y="329" type="line"/>
      <point x="108" y="290"/>
      <point x="108" y="329"/>
    </contour>
    <contour>
      <point x="640" y="151" type="curve"/>
      <point x="640" y="329" type="line"/>
      <point x="597" y="329"/>
      <point x="641" y="329"/>
      <point x="598" y="329" type="curve"/>
      <point x="598" y="151" type="line"/>
      <point x="641" y="151"/>
      <point x="597" y="151"/>
    </contour>
  </outline>
</glyph>
<glyph name="registered" format="1">
  <advance width="801"/>
  <unicode hex="00AE"/>
  <outline>
    <contour>
      <point x="101" y="320" type="curve"/>
      <point x="101" y="501"/>
      <point x="222" y="616"/>
      <point x="404" y="616" type="curve"/>
      <point x="583" y="616"/>
      <point x="700" y="498"/>
      <point x="700" y="318" type="curve"/>
      <point x="700" y="143"/>
      <point x="586" y="27"/>
      <point x="411" y="27" type="curve"/>
      <point x="228" y="27"/>
      <point x="101" y="138"/>
      <point x="101" y="320" type="curve"/>
      <point x="75" y="320"/>
      <point x="91" y="320"/>
      <point x="65" y="320" type="curve"/>
      <point x="65" y="121"/>
      <point x="205" y="-3"/>
      <point x="409" y="-3" type="curve"/>
      <point x="606" y="-3"/>
      <point x="735" y="124"/>
      <point x="735" y="320" type="curve"/>
      <point x="735" y="518"/>
      <point x="603" y="645"/>
      <point x="404" y="645" type="curve"/>
      <point x="202" y="645"/>
      <point x="65" y="520"/>
      <point x="65" y="320" type="curve"/>
      <point x="91" y="320"/>
      <point x="75" y="320"/>
    </contour>
    <contour>
      <point x="502" y="148" type="curve"/>
      <point x="528" y="148"/>
      <point x="551" y="148"/>
      <point x="577" y="148" type="curve"/>
      <point x="577" y="179"/>
      <point x="577" y="148"/>
      <point x="577" y="179" type="curve"/>
      <point x="560" y="179"/>
      <point x="545" y="179"/>
      <point x="529" y="179" type="curve"/>
      <point x="503" y="156"/>
      <point x="525" y="180"/>
    </contour>
    <contour>
      <point x="344" y="494" type="curve"/>
      <point x="311" y="494"/>
      <point x="279" y="494"/>
      <point x="246" y="494" type="curve"/>
      <point x="246" y="462"/>
      <point x="246" y="494"/>
      <point x="246" y="462" type="curve"/>
      <point x="267" y="462"/>
      <point x="286" y="462"/>
      <point x="306" y="462" type="curve"/>
      <point x="344" y="494"/>
      <point x="306" y="462"/>
    </contour>
    <contour>
      <point x="344" y="179" type="curve"/>
      <point x="311" y="179"/>
      <point x="279" y="179"/>
      <point x="246" y="179" type="curve"/>
      <point x="246" y="148"/>
      <point x="246" y="179"/>
      <point x="246" y="148" type="curve"/>
      <point x="267" y="148"/>
      <point x="286" y="148"/>
      <point x="306" y="148" type="curve"/>
      <point x="344" y="179"/>
      <point x="306" y="148"/>
    </contour>
    <contour>
      <point x="305" y="148" type="curve"/>
      <point x="335" y="148"/>
      <point x="363" y="148"/>
      <point x="393" y="148" type="curve"/>
      <point x="393" y="179"/>
      <point x="393" y="148"/>
      <point x="393" y="179" type="curve"/>
      <point x="376" y="179"/>
      <point x="360" y="179"/>
      <point x="344" y="179" type="curve"/>
      <point x="305" y="148"/>
      <point x="344" y="179"/>
    </contour>
    <contour>
      <point x="407" y="310" type="curve"/>
      <point x="436" y="260"/>
      <point x="473" y="198"/>
      <point x="502" y="148" type="curve"/>
      <point x="529" y="175"/>
      <point x="506" y="150"/>
      <point x="529" y="179" type="curve"/>
      <point x="449" y="310" type="line"/>
      <point x="404" y="310"/>
      <point x="452" y="311"/>
    </contour>
    <contour>
      <point x="343" y="179" type="curve"/>
      <point x="343" y="284"/>
      <point x="343" y="389"/>
      <point x="343" y="494" type="curve"/>
      <point x="305" y="462"/>
      <point x="344" y="494"/>
      <point x="306" y="462" type="curve"/>
      <point x="306" y="357"/>
      <point x="306" y="252"/>
      <point x="306" y="148" type="curve"/>
      <point x="344" y="179"/>
      <point x="305" y="148"/>
    </contour>
    <contour>
      <point x="327" y="291" type="curve"/>
      <point x="348" y="291"/>
      <point x="370" y="291"/>
      <point x="391" y="291" type="curve"/>
      <point x="467" y="291"/>
      <point x="519" y="318"/>
      <point x="519" y="392" type="curve"/>
      <point x="519" y="459"/>
      <point x="471" y="494"/>
      <point x="402" y="494" type="curve"/>
      <point x="383" y="494"/>
      <point x="363" y="494"/>
      <point x="344" y="494" type="curve"/>
      <point x="306" y="462"/>
      <point x="344" y="494"/>
      <point x="306" y="462" type="curve"/>
      <point x="336" y="462"/>
      <point x="366" y="462"/>
      <point x="395" y="462" type="curve"/>
      <point x="446" y="462"/>
      <point x="482" y="439"/>
      <point x="482" y="390" type="curve"/>
      <point x="482" y="340"/>
      <point x="448" y="323"/>
      <point x="397" y="323" type="curve"/>
      <point x="373" y="323"/>
      <point x="350" y="323"/>
      <point x="327" y="323" type="curve"/>
      <point x="327" y="291"/>
      <point x="327" y="323"/>
    </contour>
  </outline>
</glyph>
<glyph name="macron" format="1">
  <advance width="359"/>
  <unicode hex="00AF"/>
  <outline>
    <contour>
      <point x="259" y="678" type="curve"/>
      <point x="181" y="678"/>
      <point x="102" y="678"/>
      <point x="24" y="678" type="curve"/>
      <point x="24" y="644"/>
      <point x="24" y="678"/>
      <point x="24" y="644" type="curve"/>
      <point x="102" y="644"/>
      <point x="181" y="644"/>
      <point x="259" y="644" type="curve"/>
      <point x="259" y="678"/>
      <point x="259" y="644"/>
    </contour>
    <contour>
      <point x="145" y="644" type="move" name="_top"/>
    </contour>
  </outline>
</glyph>
<glyph name="degree" format="1">
  <advance width="496"/>
  <unicode hex="00B0"/>
  <outline>
    <contour>
      <point x="425" y="448" type="curve"/>
      <point x="425" y="570"/>
      <point x="364" y="653"/>
      <point x="247" y="653" type="curve"/>
      <point x="131" y="653"/>
      <point x="71" y="570"/>
      <point x="71" y="450" type="curve"/>
      <point x="104" y="450"/>
      <point x="76" y="450"/>
      <point x="109" y="450" type="curve"/>
      <point x="109" y="548"/>
      <point x="151" y="620"/>
      <point x="245" y="620" type="curve"/>
      <point x="340" y="620"/>
      <point x="386" y="549"/>
      <point x="386" y="448" type="curve"/>
      <point x="386" y="345"/>
      <point x="344" y="271"/>
      <point x="248" y="271" type="curve"/>
      <point x="151" y="271"/>
      <point x="109" y="347"/>
      <point x="109" y="450" type="curve"/>
      <point x="76" y="450"/>
      <point x="104" y="450"/>
      <point x="71" y="450" type="curve"/>
      <point x="71" y="325"/>
      <point x="128" y="237"/>
      <point x="246" y="237" type="curve"/>
      <point x="366" y="237"/>
      <point x="425" y="324"/>
    </contour>
  </outline>
</glyph>
<glyph name="plusminus" format="1">
  <advance width="708"/>
  <unicode hex="00B1"/>
  <outline>
    <contour>
      <point x="73" y="20" type="line"/>
      <point x="635" y="20" type="line"/>
      <point x="635" y="59" type="line"/>
      <point x="73" y="59" type="line"/>
    </contour>
    <contour>
      <point x="73" y="290" type="curve"/>
      <point x="635" y="290" type="line"/>
      <point x="635" y="329"/>
      <point x="635" y="290"/>
      <point x="635" y="329" type="curve"/>
      <point x="73" y="329" type="line"/>
      <point x="73" y="290"/>
      <point x="73" y="329"/>
    </contour>
    <contour>
      <point x="373" y="21" type="curve"/>
      <point x="373" y="587" type="line"/>
      <point x="330" y="587"/>
      <point x="374" y="587"/>
      <point x="331" y="587" type="curve"/>
      <point x="331" y="21" type="line"/>
      <point x="374" y="21"/>
      <point x="330" y="21"/>
    </contour>
  </outline>
</glyph>
<glyph name="twosuperior" format="1">
  <advance width="504"/>
  <unicode hex="00B2"/>
  <outline>
    <contour>
      <point x="420" y="293" type="curve"/>
      <point x="420" y="330"/>
      <point x="420" y="355"/>
      <point x="420" y="393" type="curve"/>
      <point x="386" y="393"/>
      <point x="422" y="393"/>
      <point x="387" y="393" type="curve"/>
      <point x="387" y="366"/>
      <point x="387" y="352"/>
      <point x="387" y="326" type="curve"/>
      <point x="423" y="294"/>
      <point x="385" y="325"/>
    </contour>
    <contour>
      <point x="80" y="293" type="curve"/>
      <point x="200" y="293"/>
      <point x="311" y="293"/>
      <point x="420" y="293" type="curve"/>
      <point x="385" y="325"/>
      <point x="423" y="294"/>
      <point x="387" y="326" type="curve"/>
      <point x="285" y="326"/>
      <point x="182" y="326"/>
      <point x="80" y="326" type="curve"/>
      <point x="80" y="294"/>
      <point x="80" y="326"/>
    </contour>
    <contour>
      <point x="137" y="607" type="curve"/>
      <point x="166" y="652"/>
      <point x="200" y="678"/>
      <point x="256" y="678" type="curve"/>
      <point x="318" y="678"/>
      <point x="360" y="647"/>
      <point x="360" y="588" type="curve"/>
      <point x="360" y="535"/>
      <point x="323" y="510"/>
      <point x="282" y="476" type="curve"/>
      <point x="215" y="426"/>
      <point x="147" y="376"/>
      <point x="80" y="326" type="curve"/>
      <point x="88" y="294"/>
      <point x="80" y="326"/>
      <point x="89" y="294" type="curve"/>
      <point x="164" y="347"/>
      <point x="237" y="398"/>
      <point x="307" y="450" type="curve"/>
      <point x="356" y="492"/>
      <point x="399" y="524"/>
      <point x="399" y="590" type="curve"/>
      <point x="399" y="670"/>
      <point x="341" y="712"/>
      <point x="259" y="712" type="curve"/>
      <point x="189" y="712"/>
      <point x="140" y="684"/>
      <point x="107" y="624" type="curve"/>
      <point x="137" y="607"/>
      <point x="107" y="624"/>
    </contour>
    <contour>
      <point x="268" y="711" type="move" name="_top"/>
    </contour>
    <contour>
      <point x="243" y="292" type="move" name="_bottom"/>
    </contour>
  </outline>
</glyph>
<glyph name="threesuperior" format="1">
  <advance width="450"/>
  <unicode hex="00B3"/>
  <outline>
    <contour>
      <point x="110" y="636" type="curve"/>
      <point x="139" y="661"/>
      <point x="172" y="679"/>
      <point x="210" y="679" type="curve"/>
      <point x="272" y="679"/>
      <point x="317" y="657"/>
      <point x="317" y="600" type="curve"/>
      <point x="317" y="534"/>
      <point x="241" y="523"/>
      <point x="165" y="518" type="curve"/>
      <point x="165" y="490"/>
      <point x="165" y="518"/>
      <point x="165" y="490" type="curve"/>
      <point x="268" y="492"/>
      <point x="357" y="512"/>
      <point x="357" y="603" type="curve"/>
      <point x="357" y="680"/>
      <point x="297" y="711"/>
      <point x="215" y="711" type="curve"/>
      <point x="165" y="711"/>
      <point x="120" y="690"/>
      <point x="88" y="657" type="curve"/>
      <point x="110" y="636"/>
      <point x="88" y="657"/>
    </contour>
    <contour>
      <point x="82" y="322" type="curve"/>
      <point x="120" y="300"/>
      <point x="158" y="288"/>
      <point x="202" y="288" type="curve"/>
      <point x="300" y="285"/>
      <point x="375" y="316"/>
      <point x="373" y="404" type="curve"/>
      <point x="373" y="501"/>
      <point x="274" y="508"/>
      <point x="165" y="511" type="curve"/>
      <point x="165" y="486"/>
      <point x="165" y="511"/>
      <point x="165" y="486" type="curve"/>
      <point x="254" y="482"/>
      <point x="333" y="473"/>
      <point x="333" y="403" type="curve"/>
      <point x="332" y="340"/>
      <point x="279" y="318"/>
      <point x="206" y="320" type="curve"/>
      <point x="169" y="320"/>
      <point x="135" y="329"/>
      <point x="101" y="347" type="curve"/>
      <point x="82" y="322"/>
      <point x="101" y="347"/>
    </contour>
    <contour>
      <point x="229" y="711" type="move" name="_top"/>
    </contour>
    <contour>
      <point x="217" y="288" type="move" name="_bottom"/>
    </contour>
  </outline>
</glyph>
<glyph name="paragraph" format="1">
  <advance width="727"/>
  <unicode hex="00B6"/>
  <outline>
    <contour>
      <point x="445" y="687" type="curve"/>
      <point x="613" y="687"/>
      <point x="445" y="687"/>
      <point x="613" y="687" type="curve"/>
      <point x="613" y="722"/>
      <point x="613" y="687"/>
      <point x="613" y="722" type="curve"/>
      <point x="557" y="722"/>
      <point x="501" y="722"/>
      <point x="445" y="722" type="curve"/>
      <point x="445" y="687"/>
      <point x="445" y="722"/>
    </contour>
    <contour>
      <point x="445" y="0" type="curve"/>
      <point x="501" y="0"/>
      <point x="557" y="0"/>
      <point x="613" y="0" type="curve"/>
      <point x="613" y="35"/>
      <point x="613" y="0"/>
      <point x="613" y="35" type="curve"/>
      <point x="445" y="35"/>
      <point x="613" y="35"/>
      <point x="445" y="35" type="curve"/>
      <point x="445" y="0"/>
      <point x="445" y="35"/>
    </contour>
    <contour>
      <point x="445" y="35" type="curve"/>
      <point x="290" y="35"/>
      <point x="445" y="35"/>
      <point x="290" y="35" type="curve"/>
      <point x="290" y="0"/>
      <point x="290" y="35"/>
      <point x="290" y="0" type="curve"/>
      <point x="445" y="0"/>
      <point x="393" y="0"/>
      <point x="445" y="0" type="curve"/>
      <point x="445" y="35"/>
      <point x="445" y="0"/>
    </contour>
    <contour>
      <point x="437" y="353" type="curve"/>
      <point x="383" y="326"/>
      <point x="341" y="311"/>
      <point x="281" y="311" type="curve"/>
      <point x="166" y="311"/>
      <point x="89" y="377"/>
      <point x="89" y="490" type="curve"/>
      <point x="89" y="617"/>
      <point x="181" y="687"/>
      <point x="313" y="687" type="curve"/>
      <point x="356" y="687"/>
      <point x="399" y="687"/>
      <point x="442" y="687" type="curve"/>
      <point x="442" y="722"/>
      <point x="442" y="687"/>
      <point x="442" y="722" type="curve"/>
      <point x="397" y="722"/>
      <point x="352" y="722"/>
      <point x="307" y="722" type="curve"/>
      <point x="154" y="722"/>
      <point x="46" y="639"/>
      <point x="46" y="492" type="curve"/>
      <point x="46" y="352"/>
      <point x="143" y="278"/>
      <point x="284" y="275" type="curve"/>
      <point x="346" y="275"/>
      <point x="397" y="295"/>
      <point x="451" y="321" type="curve"/>
      <point x="437" y="352"/>
      <point x="450" y="321"/>
    </contour>
    <contour>
      <point x="468" y="0" type="curve"/>
      <point x="468" y="241"/>
      <point x="468" y="481"/>
      <point x="468" y="722" type="curve"/>
      <point x="425" y="722"/>
      <point x="468" y="722"/>
      <point x="425" y="722" type="curve"/>
      <point x="425" y="481"/>
      <point x="425" y="241"/>
      <point x="425" y="0" type="curve"/>
      <point x="468" y="0"/>
      <point x="425" y="0"/>
    </contour>
    <contour>
      <point x="642" y="0" type="curve"/>
      <point x="642" y="241"/>
      <point x="642" y="481"/>
      <point x="642" y="722" type="curve"/>
      <point x="599" y="722"/>
      <point x="642" y="722"/>
      <point x="599" y="722" type="curve"/>
      <point x="599" y="481"/>
      <point x="599" y="241"/>
      <point x="599" y="0" type="curve"/>
      <point x="642" y="0"/>
      <point x="599" y="0"/>
    </contour>
  </outline>
</glyph>
<glyph name="onesuperior" format="1">
  <advance width="395"/>
  <unicode hex="00B9"/>
  <outline>
    <contour>
      <point x="211" y="293" type="curve"/>
      <point x="253" y="293"/>
      <point x="284" y="293"/>
      <point x="326" y="293" type="curve"/>
      <point x="326" y="327"/>
      <point x="326" y="292"/>
      <point x="326" y="326" type="curve"/>
      <point x="297" y="326"/>
      <point x="279" y="326"/>
      <point x="251" y="326" type="curve"/>
      <point x="211" y="292"/>
      <point x="251" y="327"/>
    </contour>
    <contour>
      <point x="251" y="326" type="curve"/>
      <point x="208" y="326"/>
      <point x="175" y="326"/>
      <point x="132" y="326" type="curve"/>
      <point x="132" y="292"/>
      <point x="132" y="327"/>
      <point x="132" y="293" type="curve"/>
      <point x="162" y="293"/>
      <point x="181" y="293"/>
      <point x="211" y="293" type="curve"/>
      <point x="251" y="327"/>
      <point x="211" y="292"/>
    </contour>
    <contour>
      <point x="97" y="570" type="line"/>
      <point x="251" y="696" type="line"/>
      <point x="211" y="704" type="line"/>
      <point x="76" y="595" type="line"/>
    </contour>
    <contour>
      <point x="251" y="326" type="curve"/>
      <point x="251" y="704" type="line"/>
      <point x="211" y="704" type="line"/>
      <point x="211" y="293" type="line"/>
      <point x="251" y="327"/>
      <point x="211" y="292"/>
    </contour>
    <contour>
      <point x="230" y="701" type="move" name="_top"/>
    </contour>
    <contour>
      <point x="232" y="295" type="move" name="_bottom"/>
    </contour>
  </outline>
</glyph>
<glyph name="ordmasculine" format="1">
  <advance width="467"/>
  <unicode hex="00BA"/>
  <outline>
    <contour>
      <point x="109" y="602" type="curve"/>
      <point x="109" y="686"/>
      <point x="153" y="740"/>
      <point x="234" y="740" type="curve"/>
      <point x="314" y="740"/>
      <point x="356" y="684"/>
      <point x="356" y="600" type="curve"/>
      <point x="356" y="512"/>
      <point x="316" y="450"/>
      <point x="238" y="450" type="curve"/>
      <point x="152" y="450"/>
      <point x="109" y="512"/>
      <point x="109" y="602" type="curve"/>
      <point x="87" y="602"/>
      <point x="97" y="602"/>
      <point x="75" y="602" type="curve"/>
      <point x="75" y="492"/>
      <point x="131" y="420"/>
      <point x="237" y="420" type="curve"/>
      <point x="338" y="420"/>
      <point x="392" y="492"/>
      <point x="392" y="600" type="curve"/>
      <point x="392" y="703"/>
      <point x="337" y="769"/>
      <point x="235" y="769" type="curve"/>
      <point x="132" y="769"/>
      <point x="75" y="704"/>
      <point x="75" y="602" type="curve"/>
      <point x="97" y="602"/>
      <point x="87" y="602"/>
    </contour>
  </outline>
</glyph>
<glyph name="guillemotright" format="1">
  <advance width="646"/>
  <unicode hex="00BB"/>
  <outline>
    <contour>
      <point x="333" y="411" type="curve"/>
      <point x="342" y="406"/>
      <point x="565" y="303"/>
      <point x="573" y="298" type="curve"/>
      <point x="573" y="259"/>
      <point x="573" y="296"/>
      <point x="573" y="258" type="curve"/>
      <point x="565" y="263"/>
      <point x="342" y="367"/>
      <point x="333" y="372" type="curve"/>
      <point x="333" y="410"/>
      <point x="333" y="373"/>
    </contour>
    <contour>
      <point x="333" y="184" type="curve"/>
      <point x="341" y="189"/>
      <point x="565" y="293"/>
      <point x="573" y="298" type="curve"/>
      <point x="573" y="259"/>
      <point x="573" y="296"/>
      <point x="573" y="258" type="curve"/>
      <point x="565" y="253"/>
      <point x="341" y="150"/>
      <point x="333" y="145" type="curve"/>
      <point x="333" y="183"/>
      <point x="333" y="146"/>
    </contour>
    <contour>
      <point x="95" y="411" type="curve"/>
      <point x="103" y="406"/>
      <point x="326" y="303"/>
      <point x="335" y="298" type="curve"/>
      <point x="335" y="259"/>
      <point x="335" y="296"/>
      <point x="335" y="258" type="curve"/>
      <point x="326" y="263"/>
      <point x="103" y="367"/>
      <point x="95" y="372" type="curve"/>
      <point x="95" y="410"/>
      <point x="95" y="373"/>
    </contour>
    <contour>
      <point x="94" y="184" type="curve"/>
      <point x="103" y="189"/>
      <point x="326" y="293"/>
      <point x="335" y="298" type="curve"/>
      <point x="335" y="259"/>
      <point x="335" y="296"/>
      <point x="335" y="258" type="curve"/>
      <point x="326" y="253"/>
      <point x="103" y="150"/>
      <point x="94" y="145" type="curve"/>
      <point x="94" y="183"/>
      <point x="94" y="146"/>
    </contour>
  </outline>
</glyph>
<glyph name="onequarter" format="1">
  <advance width="1007"/>
  <unicode hex="00BC"/>
  <outline>
    <contour>
      <point x="322" y="-84" type="line"/>
      <point x="767" y="749" type="line"/>
      <point x="723" y="749" type="line"/>
      <point x="278" y="-84" type="line"/>
    </contour>
    <contour>
      <point x="179" y="342" type="curve"/>
      <point x="221" y="342"/>
      <point x="253" y="342"/>
      <point x="295" y="342" type="curve"/>
      <point x="295" y="376"/>
      <point x="295" y="341"/>
      <point x="295" y="375" type="curve"/>
      <point x="266" y="375"/>
      <point x="248" y="375"/>
      <point x="220" y="375" type="curve"/>
      <point x="179" y="341"/>
      <point x="220" y="376"/>
    </contour>
    <contour>
      <point x="220" y="375" type="curve"/>
      <point x="177" y="375"/>
      <point x="144" y="375"/>
      <point x="100" y="375" type="curve"/>
      <point x="100" y="341"/>
      <point x="100" y="376"/>
      <point x="100" y="342" type="curve"/>
      <point x="130" y="342"/>
      <point x="150" y="342"/>
      <point x="180" y="342" type="curve"/>
      <point x="220" y="376"/>
      <point x="180" y="341"/>
    </contour>
    <contour>
      <point x="66" y="619" type="line"/>
      <point x="219" y="745" type="line"/>
      <point x="180" y="753" type="line"/>
      <point x="44" y="644" type="line"/>
    </contour>
    <contour>
      <point x="220" y="375" type="curve"/>
      <point x="220" y="753" type="line"/>
      <point x="180" y="753" type="line"/>
      <point x="180" y="342" type="line"/>
      <point x="220" y="376"/>
      <point x="180" y="341"/>
    </contour>
    <contour>
      <point x="980" y="61" type="line"/>
      <point x="594" y="61" type="line"/>
      <point x="594" y="29" type="line"/>
      <point x="980" y="29" type="line"/>
    </contour>
    <contour>
      <point x="612" y="31" type="line"/>
      <point x="869" y="335" type="line"/>
      <point x="834" y="345" type="line"/>
      <point x="594" y="61" type="line"/>
    </contour>
    <contour>
      <point x="874" y="-90" type="line"/>
      <point x="874" y="345" type="line"/>
      <point x="834" y="345" type="line"/>
      <point x="834" y="-90" type="line"/>
    </contour>
    <contour>
      <point x="853" y="-59" type="line"/>
      <point x="752" y="-59" type="line"/>
      <point x="752" y="-91" type="line"/>
      <point x="853" y="-91" type="line"/>
    </contour>
    <contour>
      <point x="853" y="-91" type="line"/>
      <point x="952" y="-91" type="line"/>
      <point x="952" y="-59" type="line"/>
      <point x="853" y="-59" type="line"/>
    </contour>
  </outline>
</glyph>
<glyph name="onehalf" format="1">
  <advance width="1062"/>
  <unicode hex="00BD"/>
  <outline>
    <contour>
      <point x="327" y="-84" type="line"/>
      <point x="772" y="749" type="line"/>
      <point x="728" y="749" type="line"/>
      <point x="283" y="-84" type="line"/>
    </contour>
    <contour>
      <point x="177" y="342" type="curve"/>
      <point x="219" y="342"/>
      <point x="250" y="342"/>
      <point x="292" y="342" type="curve"/>
      <point x="292" y="376"/>
      <point x="292" y="341"/>
      <point x="292" y="375" type="curve"/>
      <point x="263" y="375"/>
      <point x="245" y="375"/>
      <point x="217" y="375" type="curve"/>
      <point x="177" y="341"/>
      <point x="217" y="376"/>
    </contour>
    <contour>
      <point x="217" y="375" type="curve"/>
      <point x="174" y="375"/>
      <point x="141" y="375"/>
      <point x="98" y="375" type="curve"/>
      <point x="98" y="341"/>
      <point x="98" y="376"/>
      <point x="98" y="342" type="curve"/>
      <point x="128" y="342"/>
      <point x="147" y="342"/>
      <point x="177" y="342" type="curve"/>
      <point x="217" y="376"/>
      <point x="177" y="341"/>
    </contour>
    <contour>
      <point x="63" y="619" type="line"/>
      <point x="217" y="745" type="line"/>
      <point x="177" y="753" type="line"/>
      <point x="42" y="644" type="line"/>
    </contour>
    <contour>
      <point x="217" y="375" type="curve"/>
      <point x="217" y="753" type="line"/>
      <point x="177" y="753" type="line"/>
      <point x="177" y="342" type="line"/>
      <point x="217" y="376"/>
      <point x="177" y="341"/>
    </contour>
    <contour>
      <point x="1019" y="-86" type="curve"/>
      <point x="1019" y="-49"/>
      <point x="1019" y="-24"/>
      <point x="1019" y="13" type="curve"/>
      <point x="985" y="13"/>
      <point x="1020" y="13"/>
      <point x="986" y="13" type="curve"/>
      <point x="986" y="-13"/>
      <point x="986" y="-27"/>
      <point x="986" y="-53" type="curve"/>
      <point x="1021" y="-85"/>
      <point x="984" y="-54"/>
    </contour>
    <contour>
      <point x="678" y="-86" type="curve"/>
      <point x="799" y="-86"/>
      <point x="910" y="-86"/>
      <point x="1019" y="-86" type="curve"/>
      <point x="984" y="-54"/>
      <point x="1021" y="-85"/>
      <point x="986" y="-53" type="curve"/>
      <point x="884" y="-53"/>
      <point x="781" y="-53"/>
      <point x="678" y="-53" type="curve"/>
      <point x="678" y="-86"/>
      <point x="678" y="-53"/>
    </contour>
    <contour>
      <point x="736" y="228" type="curve"/>
      <point x="765" y="272"/>
      <point x="799" y="299"/>
      <point x="855" y="299" type="curve"/>
      <point x="917" y="299"/>
      <point x="958" y="268"/>
      <point x="958" y="209" type="curve"/>
      <point x="958" y="156"/>
      <point x="922" y="131"/>
      <point x="881" y="96" type="curve"/>
      <point x="813" y="47"/>
      <point x="746" y="-3"/>
      <point x="678" y="-53" type="curve"/>
      <point x="687" y="-86"/>
      <point x="679" y="-53"/>
      <point x="688" y="-86" type="curve"/>
      <point x="762" y="-32"/>
      <point x="836" y="19"/>
      <point x="905" y="70" type="curve"/>
      <point x="955" y="113"/>
      <point x="998" y="145"/>
      <point x="998" y="210" type="curve"/>
      <point x="998" y="290"/>
      <point x="940" y="333"/>
      <point x="857" y="333" type="curve"/>
      <point x="787" y="333"/>
      <point x="739" y="305"/>
      <point x="706" y="245" type="curve"/>
      <point x="736" y="228"/>
      <point x="706" y="245"/>
    </contour>
  </outline>
</glyph>
<glyph name="questiondown" format="1">
  <advance width="508"/>
  <unicode hex="00BF"/>
  <outline>
    <contour>
      <point x="308" y="369" type="curve"/>
      <point x="308" y="406"/>
      <point x="308" y="451"/>
      <point x="308" y="488" type="curve"/>
      <point x="266" y="488"/>
      <point x="308" y="488"/>
      <point x="266" y="488" type="curve"/>
      <point x="266" y="451"/>
      <point x="266" y="406"/>
      <point x="266" y="369" type="curve"/>
      <point x="308" y="369"/>
      <point x="266" y="369"/>
    </contour>
    <contour>
      <point x="423" y="92" type="line"/>
      <point x="390" y="58"/>
      <point x="341" y="30"/>
      <point x="279" y="30" type="curve"/>
      <point x="175" y="30"/>
      <point x="105" y="89"/>
      <point x="105" y="191" type="curve"/>
      <point x="105" y="304"/>
      <point x="185" y="369"/>
      <point x="304" y="369" type="curve"/>
      <point x="304" y="388"/>
      <point x="304" y="386"/>
      <point x="304" y="405" type="curve"/>
      <point x="161" y="405"/>
      <point x="64" y="326"/>
      <point x="64" y="191" type="curve"/>
      <point x="64" y="67"/>
      <point x="150" y="-7"/>
      <point x="276" y="-7" type="curve"/>
      <point x="351" y="-7"/>
      <point x="407" y="24"/>
      <point x="448" y="66" type="curve"/>
    </contour>
    <contour>
      <point x="261" y="694" type="curve"/>
      <point x="261" y="679"/>
      <point x="271" y="670"/>
      <point x="287" y="670" type="curve"/>
      <point x="303" y="670"/>
      <point x="312" y="680"/>
      <point x="312" y="694" type="curve"/>
      <point x="261" y="694"/>
      <point x="312" y="694"/>
      <point x="261" y="694" type="curve"/>
      <point x="261" y="710"/>
      <point x="271" y="718"/>
      <point x="287" y="718" type="curve"/>
      <point x="303" y="718"/>
      <point x="312" y="710"/>
      <point x="312" y="694" type="curve"/>
      <point x="261" y="694"/>
      <point x="312" y="694"/>
    </contour>
  </outline>
</glyph>
<glyph name="Aacute" format="1">
  <advance width="837"/>
  <unicode hex="00C1"/>
  <outline>
    <contour>
      <point x="115" y="35" type="curve"/>
      <point x="-29" y="35"/>
      <point x="124" y="35"/>
      <point x="-21" y="35" type="curve"/>
      <point x="-21" y="0"/>
      <point x="-21" y="35"/>
      <point x="-21" y="0" type="curve"/>
      <point x="28" y="0"/>
      <point x="67" y="0"/>
      <point x="115" y="0" type="curve"/>
      <point x="115" y="35"/>
      <point x="115" y="0"/>
    </contour>
    <contour>
      <point x="115" y="0" type="curve"/>
      <point x="168" y="0"/>
      <point x="107" y="0"/>
      <point x="264" y="0" type="curve"/>
      <point x="264" y="35"/>
      <point x="264" y="0"/>
      <point x="264" y="35" type="curve"/>
      <point x="107" y="35"/>
      <point x="272" y="35"/>
      <point x="115" y="35" type="curve"/>
      <point x="115" y="0"/>
      <point x="115" y="35"/>
    </contour>
    <contour>
      <point x="686" y="0" type="curve"/>
      <point x="735" y="0"/>
      <point x="774" y="0"/>
      <point x="822" y="0" type="curve"/>
      <point x="822" y="35"/>
      <point x="822" y="0"/>
      <point x="822" y="35" type="curve"/>
      <point x="678" y="35"/>
      <point x="831" y="35"/>
      <point x="686" y="35" type="curve"/>
      <point x="686" y="0"/>
      <point x="686" y="35"/>
    </contour>
    <contour>
      <point x="686" y="35" type="curve"/>
      <point x="530" y="35"/>
      <point x="694" y="35"/>
      <point x="538" y="35" type="curve"/>
      <point x="538" y="0"/>
      <point x="538" y="35"/>
      <point x="538" y="0" type="curve"/>
      <point x="590" y="0"/>
      <point x="634" y="0"/>
      <point x="686" y="0" type="curve"/>
      <point x="686" y="35"/>
      <point x="686" y="0"/>
    </contour>
    <contour>
      <point x="589" y="281" type="curve"/>
      <point x="469" y="281"/>
      <point x="350" y="281"/>
      <point x="230" y="281" type="curve"/>
      <point x="213" y="244"/>
      <point x="230" y="281"/>
      <point x="213" y="244" type="curve"/>
      <point x="343" y="244"/>
      <point x="473" y="244"/>
      <point x="603" y="244" type="curve"/>
      <point x="589" y="281"/>
      <point x="603" y="244"/>
    </contour>
    <contour>
      <point x="721" y="0" type="curve"/>
      <point x="627" y="241"/>
      <point x="532" y="481"/>
      <point x="437" y="722" type="curve"/>
      <point x="398" y="722"/>
      <point x="437" y="722"/>
      <point x="398" y="722" type="curve"/>
      <point x="492" y="481"/>
      <point x="583" y="241"/>
      <point x="676" y="0" type="curve"/>
      <point x="721" y="0"/>
      <point x="676" y="0"/>
    </contour>
    <contour>
      <point x="126" y="0" type="curve"/>
      <point x="230" y="241"/>
      <point x="332" y="481"/>
      <point x="436" y="722" type="curve"/>
      <point x="397" y="722"/>
      <point x="436" y="722"/>
      <point x="397" y="722" type="curve"/>
      <point x="291" y="481"/>
      <point x="185" y="241"/>
      <point x="80" y="0" type="curve"/>
      <point x="126" y="0"/>
      <point x="80" y="0"/>
    </contour>
    <contour>
      <point x="437" y="818" type="line"/>
      <point x="579" y="984" type="line"/>
      <point x="521" y="984" type="line"/>
      <point x="392" y="818" type="line"/>
    </contour>
  </outline>
</glyph>
